<svg xmlns="http://www.w3.org/2000/svg" xml:space="preserve" width="50" height="50"><path fill="#FFF" d="M27.262 18.434c7.321 0 13.822 2.242 17.93 4.632-4.401-1.843-10.803-3.683-17.93-3.683-7.126 0-13.528 1.84-17.929 3.683 4.105-2.39 10.607-4.632 17.929-4.632zM.187 31.566c-.064.002-.193.005-.134-.197l.194-.664a.636.636 0 0 1 .189-.299c.905-.387 2.003-1.135 2.466-2.559l1.588-5.425H2.234c-.109 0-.173-.089-.141-.195l.241-.822a.286.286 0 0 1 .256-.196h5.615c.109 0 .173.088.141.196L6.83 26.592c-.845 2.886-3.725 4.865-6.643 4.974zm12.925-4.234h-2.274l-.824 2.814a.211.211 0 0 1-.188.146H7.134c-.081 0-.127-.065-.104-.146l1.685-5.761s.133-.453.585-.453h4.806c.081 0 .127.064.103.145l-.177.606a.21.21 0 0 1-.188.144H11.57l-.47 1.611h2.275c.081 0 .126.063.104.144l-.177.605a.21.21 0 0 1-.19.145zm5.504 2.959h-4.249c-1.475 0-1.051-1.47-1.051-1.47l.532-1.818s.423-1.46 1.898-1.46h4.248c1.486 0 1.067 1.46 1.067 1.46l-.531 1.818c.001 0-.439 1.47-1.914 1.47zm6.129-3.699-1.039 3.555a.212.212 0 0 1-.189.146h-2.692c-.08 0-.127-.065-.104-.146l.915-3.128s.433-1.476 1.916-1.476h4.249c1.479 0 1.049 1.473 1.049 1.473l-.352 1.205a.212.212 0 0 1-.188.145h-2.691c-.081 0-.128-.064-.104-.145l.477-1.628s.047-.154-.114-.154h-.931c-.152-.001-.202.153-.202.153zm11.187 2.949-.177.604a.214.214 0 0 1-.188.146h-5.582c-1.481 0-1.055-1.473-1.055-1.473l.529-1.81s.432-1.467 1.914-1.467h4.244c1.488 0 1.053 1.472 1.053 1.472l-.049.167s-.34 1.183-1.831 1.183h-2.118c-.146 0-.105-.144-.105-.144l.18-.608s.041-.144.188-.144h.463c.158 0 .203-.157.203-.157l.211-.718s.043-.156-.113-.156h-.93c-.156 0-.201.156-.201.156l-.774 2.646s-.044.155.11.155h3.927c.076.003.124.068.101.148zm7.48-.565s-.2 1.317-1.876 1.317h-5.099c-.082 0-.127-.065-.104-.146l.179-.604a.208.208 0 0 1 .188-.146h3.438c.159 0 .202-.154.202-.154l.214-.729s.045-.148-.115-.148h-2.092c-1.486 0-1.037-1.597-1.037-1.597s.246-1.225 1.547-1.225h5.404c.08 0 .127.065.104.146l-.176.604a.213.213 0 0 1-.189.146h-3.438c-.154 0-.203.155-.203.155l-.211.717s-.043.16.112.16h2.103c1.476-.002 1.049 1.504 1.049 1.504zm6.544-3.288-.177.604a.211.211 0 0 1-.188.146H47.68l-.818 2.802s-.043.157.111.157h2.338c.08 0 .127.064.104.145l-.177.605a.21.21 0 0 1-.188.145h-3.991c-1.486 0-1.06-1.467-1.06-1.467l1.39-4.748a.21.21 0 0 1 .188-.144h2.69c.08 0 .127.063.104.144l-.43 1.467h1.912c.081-.001.126.064.103.144zm-31.872.75h-.929c-.157 0-.202.153-.202.153l-.775 2.651s-.045.153.109.153h.932c.162 0 .205-.156.205-.156l.774-2.648c0 .001.044-.153-.114-.153zM0 0v50h50V0H0z"/></svg>