<svg xmlns="http://www.w3.org/2000/svg" xml:space="preserve" width="50" height="13.15"><path fill="#006451" d="M19.987 7.119h-4.254c-1.477 0-1.9 1.463-1.9 1.463l-.533 1.82s-.425 1.473 1.052 1.473h4.255c1.478 0 1.917-1.473 1.917-1.473l.532-1.82s.419-1.463-1.069-1.463zm-2.78 3.86h-.933c-.155 0-.109-.155-.109-.155l.776-2.655s.045-.153.203-.153h.93c.157 0 .114.153.114.153l-.775 2.652s-.043.158-.206.158zM27.806 7.119H23.55c-1.485 0-1.919 1.478-1.919 1.478l-.916 3.133c-.024.08.023.146.103.146h2.697a.21.21 0 0 0 .189-.146l1.041-3.561s.051-.153.201-.153h.933c.161 0 .114.153.114.153L25.515 9.8c-.023.08.023.145.104.145h2.695a.207.207 0 0 0 .188-.145l.354-1.206s.431-1.475-1.05-1.475zM40.584 8.016h3.441a.21.21 0 0 0 .189-.146l.176-.606c.024-.079-.021-.145-.103-.145h-5.412c-1.304 0-1.551 1.226-1.551 1.226s-.449 1.6 1.041 1.6h2.094c.16 0 .114.148.114.148l-.213.73s-.044.156-.204.156h-3.441a.21.21 0 0 0-.188.145l-.179.605c-.022.08.024.146.105.146h5.106c1.678 0 1.878-1.318 1.878-1.318s.428-1.509-1.051-1.509H40.28c-.155 0-.113-.16-.113-.16l.213-.718s.049-.154.204-.154zM49.628 8.016a.21.21 0 0 0 .189-.146l.177-.606c.023-.079-.023-.145-.104-.145h-1.914l.43-1.469c.023-.081-.023-.145-.104-.145h-2.696a.206.206 0 0 0-.188.145l-1.392 4.755s-.428 1.47 1.061 1.47h3.998a.21.21 0 0 0 .188-.146l.177-.605c.024-.081-.023-.145-.103-.145h-2.343c-.155 0-.111-.158-.111-.158l.82-2.806h1.915zM13.829 6.401a.21.21 0 0 0 .188-.144l.177-.606c.023-.08-.023-.146-.104-.146H9.277c-.453 0-.586.453-.586.453l-1.688 5.771c-.024.08.024.146.104.146h2.695a.208.208 0 0 0 .188-.146l.825-2.818h2.278a.21.21 0 0 0 .188-.146l.178-.606c.023-.079-.024-.144-.104-.144h-2.278l.472-1.614h2.28zM36.639 8.76l.05-.167s.437-1.474-1.055-1.474h-4.251c-1.484 0-1.917 1.468-1.917 1.468l-.529 1.813s-.429 1.475 1.055 1.475h5.591a.21.21 0 0 0 .188-.146l.177-.605c.023-.081-.022-.145-.104-.145h-3.932c-.156 0-.111-.156-.111-.156l.776-2.652s.044-.155.2-.155h.932c.158 0 .113.155.113.155l-.21.721s-.046.156-.204.156h-.463c-.147 0-.188.145-.188.145l-.178.608s-.041.144.104.144h2.122c1.494-.001 1.834-1.185 1.834-1.185z"/><path fill="#66391F" d="M8.32 2.975c.033-.107-.031-.196-.141-.196H2.555a.287.287 0 0 0-.256.196l-.241.823c-.032.107.032.196.141.196h2.259L2.869 9.427c-.463 1.426-1.563 2.176-2.47 2.563a.624.624 0 0 0-.189.299l-.194.665c-.06.203.069.2.134.197 2.922-.11 5.807-2.092 6.652-4.982L8.32 2.975z"/><path fill="#6FBA2C" d="M45.222 4.638C41.11 2.243 34.598-.002 27.265-.002c-7.332 0-13.844 2.245-17.957 4.64C13.717 2.792 20.128.95 27.265.95c7.137-.001 13.548 1.842 17.957 3.688z"/></svg>