<svg xmlns="http://www.w3.org/2000/svg" xmlns:xlink="http://www.w3.org/1999/xlink" xml:space="preserve" width="595.56" height="842.16"><defs><path id="a" d="M83.16 68.876h474.96v708.34H83.16z"/></defs><defs><path id="b" d="M83.16 68.876h474.96v708.34H83.16z"/></defs><clipPath id="c"><use xlink:href="#b" overflow="visible"/></clipPath><g clip-path="url(#c)"><path d="m194.996 196.989.69.518c.374.23.244.302-.388.216l-2.846.604c.431.202.402.36-.086.475V201h3.234l.646-.647.819.604c.173.144.173.245 0 .302h-4.7v4.959c-.345.345-.561.359-.647.043v-5.002h-4.356V201h4.356v-2.544c-1.266.173-2.56.302-3.881.388-.172-.057-.172-.114 0-.172 2.76-.346 5.146-.907 7.159-1.683z"/></g><defs><path id="d" d="M83.16 68.876h474.96v708.34H83.16z"/></defs><clipPath id="e"><use xlink:href="#d" overflow="visible"/></clipPath><g clip-path="url(#e)"><path d="M240.44 198.283h-4.571l-.949 2.027h3.019l.259-.345.604.432c.172.144.114.245-.173.302v5.304c-.374.345-.561.359-.561.043v-.388h-5.002v.604c-.374.345-.561.359-.561.043v-6.382l.69.388h1.466l.388-2.027h-3.924v-.259h7.849l.647-.647.819.604c.172.143.172.244 0 .301zm-2.372 4.442v-2.156h-5.002v2.156h5.002zm-5.003 2.673h5.002v-2.415h-5.002v2.415z"/></g><defs><path id="f" d="M83.16 68.876h474.96v708.34H83.16z"/></defs><clipPath id="g"><use xlink:href="#f" overflow="visible"/></clipPath><g clip-path="url(#g)"><path d="M279.342 201.215h3.234l.647-.647.819.604c.172.145.172.245 0 .302h-4.701v4.873c-.431.431-.647.445-.647.043v-4.916h-4.398v-.259h4.398v-4.054l.69.086c.517.115.502.245-.043.388v3.58z"/></g><defs><path id="h" d="M83.16 68.876h474.96v708.34H83.16z"/></defs><clipPath id="i"><use xlink:href="#h" overflow="visible"/></clipPath><g clip-path="url(#i)"><path d="M322.428 198.455c0 .834-.028 1.553-.086 2.156h2.976l.259-.345.604.431c.173.144.115.245-.172.302-.029 1.697-.23 2.947-.604 3.752-.172.374-.46.705-.862.992-.316.201-.618.302-.905.302-.201 0-.302-.086-.302-.259 0-.144-.115-.244-.346-.302l-.689-.259c-.115-.114-.102-.172.043-.172l1.164.172c.201.029.417 0 .647-.086.402-.144.704-.518.905-1.121.229-.776.359-1.826.389-3.148h-3.148c-.288 2.501-1.625 4.328-4.011 5.477-.145 0-.173-.058-.086-.172 1.437-.92 2.386-1.883 2.846-2.89.575-1.265.848-2.875.819-4.83h-3.708v-.259h8.021l.604-.604.775.561c.173.144.173.245 0 .302h-5.133z"/></g><defs><path id="j" d="M83.16 68.876h474.96v708.34H83.16z"/></defs><clipPath id="k"><use xlink:href="#j" overflow="visible"/></clipPath><g clip-path="url(#k)"><path d="m369.286 196.989.689.518c.373.23.244.302-.388.216l-2.847.604c.432.202.402.36-.086.475V201h3.234l.646-.647.819.604c.173.144.173.245 0 .302h-4.7v4.959c-.346.345-.561.359-.647.043v-5.002h-4.355V201h4.355v-2.544a54.988 54.988 0 0 1-3.881.388c-.173-.057-.173-.114 0-.172 2.762-.346 5.147-.907 7.161-1.683z"/></g><defs><path id="l" d="M83.16 68.876h474.96v708.34H83.16z"/></defs><clipPath id="m"><use xlink:href="#l" overflow="visible"/></clipPath><g clip-path="url(#m)"><path d="M414.699 198.283h-4.571l-.948 2.027h3.019l.259-.345.604.432c.173.144.115.245-.172.302v5.304c-.374.345-.561.359-.561.043v-.388h-5.003v.604c-.374.345-.561.359-.561.043v-6.382l.69.388h1.466l.388-2.027h-3.924v-.259h7.849l.646-.647.819.604c.173.143.173.244 0 .301zm-2.371 4.442v-2.156h-5.003v2.156h5.003zm-5.003 2.673h5.003v-2.415h-5.003v2.415z"/></g><defs><path id="n" d="M83.16 68.876h474.96v708.34H83.16z"/></defs><clipPath id="o"><use xlink:href="#n" overflow="visible"/></clipPath><g clip-path="url(#o)"><path d="M453.633 201.215h3.234l.647-.647.819.604c.172.145.172.245 0 .302h-4.701v4.873c-.431.431-.646.445-.646.043v-4.916h-4.399v-.259h4.399v-4.054l.689.086c.518.115.503.245-.043.388v3.58z"/></g><defs><path id="p" d="M83.16 68.876h474.96v708.34H83.16z"/></defs><clipPath id="q"><use xlink:href="#p" overflow="visible"/></clipPath><g clip-path="url(#q)"><path d="M493.139 206.347v-9.143l.646.431h6.254l.259-.345.604.431c.173.144.114.245-.173.302v7.245c0 .345-.101.604-.302.776a1.154 1.154 0 0 1-.604.258c-.173.028-.259-.043-.259-.215 0-.144-.072-.245-.216-.302l-.689-.173c-.145-.057-.145-.114 0-.172h1.121c.259 0 .388-.129.388-.388v-2.889h-6.469v4.14c-.374.346-.56.36-.56.044zm3.493-4.442v-4.011h-2.933v4.011h2.933zm3.536-4.01h-2.976v4.011h2.976v-4.011z"/></g><defs><path id="r" d="M83.16 68.876h474.96v708.34H83.16z"/></defs><clipPath id="s"><use xlink:href="#r" overflow="visible"/></clipPath><g clip-path="url(#s)"><path d="M136.807 274.032v-5.865c-.489.834-.949 1.452-1.38 1.854-.115.029-.145-.014-.086-.129.977-1.61 1.739-3.407 2.286-5.391l.863.388c.143.144.014.245-.388.302a48.758 48.758 0 0 1-.863 2.027l.431.129c.287.115.187.245-.302.388v6.253c-.375.346-.561.361-.561.044zm1.337-1.078h5.865l.647-.646.819.604c.173.144.173.245 0 .302h-7.331v-.26zm4.959-1.94h-3.062v.819c-.374.345-.561.36-.561.043v-6.813l.647.431h2.846l.259-.345.604.432c.172.144.115.245-.172.302v5.649c-.374.345-.561.36-.561.043v-.561zm0-5.262h-3.062v2.329h3.062v-2.329zm-3.062 2.588v2.415h3.062v-2.415h-3.062z"/></g><g clip-path="url(#s)"><path fill="none" stroke="#000" stroke-miterlimit="10" stroke-width=".315" d="M136.807 274.032v-5.865c-.489.834-.949 1.452-1.38 1.854-.115.029-.145-.014-.086-.129.977-1.61 1.739-3.407 2.286-5.391l.863.388c.143.144.014.245-.388.302a48.758 48.758 0 0 1-.863 2.027l.431.129c.287.115.187.245-.302.388v6.253c-.375.346-.561.361-.561.044zm1.337-1.078h5.865l.647-.646.819.604c.173.144.173.245 0 .302h-7.331v-.26zm4.959-1.94h-3.062v.819c-.374.345-.561.36-.561.043v-6.813l.647.431h2.846l.259-.345.604.432c.172.144.115.245-.172.302v5.649c-.374.345-.561.36-.561.043v-.561zm0-5.262h-3.062v2.329h3.062v-2.329zm-3.062 2.588v2.415h3.062v-2.415h-3.062z"/></g><g clip-path="url(#s)"><path d="M154.999 267.521c0-.459.014-.934.043-1.423.028-.489-.23-.748-.776-.776-.173-.058-.188-.115-.043-.173.173-.028.331-.043.475-.043.345 0 .704.144 1.078.431.115.086.115.216 0 .388-.058.086-.115.259-.172.518a4.428 4.428 0 0 0-.086.949v3.924c0 .518.086.877.259 1.078.259.288.69.431 1.294.431.833 0 1.566-.172 2.199-.517.69-.374 1.451-.92 2.286-1.639.114-.057.158-.028.129.086-.776.92-1.553 1.596-2.329 2.027-.662.374-1.452.561-2.372.561-.662 0-1.179-.201-1.553-.604-.288-.316-.431-.776-.431-1.38l-.001-3.838z"/></g><g clip-path="url(#s)"><path fill="none" stroke="#000" stroke-miterlimit="10" stroke-width=".315" d="M154.999 267.521c0-.459.014-.934.043-1.423.028-.489-.23-.748-.776-.776-.173-.058-.188-.115-.043-.173.173-.028.331-.043.475-.043.345 0 .704.144 1.078.431.115.086.115.216 0 .388-.058.086-.115.259-.172.518a4.428 4.428 0 0 0-.086.949v3.924c0 .518.086.877.259 1.078.259.288.69.431 1.294.431.833 0 1.566-.172 2.199-.517.69-.374 1.451-.92 2.286-1.639.114-.057.158-.028.129.086-.776.92-1.553 1.596-2.329 2.027-.662.374-1.452.561-2.372.561-.662 0-1.179-.201-1.553-.604-.288-.316-.431-.776-.431-1.38l-.001-3.838z"/></g><defs><path id="t" d="M83.16 68.876h474.96v708.34H83.16z"/></defs><clipPath id="u"><use xlink:href="#t" overflow="visible"/></clipPath><g clip-path="url(#u)"><path d="M493.785 380.081c-.115.288-.172.705-.172 1.25 0 .288.028.619.086.992.086.46.114.833.086 1.122-.058.229-.187.345-.388.345-.145 0-.259-.086-.345-.259-.059-.259-.072-.575-.043-.949.028-.488.043-.906.043-1.25 0-.287-.115-.459-.346-.518l-.646-.086v-.172h.949l2.156-5.434c.114-.144.172-.115.172.086l-1.552 4.873zm-1.552-3.45c-.115-.115-.102-.172.043-.172.92.288 1.38.646 1.38 1.078 0 .288-.102.417-.302.388a.39.39 0 0 1-.302-.259 2.676 2.676 0 0 0-.819-1.035zm.82-2.243c-.087-.086-.072-.129.043-.129.977.23 1.466.576 1.466 1.035 0 .259-.101.388-.302.388-.115 0-.216-.115-.302-.345a2.629 2.629 0 0 0-.905-.949zm2.888 6.167c-.402 1.266-.935 2.229-1.595 2.89-.173.086-.216.043-.13-.129.92-1.409 1.38-2.933 1.38-4.571v-3.493l.647.388h1.983v-1.38l.733.129c.229.145.172.245-.173.302v.949h1.812l.561-.561.689.518c.173.145.173.245 0 .302h-5.692v1.466h1.121v-1.208l.733.129c.229.145.173.245-.172.302v.776h1.466v-1.208l.733.129c.229.145.172.245-.173.302v.776h1.078l.475-.474.604.431c.173.144.173.245 0 .302h-2.156v1.897c-.374.345-.561.36-.561.043v-.431h-1.466v.517c-.374.345-.562.36-.562.043v-2.07h-1.121v.863c0 .776-.058 1.38-.172 1.811h4.269l.389-.388.604.431c.287.259.187.36-.302.302a17.942 17.942 0 0 1-1.725 1.509c.919.46 1.897.748 2.933.862a2.52 2.52 0 0 0-.647.733c-1.063-.317-1.955-.748-2.674-1.294-1.121.69-2.458 1.208-4.011 1.553-.201 0-.23-.058-.086-.173 1.466-.431 2.702-.992 3.709-1.682-.432-.402-.862-.934-1.294-1.596h-1.207zm4.227 0h-2.674c.46.604.891 1.05 1.294 1.337.575-.459 1.035-.906 1.38-1.337zm-.862-1.681v-1.251h-1.466v1.251h1.466z"/></g><g clip-path="url(#u)"><path fill="none" stroke="#000" stroke-miterlimit="10" stroke-width=".315" d="M493.785 380.081c-.115.288-.172.705-.172 1.25 0 .288.028.619.086.992.086.46.114.833.086 1.122-.058.229-.187.345-.388.345-.145 0-.259-.086-.345-.259-.059-.259-.072-.575-.043-.949.028-.488.043-.906.043-1.25 0-.287-.115-.459-.346-.518l-.646-.086v-.172h.949l2.156-5.434c.114-.144.172-.115.172.086l-1.552 4.873zm-1.552-3.45c-.115-.115-.102-.172.043-.172.92.288 1.38.646 1.38 1.078 0 .288-.102.417-.302.388a.39.39 0 0 1-.302-.259 2.676 2.676 0 0 0-.819-1.035zm.82-2.243c-.087-.086-.072-.129.043-.129.977.23 1.466.576 1.466 1.035 0 .259-.101.388-.302.388-.115 0-.216-.115-.302-.345a2.629 2.629 0 0 0-.905-.949zm2.888 6.167c-.402 1.266-.935 2.229-1.595 2.89-.173.086-.216.043-.13-.129.92-1.409 1.38-2.933 1.38-4.571v-3.493l.647.388h1.983v-1.38l.733.129c.229.145.172.245-.173.302v.949h1.812l.561-.561.689.518c.173.145.173.245 0 .302h-5.692v1.466h1.121v-1.208l.733.129c.229.145.173.245-.172.302v.776h1.466v-1.208l.733.129c.229.145.172.245-.173.302v.776h1.078l.475-.474.604.431c.173.144.173.245 0 .302h-2.156v1.897c-.374.345-.561.36-.561.043v-.431h-1.466v.517c-.374.345-.562.36-.562.043v-2.07h-1.121v.863c0 .776-.058 1.38-.172 1.811h4.269l.389-.388.604.431c.287.259.187.36-.302.302a17.942 17.942 0 0 1-1.725 1.509c.919.46 1.897.748 2.933.862a2.52 2.52 0 0 0-.647.733c-1.063-.317-1.955-.748-2.674-1.294-1.121.69-2.458 1.208-4.011 1.553-.201 0-.23-.058-.086-.173 1.466-.431 2.702-.992 3.709-1.682-.432-.402-.862-.934-1.294-1.596h-1.207zm4.227 0h-2.674c.46.604.891 1.05 1.294 1.337.575-.459 1.035-.906 1.38-1.337zm-.862-1.681v-1.251h-1.466v1.251h1.466z"/></g><defs><path id="v" d="M83.16 68.876h474.96v708.34H83.16z"/></defs><defs><path id="w" d="M83.16 68.876h474.96v708.34H83.16z"/></defs><defs><path id="x" d="M83.16 68.876h474.96v708.34H83.16z"/></defs><clipPath id="y"><use xlink:href="#x" overflow="visible"/></clipPath><g clip-path="url(#y)"><path d="M93.168 463.925c-.228.936-.559 1.631-.992 2.087-.091.068-.137.046-.137-.068.342-.615.593-1.459.752-2.532l.616.24c.183.136.104.227-.239.273zm1.677-4.175.479.273c.183.138.103.229-.239.274l-1.438 2.155 1.334-.068a1.788 1.788 0 0 0-.479-.547c-.068-.092-.046-.126.068-.104.73.32 1.095.685 1.095 1.096 0 .205-.068.308-.205.308-.092 0-.149-.057-.171-.171a1.799 1.799 0 0 0-.239-.411l-.855.103v3.525c-.297.273-.445.284-.445.034v-3.49l-.924.239c-.091.229-.183.273-.273.137l-.376-.616h1.232l1.436-2.737zm-2.566.514c-.068-.091-.046-.137.068-.137.296.068.559.183.787.342l.787-1.779.513.342c.183.137.091.194-.273.171l-.89 1.369c.274.205.411.423.411.65 0 .205-.068.308-.205.308-.091 0-.194-.113-.308-.342-.137-.297-.434-.605-.89-.924zm3.319 4.345c0 .183-.068.273-.206.273-.114 0-.194-.125-.239-.376-.091-.319-.308-.639-.65-.958-.068-.092-.046-.138.068-.138.685.298 1.027.697 1.027 1.199zm3.525.856h.171l.445-.445.547.411c.137.114.137.193 0 .239h-5.304v-.205h1.266v-6.263l.514.309h1.813l.205-.274.479.343c.137.114.091.194-.137.239v5.646zm-2.43-4.038h1.985v-1.711h-1.985v1.711zm0 .205v1.608h1.985v-1.608h-1.985zm0 1.813v2.02h1.985v-2.02h-1.985zM104.905 459.065c-1.095 1.643-2.395 2.841-3.901 3.593-.114.023-.148-.022-.103-.137 1.665-1.003 2.875-2.338 3.627-4.003l.753.239c.137.114.137.194 0 .239 1.049 1.529 2.315 2.544 3.798 3.046-.342.091-.582.239-.719.444-1.369-.775-2.476-1.916-3.319-3.422h-.136zm-2.292 3.902.513.308h3.251l.239-.308.547.376c.183.137.103.229-.239.274v2.601c-.297.273-.445.284-.445.034v-.411h-3.422v.343c-.297.273-.445.284-.445.034v-3.251zm.308-.958v-.206h2.874l.376-.376.479.342c.137.115.137.194 0 .24h-3.729zm3.558 3.627v-2.156h-3.422v2.156h3.422zM110.073 465.704l1.437-.342v-2.601h-1.848v-.206h1.848v-3.661l.513.239h3.251l.445-.444.547.41c.137.114.137.194 0 .24h-4.312v.958h3.011l.376-.377.479.343c.137.114.137.193 0 .239h-3.867v.855h3.011l.376-.376.479.342c.137.114.137.194 0 .239h-3.867v.992h4.312l.513-.513.65.479c.137.114.137.194 0 .24h-3.867c.159.57.411 1.072.753 1.505l1.3-1.334.479.444c.137.137.011.184-.376.137l-1.3.855c.593.685 1.574 1.13 2.943 1.335-.274.114-.457.285-.547.514-1.118-.32-1.962-.787-2.532-1.403l-3.319 1.231c-.023.434-.125.56-.308.377l-.58-.717zm3.25-2.942h-1.369v2.498l2.224-.582a5.225 5.225 0 0 1-.855-1.916z"/></g><defs><path id="z" d="M83.16 68.876h474.96v708.34H83.16z"/></defs><clipPath id="A"><use xlink:href="#z" overflow="visible"/></clipPath><g clip-path="url(#A)"><path d="M145.449 463.856v-.855h-3.695v.308c-.297.274-.445.286-.445.034v-3.182l.513.41h1.985v-.89h-3.422v-.205h3.422v-.924l.582.103c.182.114.137.194-.137.239v.582h2.669l.445-.445.547.411c.137.114.137.193 0 .239h-3.661v.89h1.984l.206-.273.479.342c.137.114.091.194-.137.239v2.259c-.297.273-.445.285-.445.034v-.171h-.445v.855h1.232l.445-.445.548.411c.137.114.137.194 0 .239h-2.225v1.608c0 .273-.08.479-.239.616a.885.885 0 0 1-.411.205c-.137.022-.206-.034-.206-.171 0-.114-.057-.194-.171-.24l-.582-.137c-.115-.046-.115-.091 0-.137h.855c.205 0 .308-.103.308-.308v-1.438h-5.098v-.205h5.099zm-3.696-2.19h2.053v-.89h-2.053v.89zm2.054 1.13v-.924h-2.053v.924h2.053zm-.411 2.874c-.092 0-.16-.103-.206-.308-.091-.343-.308-.685-.65-1.027-.069-.091-.046-.125.068-.103.684.297 1.026.662 1.026 1.096.001.228-.079.342-.238.342zm2.943-4.004v-.89h-2.087v.89h2.087zm0 1.13v-.924h-2.087v.924h2.087zM150.445 461.838h-1.54v-.206h2.875l.205-.273.685.548c.114.159.022.217-.274.171a.549.549 0 0 0-.342.137l-.787.719c-.092.068-.137.046-.137-.068l.65-1.026h-.89v3.764c0 .251-.081.444-.24.582a.464.464 0 0 1-.342.137c-.091 0-.137-.046-.137-.137 0-.115-.068-.194-.205-.24l-.445-.103c-.091-.046-.091-.091 0-.137h.685c.159 0 .24-.08.24-.239v-2.361a8.584 8.584 0 0 1-1.574 1.779c-.137.046-.171 0-.103-.137.889-.937 1.447-1.906 1.676-2.91zm-.787-1.815c-.046-.068-.023-.103.068-.103.388.137.707.286.958.445l.753-1.026h-2.396v-.206h2.464l.24-.273.547.411c.091.159.045.228-.137.205a.542.542 0 0 0-.376.068l-.993.924c.183.205.274.376.274.514 0 .183-.08.273-.239.273-.092 0-.171-.068-.24-.205a2.7 2.7 0 0 0-.923-1.027zm6.056 3.868h-1.779c-.342 1.231-1.232 2.087-2.669 2.566-.115 0-.137-.046-.069-.137 1.209-.502 1.985-1.312 2.327-2.43h-1.643v-.205h1.677c.091-.319.171-.707.239-1.164l.616.137c.205.092.137.184-.206.274-.068.273-.137.524-.205.753h1.643l.205-.274.513.343c.183.137.103.229-.239.273-.091.73-.217 1.289-.376 1.677a1.113 1.113 0 0 1-.479.548c-.183.113-.354.171-.513.171-.115 0-.171-.08-.171-.239 0-.092-.057-.16-.171-.206l-.513-.239c-.068-.091-.046-.137.068-.137l.513.137c.068.022.206.034.411.034a.462.462 0 0 0 .411-.205c.159-.228.296-.788.41-1.677zm-1.608-2.396c-.32-.296-.639-.764-.958-1.403a6.912 6.912 0 0 1-.992 1.096c-.115.022-.149-.012-.103-.103.616-.707 1.095-1.597 1.438-2.669l.684.308c.114.137 0 .194-.342.171a7.166 7.166 0 0 1-.479.89h2.327l.445-.444.547.41c.137.114.137.194 0 .239h-1.129c-.251.616-.56 1.118-.924 1.506.479.365 1.209.639 2.19.821-.342.137-.548.273-.616.411a5.112 5.112 0 0 1-1.848-.959 6.357 6.357 0 0 1-2.943 1.574c-.114 0-.137-.045-.068-.137 1.048-.319 1.972-.89 2.771-1.711zm.958-1.506h-1.745c.274.548.604.971.993 1.267.25-.296.501-.719.752-1.267z"/></g><defs><path id="B" d="M83.16 68.876h474.96v708.34H83.16z"/></defs><clipPath id="C"><use xlink:href="#B" overflow="visible"/></clipPath><g clip-path="url(#C)"><path d="M183.705 463.993c1.003-.775 1.825-1.551 2.464-2.327h-2.361v-.205h2.498c.206-.296.433-.661.685-1.095l-1.985.103c-.023.388-.137.422-.342.103l-.411-.514h1.882l.616-1.471.411.205c.411.183.376.273-.103.273l-.719.992 3.08-.137a7.75 7.75 0 0 0-.992-.719c-.068-.045-.057-.079.034-.103.57.16 1.083.423 1.54.787.319.252.479.491.479.719 0 .205-.08.308-.24.308-.068 0-.171-.113-.308-.342a3.741 3.741 0 0 0-.376-.479l-2.396.24.479.342c.114.16 0 .217-.342.171a9.68 9.68 0 0 1-.479.616h3.593l.445-.444.547.41c.137.114.137.194 0 .239h-2.909c.912 1.073 1.917 1.779 3.011 2.122-.32.114-.536.273-.65.479-.844-.433-1.723-1.3-2.635-2.601h-1.574c-.867 1.05-1.825 1.871-2.875 2.464-.113.024-.136-.022-.067-.136zm.479.753c-.137 0-.148-.046-.034-.137a11.568 11.568 0 0 0 3.319-2.532l.547.41c.114.137.011.184-.308.137-1.278 1.027-2.452 1.734-3.524 2.122zm4.756-1.301c.114.138 0 .194-.342.172a12.633 12.633 0 0 1-3.969 1.848c-.137 0-.148-.046-.034-.137 1.483-.548 2.76-1.301 3.833-2.259l.512.376zm1.129.856c.182.16.08.218-.308.172-1.688 1.095-3.331 1.699-4.927 1.813-.16 0-.171-.046-.034-.137 1.665-.274 3.25-1.004 4.756-2.19l.513.342zM196.673 460.537h1.471l.24-.308.547.376c.183.137.103.229-.239.273v.89c-.297.274-.445.286-.445.034v-.137h-1.574v.787h1.711l.239-.308.548.376c.182.137.103.229-.24.274v.581h.479l.445-.444.548.41c.137.114.137.194 0 .24h-1.472v1.3c-.297.273-.445.285-.445.034v-.239h-1.813v.821c0 .273-.08.479-.24.616a.88.88 0 0 1-.411.205c-.137.022-.205-.046-.205-.205 0-.115-.057-.184-.171-.206l-.582-.137c-.114-.046-.114-.092 0-.137h.855c.206 0 .308-.103.308-.308v-.65h-2.566v-.205h2.566v-.89h-3.73v-.206h3.73v-.719h-2.464v-.205h2.464v-.787h-1.745v.24c-.297.273-.445.285-.445.034v-1.677l.513.273h1.677v-.685h-3.696v-.205h3.696v-1.095l.616.103c.251.091.194.183-.171.273v.719h2.601l.445-.445.547.411c.137.114.137.194 0 .239h-3.593v.689zm-2.19.205v.719h1.745v-.719h-1.745zm3.765.719v-.719h-1.574v.719h1.574zm.239 1.916v-.719h-1.813v.719h1.813zm0 .206h-1.813v.89h1.813v-.89z"/></g><defs><path id="D" d="M83.16 68.876h474.96v708.34H83.16z"/></defs><clipPath id="E"><use xlink:href="#D" overflow="visible"/></clipPath><g clip-path="url(#E)"><path d="M227.295 462.316h2.601l.582-1.882.616.171c.182.137.103.229-.24.273l-.787 1.438h.924l.445-.444.547.41c.137.114.137.194 0 .239h-4.688v-.205zm2.43-2.327h1.095l.445-.444.514.41c.137.114.137.194 0 .24h-4.415v-.206h1.917v-1.368l.582.103c.182.114.137.194-.137.239v1.026zm-.822 1.711c0 .252-.08.377-.24.377-.114 0-.183-.114-.205-.343-.046-.524-.194-.935-.445-1.231-.068-.091-.046-.125.068-.103.548.411.822.844.822 1.3zm-.376 3.696v.753c-.297.273-.445.284-.445.034v-3.012l.513.273h1.779l.206-.239.445.308c.137.115.091.194-.137.24v1.95c-.296.273-.445.285-.445.034v-.342h-1.916zm1.916-1.745h-1.916v1.539h1.916v-1.539zm4.14 1.677c-.228.159-.411.239-.547.239-.16 0-.24-.08-.24-.239 0-.091-.068-.16-.205-.206l-.411-.137c-.068-.045-.068-.079 0-.103l.342.034c.228.046.433.058.616.034a.419.419 0 0 0 .308-.205 1.98 1.98 0 0 0 .103-.685c0-.685-.342-1.391-1.026-2.121l.65-2.225h-1.403v6.536c-.297.273-.445.284-.445.034v-7.015l.513.239h1.334l.171-.239.582.41c.137.16.057.229-.24.205l-.958 2.054c.867.775 1.3 1.539 1.3 2.292.001.482-.147.847-.444 1.098zM236.363 465.704l1.437-.342v-2.601h-1.848v-.206h1.848v-3.661l.513.239h3.251l.445-.444.547.41c.137.114.137.194 0 .24h-4.312v.958h3.011l.376-.377.479.343c.137.114.137.193 0 .239h-3.867v.855h3.011l.376-.376.479.342c.137.114.137.194 0 .239h-3.867v.992h4.312l.513-.513.65.479c.137.114.137.194 0 .24h-3.867c.159.57.411 1.072.753 1.505l1.3-1.334.479.444c.137.137.011.184-.376.137l-1.3.855c.593.685 1.574 1.13 2.943 1.335-.274.114-.457.285-.547.514-1.118-.32-1.962-.787-2.532-1.403l-3.319 1.231c-.023.434-.125.56-.308.377l-.58-.717zm3.25-2.942h-1.369v2.498l2.224-.582a5.225 5.225 0 0 1-.855-1.916z"/></g><defs><path id="F" d="M83.16 68.876h474.96v708.34H83.16z"/></defs><clipPath id="G"><use xlink:href="#F" overflow="visible"/></clipPath><g clip-path="url(#G)"><path d="M270.718 460.127h2.122l.376-.377.479.342c.137.115.137.194 0 .24h-2.977v-.205zm.377-.856h1.3l.376-.377.479.342c.137.115.137.194 0 .24h-2.156v-.205zm0 1.882h1.505l.376-.377.479.343c.137.114.137.193 0 .239h-2.361v-.205zm0 .924h1.505l.376-.377.479.343c.137.114.137.194 0 .239h-2.361v-.205zm1.676 3.456v-.205h-1.095v.684c-.297.274-.445.285-.445.034v-3.113l.513.239h.924l.206-.273.479.342c.137.114.091.194-.137.239v2.02c-.297.272-.445.284-.445.033zm0-.411v-1.745h-1.095v1.745h1.095zm.069 1.027c1.14-.844 2.041-1.757 2.703-2.738h-1.848v-.205h2.087v-1.095h-1.129v.376c-.297.274-.445.286-.445.034v-3.593l.513.273h2.601l.206-.273.479.343c.137.114.091.193-.137.239v2.771c-.296.273-.445.285-.445.034v-.205h-1.197v1.095h1.437l.445-.444.547.41c.137.114.137.194 0 .239h-2.258c.707 1.05 1.563 1.803 2.566 2.259-.274.068-.479.193-.616.376a7.39 7.39 0 0 1-2.122-2.566v2.704c-.297.273-.445.284-.445.034v-2.498c-.662.98-1.62 1.825-2.875 2.532-.136.046-.159.012-.067-.102zm1.813-6.741v1.129h1.129v-1.129h-1.129zm0 1.334v1.164h1.129v-1.164h-1.129zm1.575-1.334v1.129h1.197v-1.129h-1.197zm0 1.334v1.164h1.197v-1.164h-1.197zM279.923 465.704l1.437-.342v-2.601h-1.848v-.206h1.848v-3.661l.513.239h3.251l.445-.444.547.41c.137.114.137.194 0 .24h-4.312v.958h3.011l.376-.377.479.343c.137.114.137.193 0 .239h-3.867v.855h3.011l.376-.376.479.342c.137.114.137.194 0 .239h-3.867v.992h4.312l.513-.513.65.479c.137.114.137.194 0 .24h-3.867c.159.57.411 1.072.753 1.505l1.3-1.334.479.444c.137.137.011.184-.376.137l-1.3.855c.593.685 1.574 1.13 2.943 1.335-.274.114-.457.285-.547.514-1.118-.32-1.962-.787-2.532-1.403l-3.319 1.231c-.023.434-.125.56-.308.377l-.58-.717zm3.25-2.942h-1.369v2.498l2.224-.582a5.225 5.225 0 0 1-.855-1.916z"/></g><defs><path id="H" d="M83.16 68.876h474.96v708.34H83.16z"/></defs><clipPath id="I"><use xlink:href="#H" overflow="visible"/></clipPath><g clip-path="url(#I)"><path d="M305.518 460.127h2.122l.376-.377.479.342c.137.115.137.194 0 .24h-2.978v-.205zm.377-.856h1.3l.377-.377.479.342c.137.115.137.194 0 .24h-2.155v-.205zm0 1.882h1.506l.376-.377.479.343c.137.114.137.193 0 .239h-2.361v-.205zm0 .924h1.506l.376-.377.479.343c.137.114.137.194 0 .239h-2.361v-.205zm1.676 3.456v-.205h-1.096v.684c-.296.274-.444.285-.444.034v-3.113l.514.239h.924l.205-.273.479.342c.138.114.092.194-.137.239v2.02c-.297.272-.445.284-.445.033zm0-.411v-1.745h-1.096v1.745h1.096zm.069 1.027c1.141-.844 2.041-1.757 2.703-2.738h-1.848v-.205h2.087v-1.095h-1.129v.376c-.297.274-.445.286-.445.034v-3.593l.514.273h2.601l.205-.273.479.343c.137.114.091.193-.137.239v2.771c-.297.273-.445.285-.445.034v-.205h-1.197v1.095h1.437l.445-.444.548.41c.137.114.137.194 0 .239h-2.259c.707 1.05 1.563 1.803 2.566 2.259-.273.068-.479.193-.616.376a7.386 7.386 0 0 1-2.121-2.566v2.704c-.297.273-.445.284-.445.034v-2.498c-.662.98-1.62 1.825-2.874 2.532-.138.046-.161.012-.069-.102zm1.813-6.741v1.129h1.129v-1.129h-1.129zm0 1.334v1.164h1.129v-1.164h-1.129zm1.574-1.334v1.129h1.197v-1.129h-1.197zm0 1.334v1.164h1.197v-1.164h-1.197zM314.723 465.704l1.438-.342v-2.601h-1.849v-.206h1.849v-3.661l.513.239h3.251l.444-.444.548.41c.137.114.137.194 0 .24h-4.312v.958h3.012l.376-.377.479.343c.137.114.137.193 0 .239h-3.867v.855h3.012l.376-.376.479.342c.137.114.137.194 0 .239h-3.867v.992h4.312l.514-.513.649.479c.138.114.138.194 0 .24h-3.866c.159.57.41 1.072.753 1.505l1.3-1.334.479.444c.137.137.011.184-.377.137l-1.3.855c.593.685 1.574 1.13 2.942 1.335-.273.114-.456.285-.547.514-1.118-.32-1.963-.787-2.532-1.403l-3.319 1.231c-.023.434-.126.56-.308.377l-.582-.717zm3.251-2.942h-1.369v2.498l2.225-.582a5.178 5.178 0 0 1-.856-1.916zM325.946 460.64l-.992 1.335v.719l.239.068.65-1.096.308.309c.114.137.057.183-.171.137l-.685.685c.57.297.855.57.855.821 0 .183-.068.273-.205.273-.092 0-.16-.068-.205-.205-.138-.319-.399-.616-.787-.89v3.422c-.297.273-.445.284-.445.034v-3.696c-.434.502-.901.971-1.403 1.403-.114.023-.137-.022-.068-.137a18.305 18.305 0 0 0 2.396-3.251h-2.189v-.205h1.266v-1.848l.616.103c.251.091.193.183-.171.273v1.472h.513l.205-.239.514.376c.089.137.01.183-.241.137zm2.224.548v-.992h-1.848v-.206h1.848v-1.573l.616.103c.251.091.193.183-.171.273v1.197h1.334l.514-.513.65.479c.137.114.137.194 0 .24h-2.498v.992h1.368l.206-.274.479.343c.137.114.091.194-.137.239v4.175c0 .251-.08.445-.239.582a.467.467 0 0 1-.343.137c-.091 0-.137-.046-.137-.137 0-.114-.068-.194-.205-.24l-.444-.103c-.092-.046-.092-.091 0-.137h.684c.159 0 .24-.08.24-.239v-1.54h-1.472v2.225c-.297.273-.445.284-.445.034v-2.259h-1.266v2.156c-.297.273-.445.284-.445.034v-5.201l.514.205h1.197zm-1.266.205v1.061h1.266v-1.061h-1.266zm0 1.265v1.13h1.266v-1.13h-1.266zm3.183-1.265h-1.472v1.061h1.472v-1.061zm0 1.265h-1.472v1.13h1.472v-1.13zm-.034-3.216c0 .114-.058.171-.172.171-.068 0-.125-.046-.171-.137a1.208 1.208 0 0 0-.65-.514c-.068-.068-.046-.103.068-.103.616.047.925.241.925.583zM333.44 458.621l.65.239c.205.092.137.183-.205.273-.229.73-.468 1.357-.719 1.883l.308.103c.183.114.137.193-.137.239v4.859c-.297.273-.444.284-.444.034v-4.757a7.045 7.045 0 0 1-1.062 1.506c-.159.114-.193.08-.103-.103.845-1.459 1.416-2.884 1.712-4.276zm3.115.513a16.331 16.331 0 0 1-.411 1.506h2.464l.445-.444.547.41c.138.114.138.194 0 .239h-3.524a7.692 7.692 0 0 1-.958 2.054h2.909l.444-.445.548.411c.137.114.137.193 0 .239h-2.02v2.396h1.745l.514-.514.65.479c.137.114.137.194 0 .239h-5.92v-.205h2.566v-2.396h-1.608c-.365.479-.775.89-1.231 1.231-.138.023-.172-.011-.104-.103.844-.798 1.506-1.927 1.985-3.388h-1.643v-.205h1.711c.183-.661.319-1.322.41-1.984l.685.205c.206.093.137.184-.204.275z"/></g><defs><path id="J" d="M83.16 68.876h474.96v708.34H83.16z"/></defs><clipPath id="K"><use xlink:href="#J" overflow="visible"/></clipPath><g clip-path="url(#K)"><path d="m352.862 458.519.753.308c.113.183 0 .239-.343.171.867 1.118 2.145 1.985 3.833 2.601a1.1 1.1 0 0 0-.616.479c-1.506-.775-2.624-1.779-3.354-3.012-1.3 1.643-2.589 2.692-3.866 3.148-.115 0-.126-.046-.034-.137a10.061 10.061 0 0 0 3.627-3.558zm2.224 6.741a9.144 9.144 0 0 0-.992-.855c-.114-.092-.091-.126.068-.104a5.377 5.377 0 0 1 1.54.89c.319.274.479.56.479.855 0 .229-.08.343-.24.343-.114 0-.217-.103-.308-.309-.068-.159-.205-.376-.41-.649l-4.654.479c-.137.434-.263.514-.376.24l-.343-.65 1.574-.034.685-1.951h-2.806v-.205h6.364l.445-.444.547.41c.137.114.137.194 0 .239h-3.969l-1.027 1.917 3.423-.172zm-4.14-3.56h3.079l.377-.376.479.342c.137.114.137.194 0 .24h-3.935v-.206zM358.063 460.332h2.566l.513-.514.65.479c.137.114.137.193 0 .239h-3.729v-.204zm.376 1.061h1.882l.445-.445.547.411c.138.114.138.194 0 .239h-2.874v-.205zm0 .992h1.984l.445-.444.548.41c.137.114.137.194 0 .239h-2.978v-.205zm.035-3.149h1.677l.445-.444.547.41c.137.115.137.194 0 .24h-2.669v-.206zm2.088 4.313.205-.24.444.309c.137.114.091.193-.137.239v1.882c-.297.273-.444.285-.444.034v-.205h-1.506v.616c-.297.273-.445.284-.445.034v-2.909l.514.24h1.369zm-1.438.205v1.608h1.506v-1.608h-1.506zm4.277-1.882v-3.217l.582.103c.182.114.137.194-.138.239v2.875h.855l.514-.514.65.479c.137.114.137.193 0 .239h-2.02v4.003c-.297.274-.444.285-.444.035v-4.038h-1.745v-.205h1.746zM370.519 463.104v-2.293H367.2v-.205h6.159l.445-.444.547.41c.138.114.138.194 0 .239h-3.388v2.293h1.917l.444-.445.548.411c.137.114.137.194 0 .239h-2.909v2.43h2.498l.514-.514.65.479c.137.114.137.193 0 .239h-7.631v-.205h3.524v-2.43h-2.908v-.205h2.909zm.513-2.84c-.138 0-.24-.091-.309-.274-.16-.456-.513-.855-1.061-1.197-.114-.091-.103-.137.034-.137 1.049.365 1.574.799 1.574 1.3.001.205-.079.308-.238.308zM375.241 462.933c.936-1.072 1.608-2.476 2.02-4.209l.684.273c.229.092.148.183-.239.274a12.728 12.728 0 0 1-.821 1.813l.273.068c.183.114.138.193-.137.239v4.996c-.297.273-.444.285-.444.034v-4.757c-.411.594-.821 1.039-1.232 1.335-.116.07-.15.048-.104-.066zm2.464-2.601c1.597-.343 2.92-.787 3.97-1.335l.719.411c.228.159.057.217-.514.171-.525.16-.992.285-1.403.376v2.601h1.813l.514-.513.65.479c.137.114.137.194 0 .24h-2.978v2.874h1.711l.514-.514.65.479c.137.114.137.193 0 .239h-5.476v-.205h2.156v-2.874h-2.566v-.206h2.566v-2.464c-.981.206-1.757.32-2.327.343-.091-.022-.091-.056.001-.102z"/></g><defs><path id="L" d="M83.16 68.876h474.96v708.34H83.16z"/></defs><clipPath id="M"><use xlink:href="#L" overflow="visible"/></clipPath><g clip-path="url(#M)"><path d="m407.329 460.947.377.172c.182.137.103.228-.24.273v4.791c-.297.273-.444.284-.444.034v-4.586c-.411.616-.821 1.13-1.232 1.54-.091.068-.137.046-.137-.068.799-1.117 1.46-2.601 1.984-4.448l.753.342c.159.092.046.183-.342.274-.16.479-.4 1.039-.719 1.676zm.411 4.894a5.903 5.903 0 0 0 1.677-2.019l.581.444c.183.138.068.206-.342.206-.57.661-1.187 1.163-1.848 1.505-.16.023-.183-.022-.068-.136zm5.064-2.908-1.711.205v3.046c-.296.273-.444.284-.444.034v-3.012l-2.122.205c0 .343-.08.377-.239.103l-.376-.547 2.326-.068 1.951-2.498.581.41c.229.206.104.274-.376.206l-1.882 1.882 2.121-.171a6.568 6.568 0 0 0-.649-.582c-.115-.091-.092-.125.068-.103.524.229.946.479 1.266.753.159.137.239.285.239.444 0 .205-.068.309-.205.309-.092 0-.183-.092-.273-.274a1.502 1.502 0 0 0-.275-.342zm-3.901-2.088c-.092-.068-.08-.103.034-.103.342.068.627.183.855.343l.616-1.335c-.73.092-1.495.16-2.293.205-.092-.045-.092-.091 0-.137 2.144-.319 3.581-.685 4.312-1.095l.787.513c.114.16-.046.194-.479.104l-1.711.308-1.095 1.54c.273.229.411.444.411.65 0 .251-.068.376-.206.376-.091 0-.183-.103-.273-.308-.182-.411-.502-.764-.958-1.061zm2.977 3.148c-.114-.091-.091-.125.068-.103.594.229 1.072.502 1.438.821.183.16.273.354.273.582 0 .228-.057.342-.171.342-.091 0-.183-.068-.273-.205-.434-.638-.879-1.117-1.335-1.437z"/></g><defs><path id="N" d="M83.16 68.876h474.96v708.34H83.16z"/></defs><clipPath id="O"><use xlink:href="#N" overflow="visible"/></clipPath><g clip-path="url(#O)"><path d="m450.919 460.947.377.172c.182.137.103.228-.24.273v4.791c-.297.273-.444.284-.444.034v-4.586c-.411.616-.821 1.13-1.232 1.54-.091.068-.137.046-.137-.068.799-1.117 1.46-2.601 1.984-4.448l.753.342c.159.092.046.183-.342.274-.16.479-.4 1.039-.719 1.676zm.411 4.894a5.903 5.903 0 0 0 1.677-2.019l.581.444c.183.138.068.206-.342.206-.57.661-1.187 1.163-1.848 1.505-.16.023-.183-.022-.068-.136zm5.064-2.908-1.711.205v3.046c-.296.273-.444.284-.444.034v-3.012l-2.122.205c0 .343-.08.377-.239.103l-.376-.547 2.326-.068 1.951-2.498.581.41c.229.206.104.274-.376.206l-1.882 1.882 2.121-.171a6.568 6.568 0 0 0-.649-.582c-.115-.091-.092-.125.068-.103.524.229.946.479 1.266.753.159.137.239.285.239.444 0 .205-.068.309-.205.309-.092 0-.183-.092-.273-.274a1.502 1.502 0 0 0-.275-.342zm-3.901-2.088c-.092-.068-.08-.103.034-.103.342.068.627.183.855.343l.616-1.335c-.73.092-1.495.16-2.293.205-.092-.045-.092-.091 0-.137 2.144-.319 3.581-.685 4.312-1.095l.787.513c.114.16-.046.194-.479.104l-1.711.308-1.095 1.54c.273.229.411.444.411.65 0 .251-.068.376-.206.376-.091 0-.183-.103-.273-.308-.182-.411-.502-.764-.958-1.061zm2.977 3.148c-.114-.091-.091-.125.068-.103.594.229 1.072.502 1.438.821.183.16.273.354.273.582 0 .228-.057.342-.171.342-.091 0-.183-.068-.273-.205-.434-.638-.879-1.117-1.335-1.437z"/></g><defs><path id="P" d="M83.16 68.876h474.96v708.34H83.16z"/></defs><clipPath id="Q"><use xlink:href="#P" overflow="visible"/></clipPath><g clip-path="url(#Q)"><path d="m494.479 460.947.377.172c.182.137.103.228-.24.273v4.791c-.297.273-.444.284-.444.034v-4.586c-.411.616-.821 1.13-1.232 1.54-.091.068-.137.046-.137-.068.799-1.117 1.46-2.601 1.984-4.448l.753.342c.159.092.046.183-.342.274-.16.479-.399 1.039-.719 1.676zm.412 4.894a5.903 5.903 0 0 0 1.677-2.019l.581.444c.183.138.068.206-.342.206-.57.661-1.187 1.163-1.848 1.505-.16.023-.184-.022-.068-.136zm5.063-2.908-1.711.205v3.046c-.296.273-.444.284-.444.034v-3.012l-2.122.205c0 .343-.08.377-.239.103l-.376-.547 2.326-.068 1.951-2.498.581.41c.229.206.104.274-.376.206l-1.882 1.882 2.121-.171a6.568 6.568 0 0 0-.649-.582c-.115-.091-.092-.125.068-.103.524.229.946.479 1.266.753.159.137.239.285.239.444 0 .205-.068.309-.205.309-.092 0-.183-.092-.273-.274a1.447 1.447 0 0 0-.275-.342zm-3.9-2.088c-.092-.068-.08-.103.034-.103.342.068.627.183.855.343l.616-1.335c-.73.092-1.495.16-2.293.205-.092-.045-.092-.091 0-.137 2.144-.319 3.581-.685 4.312-1.095l.787.513c.114.16-.046.194-.479.104l-1.711.308-1.095 1.54c.273.229.411.444.411.65 0 .251-.068.376-.206.376-.091 0-.183-.103-.273-.308-.183-.411-.502-.764-.958-1.061zm2.976 3.148c-.114-.091-.091-.125.068-.103.594.229 1.072.502 1.438.821.183.16.273.354.273.582 0 .228-.057.342-.171.342-.091 0-.183-.068-.273-.205-.433-.638-.879-1.117-1.335-1.437z"/></g><defs><path id="R" d="M83.16 68.876h474.96v708.34H83.16z"/></defs><clipPath id="S"><use xlink:href="#R" overflow="visible"/></clipPath><g clip-path="url(#S)"><path d="m535.879 460.947.377.172c.182.137.103.228-.24.273v4.791c-.297.273-.444.284-.444.034v-4.586c-.411.616-.821 1.13-1.232 1.54-.091.068-.137.046-.137-.068.799-1.117 1.46-2.601 1.984-4.448l.753.342c.159.092.046.183-.342.274-.16.479-.4 1.039-.719 1.676zm.411 4.894a5.903 5.903 0 0 0 1.677-2.019l.581.444c.183.138.068.206-.342.206-.57.661-1.187 1.163-1.848 1.505-.16.023-.183-.022-.068-.136zm5.064-2.908-1.711.205v3.046c-.296.273-.444.284-.444.034v-3.012l-2.122.205c0 .343-.08.377-.239.103l-.376-.547 2.326-.068 1.951-2.498.581.41c.229.206.104.274-.376.206l-1.882 1.882 2.121-.171a6.568 6.568 0 0 0-.649-.582c-.115-.091-.092-.125.068-.103.524.229.946.479 1.266.753.159.137.239.285.239.444 0 .205-.068.309-.205.309-.092 0-.183-.092-.273-.274a1.502 1.502 0 0 0-.275-.342zm-3.901-2.088c-.092-.068-.08-.103.034-.103.342.068.627.183.855.343l.616-1.335c-.73.092-1.495.16-2.293.205-.092-.045-.092-.091 0-.137 2.144-.319 3.581-.685 4.312-1.095l.787.513c.114.16-.046.194-.479.104l-1.711.308-1.095 1.54c.273.229.411.444.411.65 0 .251-.068.376-.206.376-.091 0-.183-.103-.273-.308-.182-.411-.502-.764-.958-1.061zm2.977 3.148c-.114-.091-.091-.125.068-.103.594.229 1.072.502 1.438.821.183.16.273.354.273.582 0 .228-.057.342-.171.342-.091 0-.183-.068-.273-.205-.434-.638-.879-1.117-1.335-1.437z"/></g><defs><path id="T" d="M83.16 68.876h474.96v708.34H83.16z"/></defs><defs><path id="U" d="M83.16 68.876h474.96v708.34H83.16z"/></defs><defs><path id="V" d="M83.16 68.876h474.96v708.34H83.16z"/></defs><clipPath id="W"><use xlink:href="#V" overflow="visible"/></clipPath><g clip-path="url(#W)"><path d="M233.259 541.859h.99c.288 0 .516-.082.681-.248.165-.164.248-.392.248-.681v-2.97h-4.517v-.371h4.517l-1.299-1.918h-3.217v-.371h3.032l-2.352-3.403c-.083-.124-.247-.248-.495-.371a1.647 1.647 0 0 0-.743-.186h-.495v-.372h4.641v.372h-.742c-.743 0-.908.33-.495.989l1.918 2.971h2.29l1.732-3.032c.124-.247.082-.474-.124-.681a.846.846 0 0 0-.619-.247h-.681v-.372h3.898v.372h-.248c-.743 0-1.279.269-1.609.804l-1.856 3.156h3.155v.371h-3.341l-1.237 1.918h4.579v.371h-4.517v2.97c0 .289.082.517.248.681.164.166.392.248.681.248h.99v.371h-5.012v-.371zm1.856-6.187.928 1.361h.124l.866-1.361h-1.918z"/></g><g clip-path="url(#W)"><path fill="none" stroke="#000" stroke-miterlimit="10" stroke-width=".453" d="M233.259 541.859h.99c.288 0 .516-.082.681-.248.165-.164.248-.392.248-.681v-2.97h-4.517v-.371h4.517l-1.299-1.918h-3.217v-.371h3.032l-2.352-3.403c-.083-.124-.247-.248-.495-.371a1.647 1.647 0 0 0-.743-.186h-.495v-.372h4.641v.372h-.742c-.743 0-.908.33-.495.989l1.918 2.971h2.29l1.732-3.032c.124-.247.082-.474-.124-.681a.846.846 0 0 0-.619-.247h-.681v-.372h3.898v.372h-.248c-.743 0-1.279.269-1.609.804l-1.856 3.156h3.155v.371h-3.341l-1.237 1.918h4.579v.371h-4.517v2.97c0 .289.082.517.248.681.164.166.392.248.681.248h.99v.371h-5.012v-.371zm1.856-6.187.928 1.361h.124l.866-1.361h-1.918z"/></g><defs><path id="X" d="M83.16 68.876h474.96v708.34H83.16z"/></defs><clipPath id="Y"><use xlink:href="#X" overflow="visible"/></clipPath><g clip-path="url(#Y)"><path d="M133.541 559.737v-4.859l.616.103c.25.046.193.137-.171.273v6.878c-.297.274-.445.285-.445.034v-2.224l-1.677.89c0 .297-.08.342-.239.137l-.342-.479.616-.205v-4.414l.616.103c.25.046.193.137-.171.274v3.9l1.197-.411zm2.874.547c-.639-.89-1.039-2.246-1.198-4.072h-.855v-.205h3.456l.274-.273.547.41c.251.16.159.24-.274.24-.296 1.62-.775 2.908-1.437 3.866.501.57 1.289 1.038 2.361 1.403-.365.068-.594.228-.685.479a6.413 6.413 0 0 1-1.951-1.539c-.547.707-1.403 1.346-2.566 1.916-.114.022-.148-.012-.103-.103 1.028-.616 1.837-1.323 2.431-2.122zm1.471-4.072h-2.498c.228 1.643.65 2.887 1.266 3.73.548-.889.959-2.132 1.232-3.73zM144.49 555.87c.183 2.624 1.425 4.482 3.73 5.578a1.524 1.524 0 0 0-.855.479c-1.757-1.322-2.772-3.067-3.045-5.235-.32 2.601-1.723 4.494-4.209 5.681-.114 0-.137-.046-.068-.137 2.44-1.506 3.718-3.639 3.833-6.399h-2.259v-.205h2.19l.308-.479.616.445c.181.135.102.227-.241.272zM149.281 555.22l.547.411c.844-.205 1.585-.479 2.224-.821l.582.376c.159.184.011.24-.445.171-1.004.274-1.826.435-2.464.479v1.813h1.951l.445-.444.547.41c.137.114.137.194 0 .239h-2.943v2.088h2.156l.445-.445.547.411c.137.114.137.194 0 .239h-3.148v1.54c-.297.273-.445.285-.445.034v-6.501zm4.004.068.548.343h1.916l.206-.274.479.343c.137.114.091.194-.137.239v4.448c0 .274-.08.479-.239.616-.16.137-.297.205-.411.205-.137 0-.206-.057-.206-.171 0-.137-.08-.228-.239-.273l-.479-.103c-.115-.046-.115-.091 0-.137h.821c.205 0 .308-.104.308-.309v-4.38h-2.122v6.604c-.296.273-.445.285-.445.034v-7.185zM160.847 558.984c-.091 0-.148-.068-.171-.206l-.137-.41-.787.171v3.73c-.297.273-.445.284-.445.034v-3.696l-1.129.171c-.091.365-.217.377-.376.035l-.273-.411 1.3-.034 1.437-2.43.445.343c.228.205.148.285-.239.239l-1.438 1.813 1.438-.137a2.976 2.976 0 0 0-.342-.548c-.023-.068 0-.091.068-.068.593.389.89.765.89 1.129-.002.185-.082.275-.241.275zm-2.43.308.547.308c.137.115.057.172-.239.172-.206.844-.537 1.551-.993 2.121-.114.068-.16.046-.137-.068.389-.708.662-1.552.822-2.533zm.171-2.601c.228.205.342.423.342.65 0 .137-.068.205-.205.205-.115 0-.217-.125-.308-.376-.183-.411-.434-.719-.753-.924-.046-.069-.012-.104.103-.104.251.092.479.229.685.411l.89-1.779.582.308c.137.114.022.171-.342.171l-.994 1.438zm1.438 2.738c-.023-.068 0-.091.068-.068.638.297.958.662.958 1.095 0 .16-.068.24-.206.24-.046 0-.091-.022-.137-.068a4.088 4.088 0 0 1-.205-.514c-.067-.183-.228-.411-.478-.685zm3.901 1.06-2.669 1.13c.046.388-.034.513-.239.376l-.513-.65.992-.239v-5.475l.513.205c1.072-.273 1.928-.57 2.566-.89l.547.41c.206.138.08.194-.376.172-.388.068-.719.125-.993.171v.958c0 .57.022 1.072.068 1.506h.65l.513-.514.65.479c.137.114.137.193 0 .239h-1.814c.069.525.217 1.118.445 1.779.091.273.194.514.308.719.114.205.228.376.342.514.182.137.308.057.376-.24l.137-.513c.068-.114.114-.114.137 0l-.069.581c-.023.365.011.639.103.821.022.159-.058.229-.24.206-.297-.092-.582-.309-.855-.65-.272-.41-.465-.774-.579-1.095zm-1.985-2.326h1.437a13.494 13.494 0 0 1-.068-1.472v-.924a11.56 11.56 0 0 1-1.369.273v2.123zm1.951 2.224c-.206-.524-.376-1.197-.514-2.019h-1.437v2.635l1.951-.616z"/></g><defs><path id="Z" d="M83.16 68.876h474.96v708.34H83.16z"/></defs><clipPath id="aa"><use xlink:href="#Z" overflow="visible"/></clipPath><g clip-path="url(#aa)"><path d="m132.942 583.016.411.273c.228.205.148.285-.239.239-.342.479-.867.924-1.574 1.335-.137.022-.16-.023-.068-.137.591-.433 1.082-1.003 1.47-1.71zm-.308-5.339h1.505l.206-.273.479.343c.137.114.091.193-.137.239v4.894c-.296.273-.445.285-.445.034v-.206h-1.676v.343c-.297.273-.445.285-.445.034v-5.715l.513.307zm1.608.206h-1.676v1.368h1.676v-1.368zm0 1.574h-1.676v1.334h1.676v-1.334zm0 1.539h-1.676v1.506h1.676v-1.506zm.548 3.422c-.092 0-.171-.068-.24-.205a2.576 2.576 0 0 0-.719-.992c-.068-.091-.046-.125.069-.103.729.342 1.095.696 1.095 1.061 0 .159-.068.239-.205.239zm2.498-5.44h1.163l.376-.376.479.342c.137.114.137.194 0 .239h-2.019v2.43h1.061l.206-.273.479.342c.137.114.091.194-.137.239v2.566c-.296.274-.445.285-.445.034v-.41h-2.429v.65c-.297.273-.445.285-.445.034v-3.456l.513.273h.753v-4.414l.582.103c.182.114.137.194-.137.239v1.438zm-1.266 2.839v2.088h2.429v-2.088h-2.429zM159.235 579.73v4.825c-.297.273-.445.284-.445.034v-4.586a7.516 7.516 0 0 1-1.198 1.472c-.137.092-.171.058-.103-.103.844-1.164 1.505-2.601 1.985-4.312l.616.239c.205.092.137.183-.206.273-.228.594-.491 1.21-.787 1.849l.273.068c.185.116.139.196-.135.241zm4.517 4.141c0 .273-.081.479-.24.615a.913.913 0 0 1-.479.206c-.137.022-.206-.034-.206-.172 0-.114-.057-.193-.171-.239l-.513-.137c-.115-.045-.115-.091 0-.137H163c.205 0 .308-.103.308-.308v-3.97h-3.49v-.205h3.49v-2.361l.582.103c.182.114.137.194-.137.239v2.02h.513l.513-.514.65.479c.137.114.137.193 0 .239h-1.676v4.142zm-3.251-3.114c-.114-.091-.091-.125.068-.103.844.365 1.266.821 1.266 1.369 0 .183-.08.273-.24.273-.114 0-.194-.068-.239-.205-.205-.593-.49-1.037-.855-1.334z"/></g><defs><path id="ab" d="M83.16 68.876h474.96v708.34H83.16z"/></defs><defs><path id="ac" d="M169.82 320.93h387.82v10.2H169.82z"/></defs><defs><path id="ad" d="M83.16 430.006h217.37v25.225H83.16z"/></defs><clipPath id="ae"><use xlink:href="#ad" overflow="visible"/></clipPath><g clip-path="url(#ae)"><path d="M119.394 444.037a7.034 7.034 0 0 1-1.37-2.48h-1.518v-.223h2.74v-1.666h-3.703v-.223h3.703v-1.592l.667.111c.271.099.209.197-.185.296v1.185h2.814l.481-.481.592.444c.148.124.148.211 0 .26h-3.888v1.666h1.667l.407-.407.556.556c.148.173.012.259-.408.259-.42.717-1.037 1.481-1.852 2.296 1.012.766 2.271 1.247 3.777 1.444a1.01 1.01 0 0 0-.629.556c-1.21-.222-2.358-.79-3.444-1.703-1.21 1.013-2.691 1.679-4.444 1.999-.099-.024-.111-.073-.037-.147 1.827-.594 3.185-1.31 4.074-2.15zm2.074-2.48h-3.259a6.313 6.313 0 0 0 1.519 2.185 8.228 8.228 0 0 0 1.74-2.185z"/></g><g clip-path="url(#ae)"><path fill="none" stroke="#000" stroke-miterlimit="10" stroke-width=".271" d="M119.394 444.037a7.034 7.034 0 0 1-1.37-2.48h-1.518v-.223h2.74v-1.666h-3.703v-.223h3.703v-1.592l.667.111c.271.099.209.197-.185.296v1.185h2.814l.481-.481.592.444c.148.124.148.211 0 .26h-3.888v1.666h1.667l.407-.407.556.556c.148.173.012.259-.408.259-.42.717-1.037 1.481-1.852 2.296 1.012.766 2.271 1.247 3.777 1.444a1.01 1.01 0 0 0-.629.556c-1.21-.222-2.358-.79-3.444-1.703-1.21 1.013-2.691 1.679-4.444 1.999-.099-.024-.111-.073-.037-.147 1.827-.594 3.185-1.31 4.074-2.15zm2.074-2.48h-3.259a6.313 6.313 0 0 0 1.519 2.185 8.228 8.228 0 0 0 1.74-2.185z"/></g><g clip-path="url(#ae)"><path d="M144.359 442.038v-.444h-2.555v3.74h2.926v-2.777l.629.11c.197.124.148.21-.148.26v3.296c-.321.296-.481.309-.481.037v-.704h-6.258v.63c-.321.296-.481.309-.481.037v-3.703l.629.11c.197.124.148.211-.148.26v2.444h2.851v-3.74h-2.407v.37c-.321.296-.481.309-.481.037v-3.222l.629.111c.197.123.148.21-.148.259v2.222h2.407v-3.11l.63.111c.197.123.148.21-.148.259v2.74h2.555v-2.592l.63.111c.197.123.148.21-.148.259v2.852c-.322.296-.483.309-.483.037z"/></g><g clip-path="url(#ae)"><path fill="none" stroke="#000" stroke-miterlimit="10" stroke-width=".271" d="M144.359 442.038v-.444h-2.555v3.74h2.926v-2.777l.629.11c.197.124.148.21-.148.26v3.296c-.321.296-.481.309-.481.037v-.704h-6.258v.63c-.321.296-.481.309-.481.037v-3.703l.629.11c.197.124.148.211-.148.26v2.444h2.851v-3.74h-2.407v.37c-.321.296-.481.309-.481.037v-3.222l.629.111c.197.123.148.21-.148.259v2.222h2.407v-3.11l.63.111c.197.123.148.21-.148.259v2.74h2.555v-2.592l.63.111c.197.123.148.21-.148.259v2.852c-.322.296-.483.309-.483.037z"/></g><g clip-path="url(#ae)"><path d="M159.474 446.074c-.148.049-.185.012-.111-.111.913-.863 1.556-1.715 1.926-2.555-.321-.519-.617-1.173-.889-1.963a5.902 5.902 0 0 1-1 1.593c-.124.05-.161.013-.111-.111.716-1.136 1.271-2.728 1.667-4.777l.555.186c.444.147.432.271-.037.37-.173.494-.358.987-.555 1.481h1.222l.259-.26.593.407c.172.124.074.211-.296.26-.272 1.136-.605 2.099-1 2.889.419.666.95 1.147 1.592 1.444.691.32 1.481.48 2.37.48h2.259a.778.778 0 0 0-.481.445h-2c-.988 0-1.79-.198-2.407-.593a6.003 6.003 0 0 1-1.519-1.444c-.47.865-1.149 1.618-2.037 2.259zm2.703-5.666h-1.333c-.099.247-.21.507-.333.778.346.839.654 1.469.926 1.889.394-.963.641-1.851.74-2.667zm.555 3.74a5.927 5.927 0 0 0 1.074-3.443v-1.963l.556.37h1.259l.222-.259.481.333c.172.124.124.21-.148.259v3.926c0 .099.049.148.148.148h.741c.124 0 .197-.074.222-.223l.222-1.222c.024-.099.062-.099.111 0v1.185c0 .148.049.235.148.26.172.05.185.147.037.296-.099.099-.333.148-.704.148h-.963c-.296 0-.444-.148-.444-.444v-4.185h-1.407v1.518c0 1.26-.481 2.396-1.444 3.407-.148.099-.185.062-.111-.111z"/></g><g clip-path="url(#ae)"><path fill="none" stroke="#000" stroke-miterlimit="10" stroke-width=".271" d="M159.474 446.074c-.148.049-.185.012-.111-.111.913-.863 1.556-1.715 1.926-2.555-.321-.519-.617-1.173-.889-1.963a5.902 5.902 0 0 1-1 1.593c-.124.05-.161.013-.111-.111.716-1.136 1.271-2.728 1.667-4.777l.555.186c.444.147.432.271-.037.37-.173.494-.358.987-.555 1.481h1.222l.259-.26.593.407c.172.124.074.211-.296.26-.272 1.136-.605 2.099-1 2.889.419.666.95 1.147 1.592 1.444.691.32 1.481.48 2.37.48h2.259a.778.778 0 0 0-.481.445h-2c-.988 0-1.79-.198-2.407-.593a6.003 6.003 0 0 1-1.519-1.444c-.47.865-1.149 1.618-2.037 2.259zm2.703-5.666h-1.333c-.099.247-.21.507-.333.778.346.839.654 1.469.926 1.889.394-.963.641-1.851.74-2.667zm.555 3.74a5.927 5.927 0 0 0 1.074-3.443v-1.963l.556.37h1.259l.222-.259.481.333c.172.124.124.21-.148.259v3.926c0 .099.049.148.148.148h.741c.124 0 .197-.074.222-.223l.222-1.222c.024-.099.062-.099.111 0v1.185c0 .148.049.235.148.26.172.05.185.147.037.296-.099.099-.333.148-.704.148h-.963c-.296 0-.444-.148-.444-.444v-4.185h-1.407v1.518c0 1.26-.481 2.396-1.444 3.407-.148.099-.185.062-.111-.111z"/></g><g clip-path="url(#ae)"><path d="M183.031 439.445v2.074h.333l.481-.481.592.444c.148.124.148.21 0 .259h-1.407v2.296l1.852-.703c.123 0 .148.05.074.148l-3.037 1.555c-.074.396-.185.494-.333.297l-.481-.63 1.444-.481v-2.481h-1.222v-.222h1.222v-2.074h-1.37v-.222h2.296l.481-.481.593.444c.148.124.148.21 0 .259h-1.518zm4.184 4.482v1.814h1.37l.556-.556.704.519c.148.123.148.209 0 .259h-6.333v-.222h3.222v-1.814h-1.852v-.223h1.852v-1.519h-1.444v.519c-.321.297-.481.31-.481.037v-4.332l.556.259h3.147l.222-.296.519.37c.148.124.099.21-.148.259v3.481c-.321.296-.481.309-.481.037v-.334h-1.407v1.519h1.185l.481-.481.592.444c.148.124.148.21 0 .26h-2.26zm-1.925-5.036v1.48h1.444v-1.48h-1.444zm0 3.073h1.444v-1.37h-1.444v1.37zm3.333-3.073h-1.407v1.48h1.407v-1.48zm-1.408 1.703v1.37h1.407v-1.37h-1.407z"/></g><g clip-path="url(#ae)"><path fill="none" stroke="#000" stroke-miterlimit="10" stroke-width=".271" d="M183.031 439.445v2.074h.333l.481-.481.592.444c.148.124.148.21 0 .259h-1.407v2.296l1.852-.703c.123 0 .148.05.074.148l-3.037 1.555c-.074.396-.185.494-.333.297l-.481-.63 1.444-.481v-2.481h-1.222v-.222h1.222v-2.074h-1.37v-.222h2.296l.481-.481.593.444c.148.124.148.21 0 .259h-1.518zm4.184 4.482v1.814h1.37l.556-.556.704.519c.148.123.148.209 0 .259h-6.333v-.222h3.222v-1.814h-1.852v-.223h1.852v-1.519h-1.444v.519c-.321.297-.481.31-.481.037v-4.332l.556.259h3.147l.222-.296.519.37c.148.124.099.21-.148.259v3.481c-.321.296-.481.309-.481.037v-.334h-1.407v1.519h1.185l.481-.481.592.444c.148.124.148.21 0 .26h-2.26zm-1.925-5.036v1.48h1.444v-1.48h-1.444zm0 3.073h1.444v-1.37h-1.444v1.37zm3.333-3.073h-1.407v1.48h1.407v-1.48zm-1.408 1.703v1.37h1.407v-1.37h-1.407z"/></g><g clip-path="url(#ae)"><path d="M208.329 446.223c-.296 0-.444-.148-.444-.444v-2.926h-1.37c-.099 1.852-1.185 3.073-3.259 3.666-.148 0-.186-.05-.111-.148 1.852-.691 2.802-1.863 2.852-3.518h-2.518v-.223h6.74l.555-.555.704.519c.148.123.148.21 0 .259h-3.11v2.777c0 .099.049.148.148.148h2.333c.247 0 .382-.087.407-.26l.222-1.296c.049-.049.086-.049.111 0v1.296c0 .123.049.21.148.26.172.074.172.185 0 .333-.074.074-.296.111-.667.111h-2.741zm-4.222-5.666a.48.48 0 0 1-.444.259c-.198 0-.296-.086-.296-.259 0-.123.074-.234.222-.333.346-.247.556-.63.629-1.148.049-.099.099-.099.148 0v.407h2.703v-1.407l.629.111c.197.124.148.21-.148.26v1.036h3.037l.222-.259.741.556c.098.147.049.21-.148.185-.247.025-.407.063-.481.111l-.629.481c-.099.074-.148.05-.148-.074l.481-.777h-6.295c-.05.419-.124.702-.223.851zm.593.518h3.925l.556-.556.704.519c.148.124.148.21 0 .259H204.7v-.222z"/></g><g clip-path="url(#ae)"><path fill="none" stroke="#000" stroke-miterlimit="10" stroke-width=".271" d="M208.329 446.223c-.296 0-.444-.148-.444-.444v-2.926h-1.37c-.099 1.852-1.185 3.073-3.259 3.666-.148 0-.186-.05-.111-.148 1.852-.691 2.802-1.863 2.852-3.518h-2.518v-.223h6.74l.555-.555.704.519c.148.123.148.21 0 .259h-3.11v2.777c0 .099.049.148.148.148h2.333c.247 0 .382-.087.407-.26l.222-1.296c.049-.049.086-.049.111 0v1.296c0 .123.049.21.148.26.172.074.172.185 0 .333-.074.074-.296.111-.667.111h-2.741zm-4.222-5.666a.48.48 0 0 1-.444.259c-.198 0-.296-.086-.296-.259 0-.123.074-.234.222-.333.346-.247.556-.63.629-1.148.049-.099.099-.099.148 0v.407h2.703v-1.407l.629.111c.197.124.148.21-.148.26v1.036h3.037l.222-.259.741.556c.098.147.049.21-.148.185-.247.025-.407.063-.481.111l-.629.481c-.099.074-.148.05-.148-.074l.481-.777h-6.295c-.05.419-.124.702-.223.851zm.593.518h3.925l.556-.556.704.519c.148.124.148.21 0 .259H204.7v-.222z"/></g><g clip-path="url(#ae)"><path d="M231.887 439.149h-6.258v-.223h6.332l.445-.37.629.63c.172.173.135.259-.111.259h-.518l-2.519 1.297v4.888c0 .197-.124.37-.37.519-.198.123-.37.185-.519.185-.099 0-.148-.073-.148-.222 0-.173-.074-.272-.222-.296l-.667-.111c-.124-.05-.124-.099 0-.148h1c.247 0 .371-.123.371-.37v-4.888l.555.222 2-1.372z"/></g><g clip-path="url(#ae)"><path fill="none" stroke="#000" stroke-miterlimit="10" stroke-width=".271" d="M231.887 439.149h-6.258v-.223h6.332l.445-.37.629.63c.172.173.135.259-.111.259h-.518l-2.519 1.297v4.888c0 .197-.124.37-.37.519-.198.123-.37.185-.519.185-.099 0-.148-.073-.148-.222 0-.173-.074-.272-.222-.296l-.667-.111c-.124-.05-.124-.099 0-.148h1c.247 0 .371-.123.371-.37v-4.888l.555.222 2-1.372z"/></g><g clip-path="url(#ae)"><path d="M249.704 439.149h3.333l.222-.296.519.37c.148.124.099.21-.148.259v5.925c-.321.297-.481.309-.481.037v-.666h-3.518v1.11c-.321.297-.481.309-.481.037v-7.184l.554.408zm3.444.223h-3.518v2.332h3.518v-2.332zm0 2.555h-3.518v2.629h3.518v-2.629z"/></g><g clip-path="url(#ae)"><path fill="none" stroke="#000" stroke-miterlimit="10" stroke-width=".271" d="M249.704 439.149h3.333l.222-.296.519.37c.148.124.099.21-.148.259v5.925c-.321.297-.481.309-.481.037v-.666h-3.518v1.11c-.321.297-.481.309-.481.037v-7.184l.554.408zm3.444.223h-3.518v2.332h3.518v-2.332zm0 2.555h-3.518v2.629h3.518v-2.629z"/></g><defs><path id="af" d="M83.16 404.81h217.37v25.2H83.16z"/></defs><clipPath id="ag"><use xlink:href="#af" overflow="visible"/></clipPath><g clip-path="url(#ag)"><path d="M119.224 420.262h2.962l.555-.556.704.519c.148.124.148.209 0 .259h-8.295v-.222h3.518v-7.333l.741.111c.271.099.209.198-.185.296v2.962h2.185l.556-.556.704.519c.148.124.148.21 0 .259h-3.444v3.742z"/></g><g clip-path="url(#ag)"><path fill="none" stroke="#000" stroke-miterlimit="10" stroke-width=".271" d="M119.224 420.262h2.962l.555-.556.704.519c.148.124.148.209 0 .259h-8.295v-.222h3.518v-7.333l.741.111c.271.099.209.198-.185.296v2.962h2.185l.556-.556.704.519c.148.124.148.21 0 .259h-3.444v3.742z"/></g><g clip-path="url(#ag)"><path d="M130.855 414.633h3.333l.481-.481.592.444c.148.124.148.21 0 .259h-4.407v-.222zm.519-1.148h1.852l.481-.481.592.444c.148.124.148.21 0 .259h-2.925v-.222zm.148 2.259h1.963l.407-.407.519.37c.148.124.148.21 0 .259h-2.889v-.222zm0 1.185h2l.407-.407.519.37c.148.124.148.21 0 .259h-2.926v-.222zm2.704 1.592v2.222c-.321.296-.481.308-.481.037v-.407h-1.556v.629c-.321.296-.481.309-.481.037v-3.222l.555.371h1.37l.222-.296.519.37c.147.124.098.21-.148.259zm-2.038 1.63h1.556v-1.74h-1.556v1.74zm3.667-.111c0 .099.049.148.148.148h2.407c.222 0 .382-.123.481-.37l.37-1.222c.049-.049.086-.049.111 0l-.111 1.296a.35.35 0 0 0 .148.296c.148.099.124.21-.074.333-.124.074-.309.111-.556.111h-2.962c-.296 0-.444-.148-.444-.444v-4.185l.555.259h2.333v-2.333h-3.222v-.222h3.111l.222-.296.519.371c.148.124.098.21-.148.259v2.851c-.321.296-.481.309-.481.037v-.444h-2.407v3.555z"/></g><g clip-path="url(#ag)"><path fill="none" stroke="#000" stroke-miterlimit="10" stroke-width=".271" d="M130.855 414.633h3.333l.481-.481.592.444c.148.124.148.21 0 .259h-4.407v-.222zm.519-1.148h1.852l.481-.481.592.444c.148.124.148.21 0 .259h-2.925v-.222zm.148 2.259h1.963l.407-.407.519.37c.148.124.148.21 0 .259h-2.889v-.222zm0 1.185h2l.407-.407.519.37c.148.124.148.21 0 .259h-2.926v-.222zm2.704 1.592v2.222c-.321.296-.481.308-.481.037v-.407h-1.556v.629c-.321.296-.481.309-.481.037v-3.222l.555.371h1.37l.222-.296.519.37c.147.124.098.21-.148.259zm-2.038 1.63h1.556v-1.74h-1.556v1.74zm3.667-.111c0 .099.049.148.148.148h2.407c.222 0 .382-.123.481-.37l.37-1.222c.049-.049.086-.049.111 0l-.111 1.296a.35.35 0 0 0 .148.296c.148.099.124.21-.074.333-.124.074-.309.111-.556.111h-2.962c-.296 0-.444-.148-.444-.444v-4.185l.555.259h2.333v-2.333h-3.222v-.222h3.111l.222-.296.519.371c.148.124.098.21-.148.259v2.851c-.321.296-.481.309-.481.037v-.444h-2.407v3.555z"/></g><g clip-path="url(#ag)"><path d="M151.116 414.818c.172.173.135.284-.111.333-.617 1.753-1.222 3.049-1.814 3.888a1.99 1.99 0 0 1-.481.519c-.272.198-.457.173-.556-.074a1.144 1.144 0 0 1-.703-.556c-.198-.345-.296-.752-.296-1.222 0-.987.308-1.79.926-2.407.814-.814 1.802-1.222 2.962-1.222 1.234 0 2.197.346 2.889 1.037.493.494.74 1.111.74 1.852 0 .667-.235 1.259-.704 1.777-.667.741-1.666 1.222-3 1.444-.099-.049-.099-.098 0-.148 1.111-.271 1.963-.753 2.555-1.444a2.504 2.504 0 0 0 .593-1.667c0-.667-.173-1.197-.519-1.592-.691-.79-1.729-1.123-3.111-1 .222.125.431.285.63.482zm-.667.223c.074-.296.012-.519-.186-.667-.642.099-1.209.395-1.703.889-.643.643-.963 1.395-.963 2.259 0 .741.135 1.247.407 1.519.124.124.247.185.371.185.098 0 .222-.074.37-.222.716-1.087 1.284-2.408 1.704-3.963z"/></g><g clip-path="url(#ag)"><path fill="none" stroke="#000" stroke-miterlimit="10" stroke-width=".271" d="M151.116 414.818c.172.173.135.284-.111.333-.617 1.753-1.222 3.049-1.814 3.888a1.99 1.99 0 0 1-.481.519c-.272.198-.457.173-.556-.074a1.144 1.144 0 0 1-.703-.556c-.198-.345-.296-.752-.296-1.222 0-.987.308-1.79.926-2.407.814-.814 1.802-1.222 2.962-1.222 1.234 0 2.197.346 2.889 1.037.493.494.74 1.111.74 1.852 0 .667-.235 1.259-.704 1.777-.667.741-1.666 1.222-3 1.444-.099-.049-.099-.098 0-.148 1.111-.271 1.963-.753 2.555-1.444a2.504 2.504 0 0 0 .593-1.667c0-.667-.173-1.197-.519-1.592-.691-.79-1.729-1.123-3.111-1 .222.125.431.285.63.482zm-.667.223c.074-.296.012-.519-.186-.667-.642.099-1.209.395-1.703.889-.643.643-.963 1.395-.963 2.259 0 .741.135 1.247.407 1.519.124.124.247.185.371.185.098 0 .222-.074.37-.222.716-1.087 1.284-2.408 1.704-3.963z"/></g><g clip-path="url(#ag)"><path d="M163.116 420.114c-.272-.271-.408-.58-.408-.926 0-.395.198-.777.593-1.148.395-.37.889-.716 1.481-1.037-.296-.346-.445-.839-.445-1.481 0-1.135-.025-1.765-.074-1.889-.099-.247-.272-.37-.519-.37-.099-.049-.099-.099 0-.148.419-.049.802.062 1.148.333.123.099.135.198.037.296-.074.074-.111.222-.111.444v1.926c0 .42.062.679.186.777.69-.296 1.407-.555 2.147-.777.197-.049.234-.173.111-.371a.814.814 0 0 0-.259-.222c-.099-.049-.087-.086.037-.111.296.025.519.136.667.333.172.222.259.407.259.556 0 .124-.099.185-.296.185-1.086.222-2.024.519-2.814.889-.667.321-1.173.667-1.518 1.037-.222.247-.333.494-.333.74 0 .519.309.865.926 1.037.271.074.815.111 1.629.111.716 0 1.222-.049 1.519-.148.271-.098.468-.098.592 0 .098.074.148.161.148.259s-.074.16-.222.185c-.444.074-1.271.111-2.481.111-.939.002-1.606-.197-2-.591z"/></g><g clip-path="url(#ag)"><path fill="none" stroke="#000" stroke-miterlimit="10" stroke-width=".271" d="M163.116 420.114c-.272-.271-.408-.58-.408-.926 0-.395.198-.777.593-1.148.395-.37.889-.716 1.481-1.037-.296-.346-.445-.839-.445-1.481 0-1.135-.025-1.765-.074-1.889-.099-.247-.272-.37-.519-.37-.099-.049-.099-.099 0-.148.419-.049.802.062 1.148.333.123.099.135.198.037.296-.074.074-.111.222-.111.444v1.926c0 .42.062.679.186.777.69-.296 1.407-.555 2.147-.777.197-.049.234-.173.111-.371a.814.814 0 0 0-.259-.222c-.099-.049-.087-.086.037-.111.296.025.519.136.667.333.172.222.259.407.259.556 0 .124-.099.185-.296.185-1.086.222-2.024.519-2.814.889-.667.321-1.173.667-1.518 1.037-.222.247-.333.494-.333.74 0 .519.309.865.926 1.037.271.074.815.111 1.629.111.716 0 1.222-.049 1.519-.148.271-.098.468-.098.592 0 .098.074.148.161.148.259s-.074.16-.222.185c-.444.074-1.271.111-2.481.111-.939.002-1.606-.197-2-.591z"/></g><g clip-path="url(#ag)"><path d="M178.117 418.114v-2.333c-.494.05-.876.124-1.148.222-.124.074-.284.037-.481-.111-.296-.223-.444-.481-.444-.778.024-.124.061-.124.111 0 .124.272.309.42.556.444.37.025.839-.012 1.407-.111.024-.222.049-.617.074-1.185.024-.42-.161-.691-.556-.815-.148-.049-.148-.098 0-.148.519 0 .901.136 1.148.407.098.124.111.222.037.296-.099.099-.161.284-.185.555-.025.198-.05.457-.074.778.469-.123.827-.271 1.074-.444.148-.124.271-.16.371-.111.123.05.222.099.296.148.148.099.099.21-.148.333-.05.025-.222.074-.519.148-.469.124-.839.21-1.111.259a56.203 56.203 0 0 0-.037 2.222c1.16-.741 2.185-1.111 3.074-1.111.691 0 1.209.148 1.555.444.346.296.519.716.519 1.259 0 .469-.136.84-.407 1.111-.346.346-.84.518-1.481.518-.469 0-.852-.111-1.148-.333-.395-.296-.654-.716-.777-1.259.049-.123.098-.123.148 0 .222.42.432.704.629.852.296.247.654.371 1.074.371.468 0 .814-.111 1.037-.333.271-.271.407-.58.407-.926 0-.444-.136-.802-.407-1.074-.272-.271-.667-.407-1.185-.407-.839 0-1.852.444-3.037 1.333v.814c0 .148.037.458.111.926.049.321-.062.568-.333.741-.198.124-.309.074-.333-.148-.025-.321-.124-.543-.296-.667a46.545 46.545 0 0 1-.629-.481 2.705 2.705 0 0 1-.481.37c-.198.124-.346.173-.444.148-.198-.049-.296-.222-.296-.519 0-.271.074-.519.222-.741.074-.074.111-.062.111.037-.025.346.049.519.222.519a.543.543 0 0 0 .333-.111l1.441-1.109zm0 .445c-.296.247-.629.531-1 .852.271.148.531.284.778.408.148.074.222.037.222-.111v-1.149zm3.444-4.185c-.05-.049-.037-.086.037-.111.642.049 1.148.185 1.518.407.371.222.605.481.704.777.049.148.049.259 0 .333-.074.099-.161.111-.259.037-.148-.124-.309-.185-.481-.185s-.469.037-.889.111c-.124.025-.136-.012-.037-.111.198-.074.42-.148.667-.222.123-.049.148-.136.074-.259-.174-.296-.618-.555-1.334-.777z"/></g><g clip-path="url(#ag)"><path fill="none" stroke="#000" stroke-miterlimit="10" stroke-width=".271" d="M178.117 418.114v-2.333c-.494.05-.876.124-1.148.222-.124.074-.284.037-.481-.111-.296-.223-.444-.481-.444-.778.024-.124.061-.124.111 0 .124.272.309.42.556.444.37.025.839-.012 1.407-.111.024-.222.049-.617.074-1.185.024-.42-.161-.691-.556-.815-.148-.049-.148-.098 0-.148.519 0 .901.136 1.148.407.098.124.111.222.037.296-.099.099-.161.284-.185.555-.025.198-.05.457-.074.778.469-.123.827-.271 1.074-.444.148-.124.271-.16.371-.111.123.05.222.099.296.148.148.099.099.21-.148.333-.05.025-.222.074-.519.148-.469.124-.839.21-1.111.259a56.203 56.203 0 0 0-.037 2.222c1.16-.741 2.185-1.111 3.074-1.111.691 0 1.209.148 1.555.444.346.296.519.716.519 1.259 0 .469-.136.84-.407 1.111-.346.346-.84.518-1.481.518-.469 0-.852-.111-1.148-.333-.395-.296-.654-.716-.777-1.259.049-.123.098-.123.148 0 .222.42.432.704.629.852.296.247.654.371 1.074.371.468 0 .814-.111 1.037-.333.271-.271.407-.58.407-.926 0-.444-.136-.802-.407-1.074-.272-.271-.667-.407-1.185-.407-.839 0-1.852.444-3.037 1.333v.814c0 .148.037.458.111.926.049.321-.062.568-.333.741-.198.124-.309.074-.333-.148-.025-.321-.124-.543-.296-.667a46.545 46.545 0 0 1-.629-.481 2.705 2.705 0 0 1-.481.37c-.198.124-.346.173-.444.148-.198-.049-.296-.222-.296-.519 0-.271.074-.519.222-.741.074-.074.111-.062.111.037-.025.346.049.519.222.519a.543.543 0 0 0 .333-.111l1.441-1.109zm0 .445c-.296.247-.629.531-1 .852.271.148.531.284.778.408.148.074.222.037.222-.111v-1.149zm3.444-4.185c-.05-.049-.037-.086.037-.111.642.049 1.148.185 1.518.407.371.222.605.481.704.777.049.148.049.259 0 .333-.074.099-.161.111-.259.037-.148-.124-.309-.185-.481-.185s-.469.037-.889.111c-.124.025-.136-.012-.037-.111.198-.074.42-.148.667-.222.123-.049.148-.136.074-.259-.174-.296-.618-.555-1.334-.777z"/></g><g clip-path="url(#ag)"><path d="M192.785 413.708c.074.099.074.222 0 .37-.148.296-.271.791-.37 1.481-.074.568-.074 1.05 0 1.444.024.148.074.161.148.037.494-1.382.963-2.296 1.407-2.741.271-.271.556-.407.852-.407a.91.91 0 0 1 .667.259c.395.395.592 1.124.592 2.185 0 1.481-.333 2.555-1 3.222a5.05 5.05 0 0 1-2.259 1.296c-.173 0-.198-.05-.074-.148.642-.198 1.259-.593 1.852-1.185.642-.642.962-1.728.962-3.259 0-1.086-.136-1.765-.407-2.037a.46.46 0 0 0-.333-.148c-.173 0-.358.099-.556.296-.37.37-.791 1.222-1.259 2.555a2.958 2.958 0 0 0-.186 1c0 .296-.099.444-.296.444-.148 0-.259-.111-.333-.333-.148-.444-.222-1.012-.222-1.703 0-.617.086-1.395.259-2.333.049-.271-.05-.481-.296-.63-.099-.074-.074-.111.074-.111.371.1.63.248.778.446z"/></g><g clip-path="url(#ag)"><path fill="none" stroke="#000" stroke-miterlimit="10" stroke-width=".271" d="M192.785 413.708c.074.099.074.222 0 .37-.148.296-.271.791-.37 1.481-.074.568-.074 1.05 0 1.444.024.148.074.161.148.037.494-1.382.963-2.296 1.407-2.741.271-.271.556-.407.852-.407a.91.91 0 0 1 .667.259c.395.395.592 1.124.592 2.185 0 1.481-.333 2.555-1 3.222a5.05 5.05 0 0 1-2.259 1.296c-.173 0-.198-.05-.074-.148.642-.198 1.259-.593 1.852-1.185.642-.642.962-1.728.962-3.259 0-1.086-.136-1.765-.407-2.037a.46.46 0 0 0-.333-.148c-.173 0-.358.099-.556.296-.37.37-.791 1.222-1.259 2.555a2.958 2.958 0 0 0-.186 1c0 .296-.099.444-.296.444-.148 0-.259-.111-.333-.333-.148-.444-.222-1.012-.222-1.703 0-.617.086-1.395.259-2.333.049-.271-.05-.481-.296-.63-.099-.074-.074-.111.074-.111.371.1.63.248.778.446z"/></g><g clip-path="url(#ag)"><path d="M208.263 413.189c-.988 1.704-2.444 3.049-4.37 4.037-.124 0-.148-.049-.074-.148 1.827-1.111 3.16-2.592 4-4.443l.778.222c.246.074.197.161-.148.259 1.086 1.481 2.481 2.481 4.185 3-.444.148-.691.296-.741.444-1.581-.816-2.791-1.939-3.63-3.371zm-1.222 3.703.222-.296.519.371c.148.124.099.21-.148.259v2.481c-.321.296-.481.309-.481.037v-.444h-1.481v1.037c-.321.296-.481.309-.481.037v-3.777l.556.296h1.294zm.111 2.185v-1.963h-1.481v1.963h1.481zm-.74-3.407h2.333l.481-.481.592.444c.148.124.148.21 0 .259h-3.407v-.222zm5.184 1.556v2.407c0 .272-.087.481-.259.63a.502.502 0 0 1-.371.148c-.099 0-.148-.049-.148-.148 0-.124-.074-.209-.222-.259l-.481-.111c-.099-.049-.099-.098 0-.148h.741c.172 0 .259-.086.259-.259v-2.37h-1.852v3.925c-.321.296-.481.309-.481.037v-4.444l.555.259h1.667l.222-.296.519.371c.147.122.097.208-.149.258z"/></g><g clip-path="url(#ag)"><path fill="none" stroke="#000" stroke-miterlimit="10" stroke-width=".271" d="M208.263 413.189c-.988 1.704-2.444 3.049-4.37 4.037-.124 0-.148-.049-.074-.148 1.827-1.111 3.16-2.592 4-4.443l.778.222c.246.074.197.161-.148.259 1.086 1.481 2.481 2.481 4.185 3-.444.148-.691.296-.741.444-1.581-.816-2.791-1.939-3.63-3.371zm-1.222 3.703.222-.296.519.371c.148.124.099.21-.148.259v2.481c-.321.296-.481.309-.481.037v-.444h-1.481v1.037c-.321.296-.481.309-.481.037v-3.777l.556.296h1.294zm.111 2.185v-1.963h-1.481v1.963h1.481zm-.74-3.407h2.333l.481-.481.592.444c.148.124.148.21 0 .259h-3.407v-.222zm5.184 1.556v2.407c0 .272-.087.481-.259.63a.502.502 0 0 1-.371.148c-.099 0-.148-.049-.148-.148 0-.124-.074-.209-.222-.259l-.481-.111c-.099-.049-.099-.098 0-.148h.741c.172 0 .259-.086.259-.259v-2.37h-1.852v3.925c-.321.296-.481.309-.481.037v-4.444l.555.259h1.667l.222-.296.519.371c.147.122.097.208-.149.258z"/></g><g clip-path="url(#ag)"><path d="M224.561 412.782c.222.124.16.21-.186.259 1.284 1.506 2.741 2.469 4.37 2.888-.321.124-.543.309-.667.556-1.703-.889-2.975-2-3.814-3.333-1.087 1.729-2.481 3.012-4.185 3.852-.173.05-.21 0-.111-.148 1.852-1.16 3.16-2.579 3.925-4.258l.668.184zm1.74 4.739h-2.592v3.444c-.321.296-.481.308-.481.037v-3.481h-2.111v-.222h5.074l.222-.296.518.37c.148.124.099.21-.148.259v1.889c0 .296-.087.519-.259.667a.973.973 0 0 1-.519.222c-.148.024-.222-.037-.222-.185 0-.124-.062-.209-.185-.259l-.592-.148c-.124-.049-.124-.099 0-.148h.962c.223 0 .333-.111.333-.333v-1.816zm-3.629-1.777h2.296l.481-.481.592.444c.148.124.148.21 0 .259h-3.37v-.222z"/></g><g clip-path="url(#ag)"><path fill="none" stroke="#000" stroke-miterlimit="10" stroke-width=".271" d="M224.561 412.782c.222.124.16.21-.186.259 1.284 1.506 2.741 2.469 4.37 2.888-.321.124-.543.309-.667.556-1.703-.889-2.975-2-3.814-3.333-1.087 1.729-2.481 3.012-4.185 3.852-.173.05-.21 0-.111-.148 1.852-1.16 3.16-2.579 3.925-4.258l.668.184zm1.74 4.739h-2.592v3.444c-.321.296-.481.308-.481.037v-3.481h-2.111v-.222h5.074l.222-.296.518.37c.148.124.099.21-.148.259v1.889c0 .296-.087.519-.259.667a.973.973 0 0 1-.519.222c-.148.024-.222-.037-.222-.185 0-.124-.062-.209-.185-.259l-.592-.148c-.124-.049-.124-.099 0-.148h.962c.223 0 .333-.111.333-.333v-1.816zm-3.629-1.777h2.296l.481-.481.592.444c.148.124.148.21 0 .259h-3.37v-.222z"/></g><g clip-path="url(#ag)"><path d="M240.896 414.967c1.111-.074 1.852-.136 2.222-.186.148-.024.395-.074.741-.148.124-.024.247.013.371.111.271.223.419.371.444.445.049.148-.025.198-.222.148-.494-.123-1.124-.185-1.889-.185-.469 0-1.025.025-1.667.074v1.593c.074.247.111.592.111 1.037 0 1.555-.679 2.678-2.037 3.37-.124.024-.148-.013-.074-.111.296-.222.555-.457.777-.704.543-.617.827-1.357.852-2.222-.198.296-.458.444-.778.444-.272 0-.519-.111-.741-.333-.173-.172-.259-.432-.259-.778 0-.345.124-.642.371-.889.197-.197.444-.296.74-.296.222 0 .42.05.593.148v-1.222c-1.309.198-2.284.396-2.925.593a3.72 3.72 0 0 0-.519.185c-.148.074-.284.062-.407-.037-.272-.197-.47-.481-.593-.852 0-.124.049-.136.148-.037.124.222.358.333.704.333s.876-.061 1.593-.185a27.332 27.332 0 0 1 2-.259v-1c0-.568-.247-.876-.741-.926-.099-.049-.099-.099 0-.148.419-.049.753.013 1 .186.123.074.234.185.333.333.099.124.086.21-.037.259-.074.074-.111.494-.111 1.259zm-1.63 1.851a1.051 1.051 0 0 0-.185.629c0 .395.098.679.296.852.074.074.197.111.37.111a.549.549 0 0 0 .407-.148c.222-.222.333-.53.333-.926 0-.542-.21-.814-.63-.814-.271 0-.468.099-.591.296z"/></g><g clip-path="url(#ag)"><path fill="none" stroke="#000" stroke-miterlimit="10" stroke-width=".271" d="M240.896 414.967c1.111-.074 1.852-.136 2.222-.186.148-.024.395-.074.741-.148.124-.024.247.013.371.111.271.223.419.371.444.445.049.148-.025.198-.222.148-.494-.123-1.124-.185-1.889-.185-.469 0-1.025.025-1.667.074v1.593c.074.247.111.592.111 1.037 0 1.555-.679 2.678-2.037 3.37-.124.024-.148-.013-.074-.111.296-.222.555-.457.777-.704.543-.617.827-1.357.852-2.222-.198.296-.458.444-.778.444-.272 0-.519-.111-.741-.333-.173-.172-.259-.432-.259-.778 0-.345.124-.642.371-.889.197-.197.444-.296.74-.296.222 0 .42.05.593.148v-1.222c-1.309.198-2.284.396-2.925.593a3.72 3.72 0 0 0-.519.185c-.148.074-.284.062-.407-.037-.272-.197-.47-.481-.593-.852 0-.124.049-.136.148-.037.124.222.358.333.704.333s.876-.061 1.593-.185a27.332 27.332 0 0 1 2-.259v-1c0-.568-.247-.876-.741-.926-.099-.049-.099-.099 0-.148.419-.049.753.013 1 .186.123.074.234.185.333.333.099.124.086.21-.037.259-.074.074-.111.494-.111 1.259zm-1.63 1.851a1.051 1.051 0 0 0-.185.629c0 .395.098.679.296.852.074.074.197.111.37.111a.549.549 0 0 0 .407-.148c.222-.222.333-.53.333-.926 0-.542-.21-.814-.63-.814-.271 0-.468.099-.591.296z"/></g><g clip-path="url(#ag)"><path d="M252.342 417.929c.173-.148 1.333-1.407 3.481-3.777.074-.049.049-.086-.074-.111a11.79 11.79 0 0 0-1.778.444c-.173.099-.309.148-.407.148-.05 0-.173-.074-.37-.222-.247-.197-.383-.419-.407-.667 0-.124.049-.135.148-.037.148.222.395.333.741.333.32 0 .518-.012.592-.037a25.59 25.59 0 0 0 1.444-.259c.247-.049.432-.124.556-.222.049-.074.111-.111.185-.111.123 0 .259.062.407.185.123.099.185.186.185.259 0 .05-.111.111-.333.186-.272.124-1.124.938-2.555 2.444-.074.124-.037.148.111.074a4.45 4.45 0 0 1 1.592-.296c.815 0 1.469.247 1.963.741.345.346.519.802.519 1.37 0 .667-.198 1.198-.593 1.592-.592.592-1.432.889-2.518.889-.691 0-1.173-.136-1.444-.407-.222-.222-.333-.444-.333-.667 0-.197.074-.371.222-.519.172-.172.432-.259.777-.259.419 0 .802.173 1.148.519.222.222.371.531.444.926a2.395 2.395 0 0 0 1.222-.667c.371-.371.556-.815.556-1.333 0-.567-.173-1.024-.519-1.37-.395-.395-.951-.592-1.667-.592-.79 0-1.592.407-2.407 1.222a5.303 5.303 0 0 0-.778.963c-.05.099-.136.148-.259.148-.099 0-.148-.111-.148-.333.001-.199.099-.384.297-.557zm2.741 1.63a.966.966 0 0 0-.704-.296c-.444 0-.667.173-.667.519 0 .148.074.296.222.444.222.222.728.333 1.518.333-.024-.445-.147-.778-.369-1z"/></g><g clip-path="url(#ag)"><path fill="none" stroke="#000" stroke-miterlimit="10" stroke-width=".271" d="M252.342 417.929c.173-.148 1.333-1.407 3.481-3.777.074-.049.049-.086-.074-.111a11.79 11.79 0 0 0-1.778.444c-.173.099-.309.148-.407.148-.05 0-.173-.074-.37-.222-.247-.197-.383-.419-.407-.667 0-.124.049-.135.148-.037.148.222.395.333.741.333.32 0 .518-.012.592-.037a25.59 25.59 0 0 0 1.444-.259c.247-.049.432-.124.556-.222.049-.074.111-.111.185-.111.123 0 .259.062.407.185.123.099.185.186.185.259 0 .05-.111.111-.333.186-.272.124-1.124.938-2.555 2.444-.074.124-.037.148.111.074a4.45 4.45 0 0 1 1.592-.296c.815 0 1.469.247 1.963.741.345.346.519.802.519 1.37 0 .667-.198 1.198-.593 1.592-.592.592-1.432.889-2.518.889-.691 0-1.173-.136-1.444-.407-.222-.222-.333-.444-.333-.667 0-.197.074-.371.222-.519.172-.172.432-.259.777-.259.419 0 .802.173 1.148.519.222.222.371.531.444.926a2.395 2.395 0 0 0 1.222-.667c.371-.371.556-.815.556-1.333 0-.567-.173-1.024-.519-1.37-.395-.395-.951-.592-1.667-.592-.79 0-1.592.407-2.407 1.222a5.303 5.303 0 0 0-.778.963c-.05.099-.136.148-.259.148-.099 0-.148-.111-.148-.333.001-.199.099-.384.297-.557zm2.741 1.63a.966.966 0 0 0-.704-.296c-.444 0-.667.173-.667.519 0 .148.074.296.222.444.222.222.728.333 1.518.333-.024-.445-.147-.778-.369-1z"/></g><defs><path id="ah" d="M126.26 190.94h43.56v69.84h-43.56z"/></defs><clipPath id="ai"><use xlink:href="#ah" overflow="visible"/></clipPath><g clip-path="url(#ai)"><path d="M145.817 231.333h1.087c.316 0 .566-.09.748-.272.181-.181.272-.43.272-.748v-3.263h-4.961v-.408h4.961l-1.427-2.107h-3.534v-.408h3.33l-2.583-3.738c-.091-.136-.272-.272-.544-.408a1.807 1.807 0 0 0-.815-.204h-.544v-.408h5.098v.408h-.815c-.816 0-.998.363-.544 1.087l2.107 3.263h2.515l1.903-3.331c.136-.272.09-.521-.136-.748a.925.925 0 0 0-.68-.272h-.748v-.408h4.282v.408h-.271c-.816 0-1.405.295-1.768.883l-2.039 3.467h3.467v.408h-3.67l-1.359 2.107h5.03v.408h-4.962v3.263c0 .317.09.567.272.748.181.182.43.272.748.272h1.087v.408h-5.505v-.407zm2.039-6.797 1.02 1.495h.136l.952-1.495h-2.108z"/></g><g clip-path="url(#ai)"><path fill="none" stroke="#000" stroke-miterlimit="10" stroke-width=".497" d="M145.817 231.333h1.087c.316 0 .566-.09.748-.272.181-.181.272-.43.272-.748v-3.263h-4.961v-.408h4.961l-1.427-2.107h-3.534v-.408h3.33l-2.583-3.738c-.091-.136-.272-.272-.544-.408a1.807 1.807 0 0 0-.815-.204h-.544v-.408h5.098v.408h-.815c-.816 0-.998.363-.544 1.087l2.107 3.263h2.515l1.903-3.331c.136-.272.09-.521-.136-.748a.925.925 0 0 0-.68-.272h-.748v-.408h4.282v.408h-.271c-.816 0-1.405.295-1.768.883l-2.039 3.467h3.467v.408h-3.67l-1.359 2.107h5.03v.408h-4.962v3.263c0 .317.09.567.272.748.181.182.43.272.748.272h1.087v.408h-5.505v-.407zm2.039-6.797 1.02 1.495h.136l.952-1.495h-2.108z"/></g><defs><path id="aj" d="M126.26 68.876h392.11v55.944H126.26z"/></defs><clipPath id="ak"><use xlink:href="#aj" overflow="visible"/></clipPath><g clip-path="url(#ak)"><path d="M234.04 99.896c-1.285-1.53-2.198-3.185-2.741-4.962h-3.036v-.444h5.48v-3.333h-7.406v-.445h7.406v-3.185l1.333.222c.543.198.419.396-.37.593v2.37h5.628l.963-.962 1.185.889c.296.248.296.42 0 .519h-7.776v3.333h3.333l.815-.814 1.111 1.111c.296.346.024.519-.814.519-.84 1.433-2.074 2.962-3.703 4.592 2.024 1.531 4.542 2.494 7.554 2.888-.593.198-1.013.567-1.259 1.111-2.419-.444-4.715-1.58-6.888-3.407-2.42 2.025-5.382 3.357-8.887 4-.198-.05-.223-.148-.074-.296 3.652-1.189 6.368-2.62 8.146-4.299zm4.148-4.963h-6.518c.741 1.729 1.752 3.185 3.037 4.37a16.373 16.373 0 0 0 3.481-4.37zM284.18 95.896v-.889h-5.11v7.48h5.851v-5.555l1.259.222c.395.248.296.42-.296.518v6.592c-.642.592-.962.617-.962.074v-1.407h-12.517v1.259c-.643.593-.963.617-.963.074v-7.406l1.259.222c.395.248.296.42-.296.519v4.888h5.703v-7.48h-4.814v.741c-.643.592-.963.618-.963.074v-6.443l1.259.222c.395.248.296.42-.296.519v4.444h4.814v-6.221l1.259.222c.395.248.296.42-.296.518v5.481h5.11v-5.185l1.259.222c.395.248.296.42-.296.519v5.703c-.644.592-.964.617-.964.073zM322.471 88.638c-1.976 3.407-4.888 6.099-8.739 8.073-.248 0-.296-.099-.148-.296 3.653-2.222 6.319-5.185 7.999-8.888l1.556.444c.492.148.395.322-.297.519 2.172 2.962 4.962 4.962 8.369 5.999-.889.296-1.383.593-1.481.889-3.162-1.63-5.582-3.876-7.259-6.74zm-2.445 7.406.444-.592 1.037.741c.296.248.197.42-.296.519v4.962c-.643.593-.963.618-.963.074v-.889h-2.963v2.074c-.642.592-.963.617-.963.074v-7.554l1.111.592h2.593zm.223 4.37v-3.926h-2.963v3.926h2.963zm-1.481-6.814h4.666l.963-.963 1.185.889c.297.248.297.42 0 .519h-6.813V93.6zm10.369 3.111v4.814c0 .544-.174.963-.519 1.259a1.003 1.003 0 0 1-.741.296c-.197 0-.296-.098-.296-.296 0-.247-.148-.419-.444-.518l-.963-.223c-.198-.098-.198-.196 0-.296h1.481c.345 0 .519-.172.519-.519v-4.74h-3.703v7.851c-.643.592-.963.617-.963.074v-8.887l1.11.518h3.333l.444-.592 1.037.741c.297.247.197.419-.295.518zM367.298 87.823c.444.248.32.42-.371.519 2.567 3.012 5.481 4.938 8.739 5.777-.642.248-1.086.618-1.333 1.111-3.406-1.777-5.95-4-7.628-6.666-2.174 3.457-4.962 6.024-8.369 7.702-.346.1-.42 0-.223-.296 3.703-2.32 6.32-5.159 7.851-8.517l1.334.37zm3.48 9.48h-5.185v6.888c-.642.593-.963.617-.963.074v-6.962h-4.222v-.444h10.147l.444-.593 1.036.741c.297.248.197.42-.296.519v3.777c0 .592-.174 1.037-.519 1.333a1.949 1.949 0 0 1-1.037.444c-.296.049-.444-.074-.444-.37 0-.247-.124-.419-.37-.519l-1.185-.296c-.248-.098-.248-.197 0-.296h1.925c.445 0 .667-.222.667-.667v-3.629zm-7.257-3.555h4.592l.963-.963 1.185.889c.297.248.297.42 0 .518h-6.739v-.444zM411.067 95.748h5.036l.815-.815 1.036.741c.297.248.297.42 0 .519h-6.888v1.555h6.443l.963-.963 1.186.889c.296.248.296.42 0 .519h-16.887v-.444h7.332v-1.555h-5.48v-.444h5.48v-1.704h-4.962V93.6h4.962v-1.704h-7.406v-.444h7.406v-1.555h-5.036v-.444h5.036v-1.704l.815.148c.839.148.889.346.147.592v.963h3.703l.444-.519.963.667c.345.248.247.42-.296.519v1.333h1.556l.963-.963 1.185.889c.296.248.296.42 0 .518h-3.703v2.518c-.643.593-.963.618-.963.074v-.444h-3.852v1.704zm-4.147 7.924v.741c-.642.593-.963.617-.963.074v-5.629l1.111.593h8.221l.444-.519.963.667c.345.248.247.42-.296.519v4.073c-.643.593-.963.617-.963.074v-.593h-8.517zm8.518-3.776h-8.518v1.481h8.518v-1.481zm0 1.925h-8.518v1.407h8.518v-1.407zm-.519-11.924h-3.852v1.555h3.852v-1.555zm0 1.999h-3.852V93.6h3.852v-1.704z"/></g><defs><path id="al" d="M256.97 124.82h130.7v21.48h-130.7z"/></defs><clipPath id="am"><use xlink:href="#al" overflow="visible"/></clipPath><g clip-path="url(#am)"><path d="M290.569 134.76h4.204l.94-3.042.996.277c.295.221.166.369-.387.442l-1.272 2.323h1.494l.719-.719.885.664c.223.185.223.314 0 .387h-7.577v-.332zm3.928-3.761h1.77l.719-.719.829.664c.223.185.223.314 0 .387h-7.135v-.332h3.098v-2.213l.94.166c.294.185.221.314-.221.387v1.66zm-1.328 2.765c0 .406-.13.608-.387.608-.185 0-.296-.184-.332-.553-.074-.848-.313-1.512-.719-1.991-.111-.147-.075-.202.11-.166.886.664 1.328 1.365 1.328 2.102zm-.608 5.974v1.217c-.48.442-.719.46-.719.055v-4.867l.83.442h2.876l.332-.387.719.498c.221.185.147.314-.221.387v3.153c-.479.443-.719.461-.719.056v-.553h-3.098zm3.097-2.821h-3.097v2.489h3.097v-2.489zm6.694 2.71c-.369.258-.664.387-.887.387-.258 0-.387-.129-.387-.387 0-.147-.109-.257-.332-.332l-.664-.222c-.109-.073-.109-.128 0-.166l.555.055c.367.074.699.092.994.055a.673.673 0 0 0 .498-.332c.111-.294.166-.664.166-1.106 0-1.106-.553-2.249-1.658-3.43l1.051-3.595h-2.268v10.565c-.48.442-.721.46-.721.055v-11.339l.83.387h2.158l.275-.387.941.664c.221.258.092.369-.387.332l-1.549 3.318c1.4 1.254 2.102 2.489 2.102 3.706.001.776-.239 1.367-.717 1.772zM347.482 130.058v5.199c-.479.442-.72.461-.72.055v-.608h-2.931v6.361c-.48.443-.72.461-.72.056v-12.114l.83.553h2.655l.331-.442.774.553c.224.185.15.313-.219.387zm-3.65-.166v2.046h2.931v-2.046h-2.931zm0 4.481h2.931v-2.102h-2.931v2.102zm6.14-4.813h2.986l.332-.442.774.553c.221.185.146.313-.222.387v9.846c0 .442-.129.774-.387.996-.222.184-.442.294-.664.332-.221.037-.332-.055-.332-.276 0-.185-.092-.314-.276-.387l-1.161-.221c-.186-.074-.186-.148 0-.221h1.604c.332 0 .498-.166.498-.498v-4.923h-3.264v.498c-.479.442-.719.461-.719.055v-6.195l.831.496zm3.152.332h-3.264v2.046h3.264v-2.046zm0 4.481v-2.102h-3.264v2.102h3.264z"/></g><defs><path id="an" d="M83.16 124.82h173.81v21.48H83.16z"/></defs><clipPath id="ao"><use xlink:href="#an" overflow="visible"/></clipPath><g clip-path="url(#ao)"><path d="M106.754 137.193h-5.863v-.332h1.991v-3.65l.83.553h3.042v-2.71h-3.153c-.774 1.586-1.825 2.876-3.153 3.872-.148.038-.185-.018-.11-.166 1.659-1.807 2.71-3.761 3.152-5.863l1.051.387c.479.221.368.369-.332.442l-.442.996h6.969l.719-.719.885.664c.221.185.221.313 0 .387h-4.867v2.71h2.766l.719-.719.885.664c.221.185.221.314 0 .387h-4.37v2.766h3.982l.83-.83 1.051.774c.221.185.221.313 0 .387h-5.863v3.982c-.48.442-.719.46-.719.055v-4.037zm-3.153-3.097v2.766h3.153v-2.766h-3.153zM145.111 130.777v3.43c0 2.434-.719 4.665-2.157 6.693-.221.147-.295.091-.221-.166 1.106-2.102 1.659-4.167 1.659-6.195v-4.536l.83.443h3.982v-1.881l.94.166c.294.185.221.314-.222.387v1.328h3.762l.719-.719.885.664c.221.185.221.314 0 .387h-10.177zm10.343 9.68a2.678 2.678 0 0 0-1.161.83c-1.66-.296-3.098-.904-4.314-1.826-1.254.811-3.19 1.438-5.808 1.881-.258-.037-.276-.13-.055-.277 2.434-.553 4.24-1.217 5.421-1.991-.59-.553-1.125-1.253-1.604-2.102h-2.268v-.332h6.361l.442-.387.719.553c.442.295.313.442-.387.442-.812.774-1.586 1.402-2.323 1.881 1.474.738 3.133 1.18 4.977 1.328zm-3.65-7.302v2.378c-.479.443-.719.462-.719.056v-.553h-2.544v.664c-.479.443-.719.462-.719.056v-2.6h-2.102v-.332h2.102v-1.66l.94.166c.294.185.221.314-.222.387v1.106h2.544v-1.604l.94.166c.295.185.221.314-.221.387v1.051h1.659l.719-.719.885.664c.221.185.221.314 0 .387h-3.262zm.221 3.817h-3.706a7.179 7.179 0 0 0 1.66 1.825c.847-.663 1.529-1.272 2.046-1.825zm-.941-3.817h-2.544v1.549h2.544v-1.549zM186.979 140.014v.94c-.479.442-.719.46-.719.055v-11.56l1.217.774h7.91l.83-.83 1.051.774c.221.185.221.314 0 .387h-10.289v9.126h8.85l.83-.83 1.051.774c.221.185.221.314 0 .387h-10.731zm5.254-4.591c-1.254 1.549-2.637 2.655-4.148 3.319-.295.074-.351.019-.166-.166 1.585-1.069 2.857-2.268 3.817-3.595-1.328-.996-2.434-1.733-3.319-2.213-.185-.146-.148-.221.11-.221 1.401.59 2.6 1.217 3.595 1.881a15.246 15.246 0 0 0 1.604-3.098l.996.664c.221.185.239.295.055.332h-.553c-.332.664-.849 1.494-1.549 2.489 1.807 1.365 2.71 2.323 2.71 2.876 0 .332-.13.498-.387.498-.185 0-.369-.147-.553-.442a13.23 13.23 0 0 0-2.212-2.324zM227.548 135.645c-.221.074-.277 0-.166-.221 1.917-1.622 3.319-3.687 4.204-6.195l1.162.608c.332.332.147.461-.553.387-1.181 2.398-2.73 4.204-4.647 5.421zm10.178-.222c-.147 1.918-.369 3.393-.664 4.425-.221.811-.793 1.309-1.715 1.494-.406.11-.608-.019-.608-.387 0-.221-.166-.442-.498-.664l-.664-.387c-.147-.147-.129-.222.056-.222l1.383.498c.294.111.589.092.885-.055.184-.074.332-.295.442-.664.295-.921.498-2.359.608-4.314h-3.706c-.259 3.429-2.121 5.567-5.587 6.416-.221 0-.258-.074-.11-.221 2.987-.959 4.627-3.023 4.923-6.195h-2.6v-.332h6.969l.498-.498.94.83c.185.295.001.387-.552.276zm-2.655-6.527c.774 2.25 2.544 4.001 5.31 5.254-.443.185-.793.443-1.051.774-1.807-1.143-3.411-3.042-4.812-5.697l.553-.331z"/></g><defs><path id="ap" d="M387.67 124.82h169.97v21.48H387.67z"/></defs><clipPath id="aq"><use xlink:href="#ap" overflow="visible"/></clipPath><g clip-path="url(#aq)"><path d="M440.924 138.576c1.438-2.102 2.378-3.835 2.82-5.199h-2.766v-.332h2.821v-2.489c-.738.221-1.623.406-2.655.553-.221-.036-.221-.11 0-.221 1.844-.479 3.41-1.106 4.702-1.881l.94.609c.294.258.073.351-.664.276-.554.185-1.088.351-1.604.498v2.655h.83l.719-.719.885.664c.222.185.222.313 0 .387h-2.434v1.217c.627.147 1.143.369 1.549.664.368.295.442.608.222.94-.186.148-.388.092-.608-.166-.222-.405-.608-.792-1.162-1.162v6.195c-.479.443-.719.461-.719.056v-5.974c-1.033 1.623-1.918 2.803-2.655 3.54-.221.185-.295.147-.221-.111zm10.343-1.991v4.425c-.479.442-.719.461-.719.055v-4.37l-4.867.885-.111-.387 4.979-.885v-7.522l.996.166c.405.148.313.296-.277.442v6.804l.94-.166.554-1.162.885.885c.146.221.092.369-.166.442l-2.214.388zm-3.761-3.319c-.147-.147-.13-.202.055-.166.517.185.94.424 1.272.719.405.369.608.756.608 1.162 0 .332-.13.498-.387.498-.186 0-.313-.11-.388-.332a4.156 4.156 0 0 0-1.16-1.881zm.055-3.264c-.147-.146-.129-.202.056-.166.59.185 1.051.387 1.383.608.442.295.664.646.664 1.051 0 .332-.13.498-.388.498-.185 0-.313-.092-.387-.277-.296-.736-.739-1.307-1.328-1.714zM496.177 130.058h5.421l.331-.442.774.553c.222.185.147.314-.221.387v9.846c-.479.442-.719.461-.719.055v-.996h-5.697v1.383c-.48.443-.72.461-.72.056v-11.395l.831.553zm5.587 2.876v-2.544h-5.697v2.544h5.697zm0 .332h-5.697v2.6h5.697v-2.6zm-5.698 2.932v2.932h5.697v-2.932h-5.697z"/></g><defs><path id="ar" d="M83.16 362.81h86.664v32.28H83.16z"/></defs><clipPath id="as"><use xlink:href="#ar" overflow="visible"/></clipPath><g clip-path="url(#as)"><path d="M117.705 374.728a23.3 23.3 0 0 0 .215 2.76h2.501l.646-.647.82.604c.172.144.172.245 0 .302h-3.925c.374 1.667.963 2.904 1.769 3.708.316.317.589.518.819.604.345.144.575.101.69-.129l.518-1.337c.086-.115.129-.115.129 0l-.173 1.165c-.029.172-.015.359.043.561.057.144.086.259.086.345 0 .173-.187.259-.561.259-.662 0-1.309-.316-1.94-.949-.949-.949-1.596-2.357-1.941-4.226h-3.062v3.623l3.32-.776c.172-.028.201.029.086.172l-4.183 1.38c.057.46-.058.575-.345.345l-.776-.776 1.337-.215v-6.9l.647.302c1.495-.115 3.133-.459 4.917-1.035l.776.431c.173.115.144.172-.086.172h-.561a70.95 70.95 0 0 1-1.766.257zm-3.364 2.76h3.019a21.731 21.731 0 0 1-.216-2.674c-.776.144-1.71.273-2.803.388v2.286z"/></g><g clip-path="url(#as)"><path fill="none" stroke="#000" stroke-miterlimit="10" stroke-width=".315" d="M117.705 374.728a23.3 23.3 0 0 0 .215 2.76h2.501l.646-.647.82.604c.172.144.172.245 0 .302h-3.925c.374 1.667.963 2.904 1.769 3.708.316.317.589.518.819.604.345.144.575.101.69-.129l.518-1.337c.086-.115.129-.115.129 0l-.173 1.165c-.029.172-.015.359.043.561.057.144.086.259.086.345 0 .173-.187.259-.561.259-.662 0-1.309-.316-1.94-.949-.949-.949-1.596-2.357-1.941-4.226h-3.062v3.623l3.32-.776c.172-.028.201.029.086.172l-4.183 1.38c.057.46-.058.575-.345.345l-.776-.776 1.337-.215v-6.9l.647.302c1.495-.115 3.133-.459 4.917-1.035l.776.431c.173.115.144.172-.086.172h-.561a70.95 70.95 0 0 1-1.766.257zm-3.364 2.76h3.019a21.731 21.731 0 0 1-.216-2.674c-.776.144-1.71.273-2.803.388v2.286z"/></g><g clip-path="url(#as)"><path d="M134.646 378.954c.287-.287.546-.561.776-.819-.144 0-.273-.115-.388-.345-.23-.431-.647-.819-1.25-1.165-.834.978-1.754 1.754-2.76 2.329-.144 0-.172-.058-.086-.173 1.725-1.178 2.99-2.889 3.795-5.132l.776.345c.287.115.187.216-.302.302a17.4 17.4 0 0 1-.432.733h2.803l.259-.345.733.475c.201.201.086.302-.345.302-.978 1.466-2.027 2.703-3.148 3.708h3.622l.259-.345.604.431c.172.144.114.245-.172.302v3.278c-.374.345-.561.359-.561.043v-.475h-3.795v.819c-.374.345-.561.359-.561.043v-3.623c-1.064.862-2.314 1.481-3.752 1.854-.144 0-.172-.058-.086-.173 1.408-.459 2.688-1.208 3.838-2.242v-.216l.173.089zm0-3.665c-.259.46-.517.862-.776 1.208.718.172 1.208.388 1.466.646.173.173.302.403.388.69a18.7 18.7 0 0 0 1.854-2.544h-2.932zm4.184 6.856v-2.717h-3.795v2.717h3.795z"/></g><g clip-path="url(#as)"><path fill="none" stroke="#000" stroke-miterlimit="10" stroke-width=".315" d="M134.646 378.954c.287-.287.546-.561.776-.819-.144 0-.273-.115-.388-.345-.23-.431-.647-.819-1.25-1.165-.834.978-1.754 1.754-2.76 2.329-.144 0-.172-.058-.086-.173 1.725-1.178 2.99-2.889 3.795-5.132l.776.345c.287.115.187.216-.302.302a17.4 17.4 0 0 1-.432.733h2.803l.259-.345.733.475c.201.201.086.302-.345.302-.978 1.466-2.027 2.703-3.148 3.708h3.622l.259-.345.604.431c.172.144.114.245-.172.302v3.278c-.374.345-.561.359-.561.043v-.475h-3.795v.819c-.374.345-.561.359-.561.043v-3.623c-1.064.862-2.314 1.481-3.752 1.854-.144 0-.172-.058-.086-.173 1.408-.459 2.688-1.208 3.838-2.242v-.216l.173.089zm0-3.665c-.259.46-.517.862-.776 1.208.718.172 1.208.388 1.466.646.173.173.302.403.388.69a18.7 18.7 0 0 0 1.854-2.544h-2.932zm4.184 6.856v-2.717h-3.795v2.717h3.795z"/></g><defs><path id="at" d="M81.24 66.96h478.92v712.32H81.24z"/></defs><clipPath id="au"><use xlink:href="#at" overflow="visible"/></clipPath><path fill-rule="evenodd" d="M256.25 125.66h1.56v50.52h-1.56zM386.95 125.66h1.56v50.52h-1.56zM125.54 190.22h1.56v71.4h-1.56zM169.1 191.78h1.56v69.84h-1.56zM213.02 191.78h.72v68.28h-.72zM256.61 191.78h.72v68.28h-.72zM300.17 191.78h.72v68.28h-.72zM343.75 191.78h.72v68.28h-.72zM387.31 191.78h.721v68.28h-.721zM430.87 191.78h.72v68.28h-.72zM474.46 191.78h.72v68.28h-.72zM517.66 191.78h1.56v69.84h-1.56zM125.9 456.07h.72v50.88h-.72zM169.46 456.07h.72v50.88h-.72zM126.62 545.59h43.56v.721h-43.56zM81.96 67.676h1.56v709.9h-1.56zM556.92 69.236h1.561v708.34h-1.561zM256.61 456.07h.72v50.88h-.72zM387.31 456.07h.721v50.88h-.721zM125.9 545.59h.72v45.24h-.72zM169.46 546.311h.72v44.52h-.72zM213.02 456.07h.72v50.88h-.72zM300.17 456.07h.72v50.88h-.72zM343.75 456.07h.72v50.88h-.72zM430.87 456.07h.72v50.88h-.72zM474.46 456.07h.72v50.88h-.72zM518.02 456.07h.721v50.88h-.721z" clip-path="url(#au)" clip-rule="evenodd"/><path fill-rule="evenodd" d="M83.52 67.68h474.96v1.56H83.52zM83.52 124.1h474.96v1.56H83.52zM83.52 145.58h474.96v1.56H83.52zM83.52 174.62h474.96v1.56H83.52zM127.1 190.22h392.11v1.56H127.1zM170.66 212.06h346.99v.72H170.66zM127.1 260.06h392.11v1.56H127.1zM83.52 330.41h474.96v1.56H83.52zM83.52 394.37h474.96v1.56H83.52zM83.52 454.51h474.96v1.561H83.52zM83.52 469.15h473.4v.72H83.52zM83.52 506.23h473.4v.72H83.52zM213.38 544.87h261.55v.72H213.38zM213.38 546.43h261.55v.721H213.38zM126.62 590.11h43.56v.72h-43.56zM83.52 776.017h474.96v1.56H83.52z" clip-path="url(#au)" clip-rule="evenodd"/></svg>