<svg xmlns="http://www.w3.org/2000/svg" xml:space="preserve" width="50" height="50"><path fill="#FFF" d="M37.613 25c0-1.953 1.203-3.488 3.011-4.545a16.618 16.618 0 0 0-1.29-3.109c-2.025.529-3.665-.26-5.04-1.641-1.381-1.377-1.804-3.016-1.271-5.043-.99-.535-2.03-.965-3.111-1.287-1.056 1.807-2.965 3.006-4.913 3.006-1.949 0-3.857-1.199-4.915-3.006a16.33 16.33 0 0 0-3.108 1.287c.53 2.027.11 3.666-1.272 5.043-1.376 1.381-3.016 2.17-5.042 1.641-.535.99-.965 2.033-1.286 3.109 1.805 1.057 3.004 2.592 3.004 4.545 0 1.949-1.199 3.857-3.004 4.916a16.677 16.677 0 0 0 1.286 3.111c2.026-.529 3.666-.111 5.042 1.268 1.378 1.381 1.803 3.018 1.272 5.041.989.535 2.032.967 3.109 1.289 1.057-1.809 2.968-3.006 4.917-3.006 1.945 0 3.856 1.199 4.915 3.006a16.49 16.49 0 0 0 3.11-1.289c-.531-2.023-.108-3.66 1.27-5.041 1.378-1.375 3.018-2.17 5.043-1.643.535-.99.967-2.031 1.287-3.111-1.811-1.059-3.014-2.592-3.014-4.541zm-12.615 6.793c-3.752 0-6.794-3.041-6.794-6.795A6.794 6.794 0 1 1 31.791 25a6.793 6.793 0 0 1-6.793 6.793z" opacity=".5"/></svg>