<svg xmlns="http://www.w3.org/2000/svg" xml:space="preserve" width="50" height="50"><path fill="#FFF" d="M39.146 40.625H10.854a.977.977 0 0 1-.95-1.206L15.2 17.447a.977.977 0 0 1 1.717-.375l3.23 4.106 4.943-11.22a.976.976 0 0 1 1.814.07l5.775 16.448 1.573-7.914a.977.977 0 0 1 .958-.786h.006a.975.975 0 0 1 .954.796l3.934 20.896a.977.977 0 0 1-.958 1.157zm-27.051-1.953h25.873l-2.782-14.777L33.9 30.36a.977.977 0 0 1-1.879.134l-6.14-17.486-4.602 10.447a.975.975 0 0 1-1.661.21l-2.991-3.802-4.532 18.809z" opacity=".5"/></svg>