<svg xmlns="http://www.w3.org/2000/svg" width="500" height="75" xml:space="preserve"><g fill="#FFF"><path d="M0 45.04c.256-1.56.65-2.743 2.279-3.496 2.782-1.283 4.563-3.495 5.413-6.399 1.156-3.943 2.399-7.866 3.598-11.799.126-.409.207-.833.341-1.378H5.566c-.152-2.372.425-2.995 2.676-2.992 4.321.002 8.642.006 12.963.015.133 0 .266.049.573.109-.09.412-.148.823-.268 1.217-1.213 4.021-2.421 8.039-3.662 12.053-2.124 6.88-9.095 12.196-16.586 12.671-.399.023-.8-.001-1.262-.001zM88.879 32.386c-.215-.112-.252-.145-.294-.15-2.832-.353-2.83-.353-3.621 2.279-.489 1.623-.989 3.246-1.547 5.07h10.854c-.066 2.161-.246 2.334-2.238 2.334-4.227.003-8.452.006-12.678 0-3.05-.007-4.069-1.262-3.277-4.063.417-1.47.849-2.938 1.358-4.376.837-2.362 2.663-3.581 5.251-3.586 3.589-.003 7.18-.009 10.769.004 2.457.006 3.524 1.393 2.877 3.697-.52 1.851-1.992 3.217-3.915 3.319-2.215.115-4.439.025-6.655.025-.094-1.706.097-1.937 1.618-2.17 1.476-.226.977-1.548 1.498-2.383zM26.547 22.538c29.797-14.042 59.682-14.106 89.598-.22-14.438-5.074-29.316-8.067-44.772-8.033-15.482.035-30.37 3.061-44.826 8.253zM106.498 36.976c-1.738 0-3.362-.016-4.988.004-1.447.016-2.883.045-3.483-1.61-.534-1.47.112-3.717 1.442-4.624.572-.393 1.307-.788 1.972-.796 4.994-.067 9.989-.035 14.982-.035.003 2.068-.174 2.241-2.18 2.244h-6.005c-2.328 0-2.396.061-2.654 2.622h4.859c2.527 0 3.434.477 3.757 1.965.392 1.811-.703 3.916-2.521 4.639-.739.295-1.575.504-2.371.51-4.412.049-8.824.025-13.236.02-.175 0-.349-.059-.52-.09.177-2.122.287-2.225 2.381-2.225h5.868c2.323-.002 2.323-.002 2.697-2.624zM54.288 41.919c.775-2.603 1.505-4.972 2.185-7.354.877-3.079 2.781-4.889 6.501-4.702 3.218.158 6.453.028 9.684.031 2.705.005 3.698 1.22 3.099 3.765-.785 3.316-.785 3.316-4.376 3.316h-4.419c.448-1.636.862-3.117 1.273-4.603-.243-.097-.363-.177-.488-.187-2.606-.179-2.61-.179-3.345 2.193-.668 2.174-1.368 4.338-1.973 6.526-.22.787-.614 1.045-1.433 1.027-2.132-.036-4.265-.012-6.708-.012zM37.162 25.926c-.26 2.128-.264 2.132-2.222 2.133h-1.092c-3.928 0-3.928 0-4.64 4.077h6.083c-.373 2.276-.373 2.276-2.398 2.276-.772 0-1.546-.017-2.319.003-2.668.07-1.991-.471-2.843 2.109-.494 1.492-.884 3.022-1.413 4.501-.128.357-.611.842-.946.852-2.264.077-4.532.042-6.973.042.082-.489.102-.864.207-1.214 1.321-4.392 2.672-8.777 3.976-13.178.347-1.168.973-1.716 2.323-1.689 3.681.072 7.365.023 11.047.028.402 0 .803.039 1.21.06zM129.756 39.598c-.09 2.164-.256 2.321-2.255 2.321-2.912.003-5.821.017-8.73-.003-2.66-.018-3.777-1.221-3.112-3.645 1.074-3.912 2.317-7.785 3.532-11.662.091-.294.506-.697.779-.704 2.346-.056 4.695-.032 7.209-.032-.396 1.406-.735 2.615-1.117 3.977h5.037c.118 2.02-.144 2.285-1.978 2.314-1.26.019-2.832-.311-3.687.281-.79.544-.815 2.116-1.169 3.236-.377 1.204-.741 2.407-1.205 3.916h3.333l3.363.001zM46.816 29.895c1.908 0 3.814-.019 5.722.007 2.061.025 3.178 1.05 2.787 2.964a32.075 32.075 0 0 1-1.998 6.349c-.794 1.824-2.524 2.688-4.609 2.698-3.633.022-7.266.032-10.898-.003-2.398-.02-3.442-1.188-2.939-3.457.403-1.825.944-3.644 1.657-5.375.883-2.142 2.619-3.253 5.104-3.191 1.722.043 3.449.008 5.174.008zm-4.481 9.701c.947 0 1.713.041 2.47-.017.312-.026.806-.205.875-.417.737-2.26 1.407-4.539 2.154-7.004-.936 0-1.615-.061-2.276.022-.394.051-1.004.246-1.092.509-.748 2.229-1.398 4.482-2.131 6.907z"/></g><g fill="#FFF"><path d="M162.4 2.209c1.102 0 2.229.063 3.381.188 1.15.126 2.29.339 3.417.639 1.127.301 2.041.676 2.744 1.127.699.45 1.051 1.027 1.051 1.728 0 .802-.051 1.491-.15 2.065a91.373 91.373 0 0 0-.451 3.118c-.101.952-.176 1.99-.226 3.117s-.075 2.417-.075 3.869c.802-.1 2.542-.287 5.222-.563l4.771-.489c.198-.049.649-.124 1.351-.225s1.277-.15 1.729-.15c1.052 0 2.428.514 4.131 1.539 1.702 1.027 2.555 1.791 2.555 2.291 0 .752-.187 1.454-.563 2.104-.376.651-.914 1.415-1.614 2.29a283.75 283.75 0 0 0-1.729 2.18c-.449.576-.927 1.14-1.426 1.69.25.25.45.538.601.863.15.326.226.714.226 1.165 0 .3-.238.525-.714.676-.478.15-1.09.224-1.841.224-.501 0-1.39-.036-2.667-.111-1.277-.074-2.167-.112-2.666-.112-1.402 0-2.793.051-4.17.15-1.378.101-2.617.301-3.719.601 0 2.004.1 5.684.302 11.042.198 5.36.299 8.592.299 9.692 0 1-.138 1.802-.413 2.401-.275.603-.714.902-1.313.902-.603 0-1.153-.363-1.654-1.088-.501-.727-1.038-1.652-1.614-2.779-.576-1.127-.989-2.041-1.239-2.742a6.42 6.42 0 0 1-.376-2.18c0-1.052.175-1.979.526-2.779.198-1.301.338-2.816.413-4.547.075-1.727.112-4.065.112-7.022-.402 0-1.415.202-3.043.603-1.628.399-2.918.576-3.869.524a8.38 8.38 0 0 1-.299 2.217c-.202.727-.478 1.09-.827 1.09-.551 0-1.039-.088-1.465-.264-.426-.175-.989-.463-1.69-.862-.701-.4-1.277-.813-1.728-1.241-.451-.424-.702-1.013-.752-1.766 0-.649-.148-1.264-.449-1.84-.302-.575-.803-1.415-1.504-2.517a91.959 91.959 0 0 1-1.802-3.381c-.451-.9-.677-1.552-.677-1.952 0-.551.376-1.252 1.127-2.104.752-.851 1.401-1.276 1.954-1.276.299 0 .687.213 1.163.638.476.427.789.689.939.789 1.452-.3 3.242-.676 5.37-1.127 2.129-.45 4.646-1.001 7.551-1.652 0-4.356-.252-7.824-.751-10.404-.501-2.579-1.679-4.545-3.531-5.896l.072-.453zm-6.535 23.138c.45.651.926 1.453 1.428 2.403.5.952.951 1.905 1.352 2.855 1.201-.25 2.593-.538 4.169-.864 1.578-.326 2.843-.588 3.794-.789v-6.385c-1.652.3-3.707.801-6.159 1.502-2.457.702-3.983 1.127-4.584 1.278zm16.002-3.532a901.723 901.723 0 0 0-.226 3.644c-.052.826-.026 1.717.075 2.667a66.286 66.286 0 0 1 4.318-.601 38.608 38.608 0 0 1 4.019-.226 55.1 55.1 0 0 0 1.729-3.456c.551-1.202.826-1.978.826-2.329 0-.35-.138-.601-.413-.75-.275-.151-.639-.227-1.09-.227-1.303 0-2.703.126-4.206.376-1.503.252-3.18.553-5.032.902zM202.892 20.088c.651-.15 1.265-.274 1.841-.375.576-.101 1.265-.15 2.066-.15.951 0 1.903.101 2.854.3.951.201 1.729.488 2.329.864a3.552 3.552 0 0 1 1.353 1.502 4.54 4.54 0 0 1 .451 1.991c0 .401-.163.727-.488.977-.326.251-.664.375-1.015.375-1.152 0-2.843-.763-5.07-2.291-2.229-1.527-3.694-2.49-4.396-2.893l.075-.3zm6.386 31.85c-.651 0-1.191-.224-1.615-.676-.428-.451-.952-1.175-1.578-2.178a29.055 29.055 0 0 1-1.54-2.742c-.401-.826-.576-1.664-.526-2.516l.075-.303c.451.252.852.453 1.202.604s.651.225.901.225c.301 0 .852-.563 1.653-1.69.8-1.127 1.727-2.541 2.78-4.244a86.41 86.41 0 0 0 2.778-4.807 42.438 42.438 0 0 0 2.179-4.809l.526 1.277c.048.651.1 1.314.15 1.991.048.676.074 1.465.074 2.365-.149 1.004-.476 2.417-.977 4.246a122.57 122.57 0 0 1-1.803 5.934c-.702 2.131-1.415 3.883-2.142 5.26-.724 1.377-1.436 2.063-2.137 2.063zm-2.554-43.419c.701-.149 1.327-.287 1.877-.413a8.594 8.594 0 0 1 1.88-.187c.9 0 1.826.063 2.778.187.951.126 1.776.402 2.479.827a4.497 4.497 0 0 1 1.653 1.766c.4.751.601 1.478.601 2.179 0 .4-.2.739-.601 1.014-.401.276-.802.413-1.202.413-.702 0-1.428-.188-2.179-.563-.752-.375-1.578-.913-2.479-1.615a141.086 141.086 0 0 0-2.519-1.916 13.478 13.478 0 0 0-2.29-1.39v-.302h.002zm16.076 21.71a111.64 111.64 0 0 1-1.804-1.69c-.6-.575-1.202-1.39-1.802-2.441l.075-.226c.75.102 1.376.177 1.877.226.501.05.951.075 1.353.075 1.102 0 4.932-.551 11.494-1.652 2.153-.351 4.245-.715 6.272-1.09 2.028-.375 3.218-.563 3.568-.563.751 0 1.363.013 1.841.038.476.025.963.125 1.465.3.501.176.95.439 1.352.789.4.352.601.727.601 1.127 0 .45-.613.789-1.839 1.014a21.808 21.808 0 0 1-3.944.339c-1.353 0-3.757.225-7.212.676-3.456.451-6.286 1.027-8.49 1.728.252.352.415.589.49.714a.96.96 0 0 1 .112.488c0 .351-.188 1.103-.563 2.254a789.408 789.408 0 0 1-1.314 3.98c.4 0 .876-.037 1.426-.112.551-.075 1.841-.288 3.869-.639 2.029-.351 4.295-.75 6.8-1.202 2.503-.451 4.03-.75 4.582-.9.601-.25 1.076-.413 1.428-.488a5.763 5.763 0 0 1 1.2-.112c.852 0 1.979.263 3.381.787 1.402.527 2.104 1.14 2.104 1.841 0 .301-.188.553-.563.753a2.607 2.607 0 0 1-1.24.301c-.852 0-1.565-.013-2.14-.039a52.943 52.943 0 0 0-2.217-.038c.301.051.551.163.75.339.2.177.302.413.302.714 0 .5-.402.989-1.202 1.464-.802.477-1.778 1.064-2.93 1.767a39.26 39.26 0 0 0 6.46 4.957c2.354 1.453 5.11 2.931 8.266 4.433l-1.053 1.053c-1.052.301-2.166.5-3.344.602a46.16 46.16 0 0 1-3.944.148c-.75 0-1.389-.062-1.916-.187a3.59 3.59 0 0 1-1.464-.752c-.45-.375-1.14-1.177-2.066-2.403a341.023 341.023 0 0 0-1.915-2.518 192.993 192.993 0 0 1-2.816 3.191 44.122 44.122 0 0 1-3.043 3.045c-1.103 1.002-2.191 1.813-3.269 2.438a6.822 6.822 0 0 1-3.492.941c-.553 0-1.202-.628-1.953-1.88-.752-1.252-1.027-2.379-.827-3.381 1.002-.801 1.677-1.965 2.029-3.492.349-1.526.601-3.393.751-5.598a.858.858 0 0 0-.075-.375 7.752 7.752 0 0 1-.15-.303c-.402-.099-.815-.349-1.239-.749-.428-.399-.765-.901-1.015-1.504-1.402 3.606-2.905 6.55-4.508 8.829-1.604 2.279-3.632 3.417-6.085 3.417 2.004-3.306 3.681-6.923 5.033-10.854 1.351-3.933 2.201-7.125 2.553-9.58zM233.467.105c1.804.05 3.469.313 4.995.789 1.527.476 2.292.989 2.292 1.54 0 .651-.088 1.402-.262 2.253l-.563 2.704c.449-.099 1.213-.262 2.29-.487 1.076-.226 1.815-.338 2.217-.338.601 0 1.151.101 1.652.3.499.201 1.127.525 1.877.978.753.45 1.34.863 1.766 1.238.426.376.639.915.639 1.616 0 .751-.802 2.467-2.404 5.146-1.602 2.68-2.553 4.345-2.854 4.996-.2.4-.54.75-1.015 1.051a2.957 2.957 0 0 1-1.615.451c-.45 0-.977-.274-1.577-.827-.602-.55-.976-.851-1.126-.901-1.703 0-3.869.289-6.499.864-2.63.577-4.219.914-4.77 1.015-.15.501-.313.889-.488 1.164-.176.275-.365.413-.563.413-.401 0-.802-.1-1.202-.301a6.46 6.46 0 0 1-1.127-.713 6.237 6.237 0 0 1-.939-.902 3.66 3.66 0 0 1-.601-.938 13.674 13.674 0 0 1-.451-1.353c-.176-.602-.338-1.063-.488-1.39-.15-.324-.401-.738-.75-1.239-.353-.5-.603-.863-.753-1.089s-.338-.602-.563-1.127c-.226-.526-.426-.926-.6-1.202a6.417 6.417 0 0 1-.452-.826 2.08 2.08 0 0 1-.187-.864c0-.4.512-.926 1.539-1.577 1.026-.65 1.891-.977 2.592-.977l.602.751c.25-.1.726-.226 1.427-.376.701-.15 1.303-.301 1.804-.45-.15-.852-.44-1.841-.864-2.968-.426-1.127-.914-2.115-1.465-2.968l.226-.149c1.551.101 2.79.313 3.719.638.925.327 1.589.74 1.991 1.24.399.501.675 1.014.825 1.54.15.526.274 1.115.375 1.765.15-.099.551-.199 1.202-.3.651-.1 1.176-.199 1.578-.301l.15-2.216c.05-.726.075-1.339.075-1.84 0-.452-.15-1.039-.451-1.766-.301-.727-.676-1.34-1.127-1.841l-.077-.226zm-8.113 13.222.526 1.052c.351 0 .789-.087 1.313-.263.527-.175.865-.264 1.016-.264a21 21 0 0 1-.226-.714 8.333 8.333 0 0 1-.227-.863 3.107 3.107 0 0 0-1.088.338c-.325.176-.765.413-1.314.714zm1.202 3.231 1.126 2.479 1.729-.301a24.89 24.89 0 0 1-.338-1.089c-.127-.425-.189-.688-.189-.788-.449-.05-.852-.101-1.202-.15s-.727-.102-1.126-.151zm2.78 14.422c1-.199 2.516-.563 4.544-1.089 2.029-.526 3.269-.889 3.72-1.09.449-.3 1.025-.45 1.727-.45.901 0 1.865.2 2.893.601 1.026.401 1.54.877 1.54 1.428 0 .3-.288.589-.864.862-.576.277-1.378.553-2.402.828a28.47 28.47 0 0 1-3.007.639c-.976.15-1.915.224-2.816.224a9.504 9.504 0 0 1-2.704-.374c-.853-.25-1.729-.65-2.629-1.202v-.377h-.002zm2.178 8.04c.351.25.626.563.826.938.2.376.301.862.301 1.465 0 .651-.112 1.729-.338 3.229-.226 1.502-.338 2.705-.338 3.605a47.521 47.521 0 0 0 3.381-1.878c1.151-.7 2.452-1.503 3.905-2.403a164.667 164.667 0 0 1-2.178-2.93 430.996 430.996 0 0 0-2.329-3.156c-.651.101-1.239.238-1.766.414a6.103 6.103 0 0 0-1.464.716zm.675-27.796.075 1.503c.301-.101.626-.188.977-.264.351-.074.776-.137 1.277-.188l.15-1.728c-.45.05-.891.139-1.314.263-.425.126-.814.263-1.165.414zm.226 5.182.075 1.729c.2-.049.463-.112.789-.188.325-.075.613-.112.864-.112l.15-1.729c-.401.051-.777.113-1.127.188-.351.076-.601.112-.751.112zm6.161-1.051c-.102.2-.189.501-.265.901-.073.401-.138.702-.188.901.452-.049.839-.086 1.166-.113.324-.023.787-.011 1.389.038.2-.35.4-.775.601-1.276.2-.5.426-1.076.677-1.728-.301.25-.739.476-1.315.675-.577.202-1.265.403-2.065.602zm-.452 21.786 1.504 1.577c.349-.399.638-.775.864-1.127.224-.349.361-.701.412-1.05-.401 0-.802.036-1.201.111-.402.075-.929.238-1.579.489zm1.428-27.27c-.051.252-.113.539-.187.864a18.28 18.28 0 0 1-.265 1.015c.701 0 1.316.075 1.841.225.526.15.939.576 1.24 1.277.199-.551.413-1.189.638-1.916.226-.725.339-1.239.339-1.54 0-.15-.051-.249-.15-.3a.584.584 0 0 0-.226-.075c-.401 0-.901.025-1.503.075-.6.051-1.176.176-1.727.375zM279.366 46.08c0 .352.036.964.112 1.841.074.877.112 1.565.112 2.065 0 .902-.163 1.828-.487 2.779-.326.952-.74 1.426-1.24 1.426-.6 0-1.34-.813-2.215-2.438-.877-1.628-1.316-2.743-1.316-3.344 0-.351.125-.751.377-1.202.199-.551.412-1.488.639-2.816.226-1.326.338-2.565.338-3.721-.201.104-.715.555-1.541 1.354a23.59 23.59 0 0 1-2.403 2.064c-.775.576-1.688 1.079-2.741 1.503a8.709 8.709 0 0 1-3.307.64l-1.428-.301c1.453-1.152 2.867-2.517 4.246-4.095a81.743 81.743 0 0 0 4.17-5.222c-.651.202-1.654.653-3.008 1.353-1.35.703-2.253 1.052-2.703 1.052-.451 0-1.139-.662-2.065-1.991-.927-1.325-1.39-2.465-1.39-3.417l.075-.45c.8.25 1.438.438 1.915.563s1.039.186 1.691.186c.551 0 1.65-.286 3.305-.862a589.452 589.452 0 0 0 5.408-1.916c0-1.352-.111-2.579-.338-3.681-.225-1.102-.738-2.179-1.539-3.23v-.451c1.051 0 1.927.088 2.628.264.7.176 1.452.412 2.254.714.8.3 1.392.613 1.765.938.377.326.564.89.564 1.69 0 .101-.051.413-.15.938-.102.525-.15.939-.15 1.239.351-.15.678-.225.979-.225s.801.176 1.501.525c.701.352 1.078.852 1.128 1.503 0 .351-.427.764-1.277 1.24-.853.476-1.803.839-2.854 1.089a1.704 1.704 0 0 0-.301.75c-.05.301-.103.678-.149 1.127 1.45.553 2.564 1.127 3.344 1.728.774.602 1.138 1.453 1.088 2.555-.102.451-.313.803-.639 1.053-.324.25-.713.375-1.164.375s-1.015-.301-1.689-.9c-.676-.6-1.115-.951-1.314-1.053a15.836 15.836 0 0 0-.149 2.104c-.007.651-.032 2.204-.082 4.657zm-5.934-22.536-2.254-.15a52.28 52.28 0 0 0 5.483-4.282c1.804-1.602 3.28-3.104 4.433-4.507-1.352-.1-2.506-.35-3.455-.752a5.813 5.813 0 0 1-2.404-1.878l.074-.3c2.254-.4 4.156-.763 5.709-1.09a23.055 23.055 0 0 0 4.283-1.314c0-2.153-.126-3.894-.375-5.222a6.832 6.832 0 0 0-1.803-3.492l.074-.451c2.053 0 3.855.238 5.408.714 1.553.477 2.33 1.164 2.33 2.065 0 .552-.064 1.39-.189 2.517-.124 1.127-.188 1.967-.188 2.518.2-.05.825-.213 1.879-.489 1.051-.274 1.826-.413 2.328-.413.45 0 .914.063 1.39.188s.965.326 1.466.601c.5.275.926.576 1.277.901.35.326.524.664.524 1.014 0 .301-.288.602-.865.902-.575.3-1.325.589-2.253.863-.927.276-2.129.589-3.604.939-1.479.351-2.393.576-2.744.676v.826c1.055.252 2.055.488 3.006.714s2.029.426 3.23.602 2.254.351 3.154.525a7.91 7.91 0 0 1 2.592 1.015c.828.501 1.565 1.189 2.217 2.065.649.877.977 1.665.977 2.366 0 .351-.262.664-.789.938-.524.276-.965.414-1.313.414-.5 0-1.401-.301-2.705-.902a382.835 382.835 0 0 0-4.657-2.103 966.69 966.69 0 0 1-3.718-1.428c-.777-.3-1.416-.526-1.916-.676 0 2.854-.103 5.371-.3 7.549-.202 2.179-.576 3.269-1.127 3.269-.854 0-1.754-.763-2.705-2.292-.952-1.526-1.428-2.715-1.428-3.567 0-.65.101-1.177.302-1.577.149-.302.262-.739.337-1.315.074-.575.138-1.39.188-2.441-1.201 1.102-2.217 1.966-3.041 2.592a30.579 30.579 0 0 1-2.668 1.803 18.126 18.126 0 0 1-2.893 1.428c-.976.373-2.066.587-3.267.637zm17.579 10.743c-1.103 0-2.079-.138-2.931-.415-.852-.273-1.703-.737-2.555-1.389v-.678c1.502-.349 3.029-.723 4.582-1.126l4.959-1.277c0-2.253-.074-3.968-.227-5.145-.15-1.177-.602-2.266-1.354-3.269v-.301c1.354-.15 2.867.076 4.547.677 1.678.601 2.517 1.303 2.517 2.104 0 .351-.05 1.039-.149 2.065a84.088 84.088 0 0 0-.228 2.666c.502-.249 1.09-.475 1.767-.675.678-.2 1.239-.301 1.689-.301.903 0 1.903.238 3.007.714 1.102.476 1.651.989 1.651 1.54 0 .5-.239.901-.714 1.201a5.6 5.6 0 0 1-1.576.677c-.576.15-1.479.326-2.705.526-1.229.2-2.366.45-3.418.751l-.226.75a67.697 67.697 0 0 0 9.126 7.776 63.813 63.813 0 0 0 10.331 5.972l-1.504 1.277c-1.201.3-2.292.526-3.269.676s-2.091.226-3.342.226c-.651 0-1.229-.1-1.729-.301-.5-.197-1.176-.451-2.026-.751a288.82 288.82 0 0 0-4.058-5.221 46.951 46.951 0 0 0-3.455-3.869c-.102 1.604-.051 3.832.15 6.687.198 2.854.299 4.957.299 6.312 0 .551-.012 1.063-.036 1.54-.025.475-.075.963-.149 1.464-.075.5-.188.914-.338 1.239-.15.324-.352.488-.604.488-.65 0-1.389-.176-2.215-.525-.826-.352-1.766-.864-2.816-1.539a18.914 18.914 0 0 1-2.932-2.331 11.376 11.376 0 0 1-2.178-2.892l-.45-1.577c.302.051 1.214.301 2.741.752 1.527.45 2.565.676 3.119.676.099 0 .211-.438.338-1.315.125-.873.213-1.889.262-3.041.05-1.152.087-2.666.111-4.545.025-1.879.063-3.017.115-3.418-.604.553-1.49 1.49-2.668 2.817-1.179 1.327-2.179 2.393-3.007 3.193-.825.8-1.752 1.49-2.776 2.063a6.732 6.732 0 0 1-3.344.864c-.503 0-.902-.025-1.203-.075-.3-.05-.524-.149-.676-.301 1.852-1.503 3.682-3.392 5.483-5.671 1.811-2.278 3.16-4.192 4.064-5.745zM338.112 46.381c0 .701-.15 1.454-.451 2.254-.3.801-.676 1.2-1.127 1.2-.651 0-1.452-.899-2.402-2.703-.953-1.804-1.428-3.004-1.428-3.606 0-.398.075-.875.226-1.428.249-.949.476-2.24.676-3.867.199-1.626.302-3.467.302-5.521-1.604 2.204-3.155 4.03-4.658 5.483s-2.956 2.179-4.357 2.179c-.552 0-1.015-.024-1.389-.075a4.117 4.117 0 0 1-1.09-.301 28.226 28.226 0 0 0 5.821-6.535c1.578-2.454 3.017-5.26 4.319-8.414-.953.352-1.854.664-2.705.938-.852.276-1.553.414-2.104.414a5.621 5.621 0 0 1-2.404-.526c-.751-.35-1.576-.926-2.478-1.728l-.075-.301a83.95 83.95 0 0 0 5.821-1.652c2.027-.65 3.793-1.326 5.297-2.028 0-3.305-.151-5.959-.452-7.963-.301-2.002-1.101-3.705-2.403-5.108l.15-.525c1.804-.05 3.681.214 5.634.789 1.953.576 2.931 1.439 2.931 2.591 0 .552-.176 1.729-.525 3.531-.351 1.802-.553 3.381-.602 4.732l.602-.15c.2-.049.399-.075.602-.075.901 0 1.853.226 2.854.676 1.003.451 1.504 1.053 1.504 1.803 0 .15-.089.352-.266.602-.176.251-.362.427-.563.525-.449.201-1.265.502-2.44.902-1.177.4-2.065.751-2.667 1.052-.101.251-.163.613-.188 1.089a28.994 28.994 0 0 0-.038 1.615 8.618 8.618 0 0 1 3.229 1.952c.951.902 1.402 1.979 1.354 3.231 0 .351-.025.627-.075.826a1.652 1.652 0 0 1-.301.602c-.853.15-1.565.037-2.14-.34-.576-.374-1.24-.912-1.991-1.613-.05.45-.112 1.716-.188 3.794-.075 2.077-.112 3.544-.112 4.394 0 .602.05 1.778.149 3.531.099 1.75.148 3.002.148 3.754zm13.071-42.745c2.305-.15 4.495.164 6.574.939 2.077.777 3.118 1.566 3.118 2.366 0 .45-.239 2.092-.714 4.921-.479 2.83-.764 5.097-.864 6.798.399-.1 1.165-.3 2.292-.601 1.126-.301 2.039-.451 2.741-.451.701 0 1.302.026 1.803.075a8.57 8.57 0 0 1 1.615.339c.576.176 1.09.438 1.539.788.452.352.678.802.678 1.353 0 .651-1.615 1.215-4.846 1.69-3.231.476-5.171.814-5.822 1.014a398.43 398.43 0 0 0 4.845 5.896 39.538 39.538 0 0 0 4.171 4.283 43.17 43.17 0 0 0 4.731 3.605 940.047 940.047 0 0 0 6.837 4.47l-1.127.824c-1.002.203-1.791.328-2.366.377-.575.05-1.391.076-2.441.076-1.953 0-3.819-.264-5.597-.789s-3.067-1.641-3.868-3.344a135.033 135.033 0 0 0-2.855-5.295c-.9-1.578-1.802-2.917-2.703-4.02-.051 1.453-.051 3.257 0 5.408.048 2.154.075 3.531.075 4.133 0 1.2.1 3.168.3 5.896.199 2.731.301 4.445.301 5.146 0 1.002-.102 1.916-.301 2.742-.2.824-.577 1.238-1.127 1.238-1.202 0-2.867-.537-4.996-1.615s-4.294-2.616-6.498-4.619l-.601-1.805c1.701.401 3.054.728 4.056.978 1.002.253 2.078.376 3.232.376.198 0 .36-.227.487-.676a11.24 11.24 0 0 0 .3-1.728c.074-.702.125-1.653.149-2.854.025-1.202.05-2.066.075-2.594l.188-4.057c.101-2.178.149-3.968.149-5.371-.45.552-1.313 1.741-2.592 3.569-1.277 1.827-2.403 3.269-3.38 4.318a13.86 13.86 0 0 1-3.307 2.63c-1.228.701-2.516 1.052-3.867 1.052h-1.878c2.403-2.203 4.669-4.783 6.798-7.738a87.214 87.214 0 0 0 5.598-8.788c-.452 0-1.104.163-1.955.487-.852.327-1.552.488-2.103.488-1.002 0-1.916-.137-2.742-.413-.826-.274-1.589-.738-2.29-1.39l.075-.45a115.233 115.233 0 0 1 4.957-1.578c1.703-.5 3.931-1.151 6.686-1.953.102-3.505-.063-6.648-.488-9.428-.425-2.78-1.439-4.795-3.043-6.047v-.671zM400.013 12.65c1.055 0 2.379.352 3.982 1.052 1.603.702 2.404 1.304 2.404 1.804 0 .45-.188.9-.563 1.353-.376.45-.854.951-1.428 1.502-.576.551-1.354 1.265-2.329 2.141-.978.877-1.614 1.465-1.916 1.766 1.202.352 2.19.739 2.968 1.164.776.426 1.377.915 1.804 1.465.426.552.738 1.177.938 1.878.2.702.301 1.479.301 2.329 0 .45-.125.939-.376 1.465-.252.524-.576.789-.977.789s-.891-.287-1.466-.864a8.74 8.74 0 0 1-1.389-1.765 93.261 93.261 0 0 1-2.78 1.465 43.57 43.57 0 0 1-2.555 1.164c1.152.651 1.854 1.739 2.104 3.267.25 1.53.375 4.496.375 8.902 0 3.455-.125 5.836-.375 7.138-.251 1.303-.728 1.952-1.429 1.952-.751 0-1.604-.813-2.555-2.44-.952-1.626-1.428-2.743-1.428-3.344 0-.2.163-1.362.487-3.492.326-2.128.489-4.694.489-7.701 0-.602-.038-1.175-.112-1.729a8.213 8.213 0 0 0-.339-1.501c-.602.15-1.553.537-2.854 1.165-1.303.626-2.229.938-2.778.938-.602 0-1.353-.524-2.254-1.578-.901-1.05-1.553-2.077-1.952-3.079l.15-.525 1.65.074a19.727 19.727 0 0 0 4.472-3.079 32.794 32.794 0 0 0 3.868-4.207 2.834 2.834 0 0 0-1.052-.413 92.536 92.536 0 0 1-1.353-.263c-.302 0-.901.063-1.805.188-.9.125-1.603.188-2.104.188a12.087 12.087 0 0 1-.863-2.403 5.578 5.578 0 0 1-.037-2.329c2.203-.951 4.645-3.117 7.323-6.498 2.681-3.38 4.021-5.396 4.021-6.047 0-.451-.075-.902-.227-1.353a7.258 7.258 0 0 0-.676-1.428l.15-.45c2.653.601 4.657 1.29 6.009 2.066 1.353.776 2.029 1.464 2.029 2.065 0 .45-.353 1.026-1.054 1.728s-1.614 1.565-2.742 2.592c-1.127 1.027-2.628 2.479-4.507 4.357-1.878 1.878-3.191 3.143-3.943 3.794.802.149 1.466.274 1.99.375.526.101 1.064.251 1.615.45a43.127 43.127 0 0 0 2.143-2.629c.675-.901 1.013-1.427 1.013-1.577 0-.251-.036-.526-.111-.827a3.028 3.028 0 0 0-.338-.825l.382-.23zm-10.142 22.687c.351.451.563 1.04.639 1.768.075.727.114 1.665.114 2.816a13.75 13.75 0 0 1-.678 4.318c-.449 1.379-1.025 2.065-1.728 2.065-.751 0-1.353-.414-1.803-1.24a5.328 5.328 0 0 1-.677-2.59c0-.752.551-2.017 1.652-3.795a360.86 360.86 0 0 0 2.104-3.417l.377.075zm9.09-11.793-2.215 1.877c-.826.702-1.816 1.554-2.968 2.555.95-.301 2.054-.688 3.306-1.164s2.179-.838 2.78-1.09c-.102-.199-.251-.55-.451-1.051s-.35-.876-.452-1.127zm1.654 9.689c1.952.653 3.518 1.54 4.693 2.667 1.177 1.127 1.767 2.543 1.767 4.245 0 .401-.125.853-.375 1.354-.251.501-.577.75-.979.75-.501 0-.927-.161-1.275-.487a4.4 4.4 0 0 1-.902-1.202c-.251-.475-.676-1.414-1.277-2.816a298.715 298.715 0 0 0-1.878-4.281l.226-.23zm29.297-16.45c0 .101-.274 1.464-.825 4.094-.553 2.629-.828 4.595-.828 5.896 0 2.004.026 4.296.075 6.873.05 2.58.102 5.023.15 7.325a8.71 8.71 0 0 1 1.578-.15c.198 0 .551-.023 1.052-.073.5-.05.9-.077 1.202-.077.649 0 1.227.104 1.728.303.501.2 1.127.514 1.879.938.751.427 1.352.864 1.803 1.313.451.45.676 1.053.676 1.803 0 .352-.163.666-.488.94a1.65 1.65 0 0 1-1.088.412c-.703 0-1.591-.099-2.667-.301-1.079-.2-2.567-.524-4.472-.976-1.901-.352-3.441-.59-4.618-.715a30.545 30.545 0 0 0-3.193-.188c-1.754 0-3.58.103-5.483.301-1.904.202-3.405.603-4.508 1.202-.501.15-1.415.479-2.741.979-1.328.5-2.317.75-2.968.75-.601 0-1.439-.65-2.517-1.953s-1.666-2.379-1.766-3.23l.075-.301c.9.353 1.576.589 2.027.714.451.127.951.188 1.503.188.4 0 1.227-.125 2.479-.375 1.251-.25 2.077-.4 2.479-.451-.351-.752-.6-1.362-.75-1.84s-.226-.813-.226-1.016c0-.25.074-.676.226-1.277s.249-1.026.301-1.277c.048-1.2.188-3.692.413-7.474.225-3.782.337-6.248.337-7.4 0-1.151-.176-2.49-.525-4.019-.352-1.527-.552-2.441-.601-2.742h.301c.449.051.938.163 1.464.338a8.768 8.768 0 0 1 1.466.639c.5-.049 2.265-.375 5.297-.977 3.028-.601 4.744-.977 5.146-1.127.551-.199 1.052-.3 1.502-.3.752 0 1.791.426 3.118 1.276 1.323.854 1.987 1.504 1.987 1.955zm-12.846 16.978a4.64 4.64 0 0 1-1.127-.15c-.4-.102-.728-.175-.978-.227-.101 1.803-.2 3.333-.301 4.583-.103 1.254-.2 2.43-.3 3.531a24.618 24.618 0 0 1 3.53-.525c1.25-.101 2.878-.176 4.883-.226-.051-1.002-.089-2.34-.112-4.021-.025-1.678-.038-2.99-.038-3.944-.852.301-1.753.541-2.703.714-.951.177-1.903.265-2.854.265zm.226-6.912c-.402 0-.764-.037-1.089-.112a5.776 5.776 0 0 1-.864-.263 10.795 10.795 0 0 0-.263 2.028 68.6 68.6 0 0 0-.038 2.554l2.591-.939c.626-.225 1.189-.337 1.69-.337.7 0 1.304.063 1.805.187.499.126 1 .414 1.501.864V25.798a259.47 259.47 0 0 1-2.93.751c-.801.2-1.603.3-2.403.3zm-2.028-7.813c.15.201.275.451.376.751.101.301.149.751.149 1.353 0 .251-.05.702-.149 1.353-.101.651-.149 1.177-.149 1.577.3-.1.964-.325 1.989-.676 1.025-.35 1.814-.526 2.367-.526.601 0 1.113.075 1.539.226.425.15.864.426 1.314.826 0-.751-.013-1.878-.037-3.381a233.538 233.538 0 0 1-.038-2.93c0-.3-.088-.487-.263-.563a1.418 1.418 0 0 0-.563-.111c-.65 0-1.689.2-3.118.6-1.426.401-2.566.901-3.417 1.501zM464.768 1.908c2.204.201 4.208.563 6.012 1.089 1.802.526 2.705 1.116 2.705 1.766 0 .402-.314 1.115-.94 2.142-.627 1.027-1.015 1.791-1.165 2.291 3.506 4.458 7.739 8.677 12.696 12.658a109.516 109.516 0 0 0 15.926 10.63l-1.428.75c-1.002.202-2.09.34-3.268.413a59.68 59.68 0 0 1-3.868.114c-2.104 0-3.906-.288-5.409-.864-1.502-.575-2.681-1.665-3.529-3.268-1.104-1.603-2.456-3.443-4.058-5.521a188.204 188.204 0 0 0-4.282-5.372 410.57 410.57 0 0 0-2.78-3.38 153.23 153.23 0 0 0-2.103-2.479 2950.46 2950.46 0 0 0-7.062 8.713 68.878 68.878 0 0 1-4.959 5.484 27.954 27.954 0 0 1-6.234 4.695c-2.305 1.277-4.884 1.916-7.738 1.916 1.854-1.353 4.031-3.33 6.537-5.936a97.4 97.4 0 0 0 7.249-8.489c2.328-3.054 4.395-6.047 6.197-8.977 1.803-2.929 2.703-4.669 2.703-5.221 0-.35-.138-.801-.413-1.353-.274-.55-.589-1.001-.938-1.352l.149-.449zm11.719 33.128c.551 0 1.052.14 1.503.414.45.275 1.025.665 1.728 1.164.701.503 1.266.939 1.69 1.315.425.375.638.864.638 1.465 0 .5-.187 1.039-.563 1.614a47.454 47.454 0 0 1-1.238 1.802 19.91 19.91 0 0 0-1.127 1.729c-.301.524-.703 1.213-1.202 2.063.3.354.551.703.751 1.054.2.35.301.801.301 1.352 0 .401-.251.675-.752.825s-1.177.229-2.028.229c-.449 0-1.252-.039-2.403-.113-1.152-.075-1.979-.114-2.479-.114-1.054 0-2.028.039-2.931.114-.902.074-1.753.213-2.555.412 0 .201.024.488.074.865.051.375.075.738.075 1.09 0 .197-.088.412-.263.637-.176.227-.389.34-.639.34-.401 0-.864-.125-1.39-.376-.526-.252-1.091-.626-1.689-1.127a8.142 8.142 0 0 1-1.615-1.841c-.478-.727-.814-1.563-1.015-2.518-.15-.701-.39-1.414-.715-2.142a32.718 32.718 0 0 0-1.238-2.44c-.501-.902-.854-1.59-1.053-2.065-.2-.476-.301-.914-.301-1.313 0-.352.4-.853 1.202-1.504.801-.649 1.527-.977 2.179-.977.2-.05.413-.05.64 0 .226.05.438.177.639.376 1.101-.15 3.342-.464 6.723-.939 3.381-.475 5.474-.764 6.272-.864.15-.05.526-.148 1.127-.299a6.855 6.855 0 0 1 1.654-.228zm-4.055-9.089c1.053 0 2.104.2 3.154.601 1.052.402 1.577.952 1.577 1.652 0 .452-.375.84-1.127 1.165-.751.326-1.892.702-3.417 1.127a50.126 50.126 0 0 1-4.32 1.015c-1.352.251-2.604.376-3.755.376-1.304 0-2.417-.15-3.344-.451-.927-.301-1.815-.925-2.667-1.879v-.375c1.503-.301 4.029-.913 7.587-1.841 3.555-.926 5.66-1.39 6.312-1.39zm-10.217 14.949c.35.802.712 1.604 1.088 2.404.377.801.839 1.776 1.391 2.93a61.44 61.44 0 0 1 3.832-.489 38.552 38.552 0 0 1 3.605-.187 192.817 192.817 0 0 0 1.464-3.759c.376-1 .563-1.927.563-2.778 0-.197-.088-.338-.262-.412-.178-.076-.413-.112-.716-.112-1.604 0-3.268.237-4.995.714s-3.716 1.039-5.97 1.689z"/></g><g fill="#FFF"><path d="M64.701 66.827c0-1.729.507-3.152 1.521-4.272.896-.992 2.081-1.505 3.554-1.537.608 0 1.376.256 2.305.77l.593-.337h.208l.768 2.802h-.399c-.491-1.004-1.051-1.718-1.681-2.146a3.64 3.64 0 0 0-1.793-.56c-1.12 0-2.055.411-2.801 1.231-.875 1.024-1.318 2.293-1.329 3.811 0 1.602.385 2.924 1.152 3.969.736.961 1.777 1.445 3.121 1.457.608 0 1.195-.197 1.761-.593.641-.446 1.243-1.243 1.809-2.385l.465.272c-.673 1.279-1.36 2.166-2.065 2.656-.607.416-1.43.629-2.465.641-1.344 0-2.465-.545-3.361-1.633-.876-1.088-1.331-2.469-1.363-4.146zM79.728 71.471v-8.885c0-.128-.069-.234-.208-.32-.106-.063-.432-.096-.976-.096v-.513c.554 0 1.227-.208 2.017-.624v5.427c.096-.16.267-.337.512-.528.576-.513 1.313-.772 2.209-.785.641 0 1.137.172 1.488.514.32.331.491.796.513 1.393v4.418c0 .172.021.299.063.385.032.094.129.143.288.143h.993v.512h-3.474V72h.769c.17 0 .31-.044.416-.129.042-.043.08-.176.112-.398v-4.418c0-.363-.134-.693-.4-.992-.256-.256-.614-.391-1.072-.4-.513 0-1.063.208-1.649.624a2.06 2.06 0 0 0-.768 1.137v4.05c0 .191.031.324.096.399.042.063.134.106.272.129h.72v.513h-3.104v-.513h.735c.129 0 .24-.044.337-.129.041-.047.079-.18.111-.402zM97.604 66.684v4.834c0 .16.054.276.16.353.128.063.304.106.528.129h.704v.512h-2.225v-1.138l-.24.226c-.715.65-1.467.986-2.257 1.008-.544 0-.987-.16-1.328-.479-.331-.353-.507-.881-.528-1.585v-3.857a.407.407 0 0 0-.145-.319c-.074-.063-.422-.097-1.04-.097v-.513c.576 0 1.248-.202 2.017-.608v4.898c0 .717.122 1.237.368 1.568.224.225.528.353.912.385.522 0 1.131-.293 1.825-.881.074-.063.149-.141.224-.225.064-.063.128-.145.192-.239v-3.97c0-.192-.106-.315-.32-.369a2.524 2.524 0 0 0-.32-.031h-.24a3.08 3.08 0 0 1-.271-.016v-.514c.544 0 1.206-.203 1.984-.607v1.535zM104.771 71.484V66.73a.355.355 0 0 0-.16-.304c-.064-.063-.406-.102-1.024-.112v-.512c.576 0 1.248-.22 2.017-.656v1.232c.064-.064.134-.14.208-.225.074-.063.16-.141.256-.225.576-.513 1.313-.772 2.209-.785.641 0 1.126.178 1.457.528.352.386.528.908.528 1.569v4.209c0 .14.054.268.16.385.063.075.197.128.399.16h.625v.512h-3.138v-.512h.561c.16 0 .293-.055.399-.16a.573.573 0 0 0 .16-.385V67.24a1.87 1.87 0 0 0-.336-1.073c-.267-.319-.667-.491-1.2-.512-.513 0-1.041.208-1.585.624a2.073 2.073 0 0 0-.704 1.041v4.16c0 .172.038.301.112.385.042.064.149.107.32.129h.607v.512h-3.009v-.512h.464c.257 0 .427-.044.513-.129a.55.55 0 0 0 .161-.381zM122.055 66.012c.619.704.944 1.682.977 2.93 0 1.066-.314 1.988-.944 2.77-.608.715-1.44 1.088-2.497 1.12-1.099 0-1.963-.373-2.593-1.12-.641-.77-.961-1.691-.961-2.77 0-1.195.342-2.162 1.024-2.897.704-.735 1.547-1.114 2.529-1.136.96-.002 1.782.366 2.465 1.103zm-4.37.288c-.479.544-.726 1.425-.735 2.642 0 .906.224 1.701.672 2.385.416.641 1.072.961 1.969.961.8 0 1.414-.32 1.841-.961.416-.641.64-1.436.672-2.385 0-1.186-.24-2.064-.72-2.642-.448-.522-1.046-.806-1.793-.849-.737 0-1.372.283-1.906.849zM133.992 66.684v4.834c0 .16.054.276.16.353.128.063.304.106.528.129h.704v.512h-2.225v-1.138l-.24.226c-.715.65-1.467.986-2.257 1.008-.545 0-.987-.16-1.329-.479-.33-.353-.506-.881-.528-1.585v-3.857a.41.41 0 0 0-.144-.319c-.074-.063-.422-.097-1.04-.097v-.513c.576 0 1.248-.202 2.017-.608v4.898c0 .717.122 1.237.368 1.568.224.225.528.353.912.385.522 0 1.131-.293 1.825-.881.074-.063.149-.141.224-.225.064-.063.128-.145.192-.239v-3.97c0-.192-.106-.315-.32-.369a2.548 2.548 0 0 0-.32-.031h-.24a3.08 3.08 0 0 1-.271-.016v-.514c.544 0 1.206-.203 1.984-.607v1.535zM154.298 65.691v5.634c0 .225.048.389.144.495.074.098.24.156.496.178h.929v.512h-3.985v-.512h.896c.224 0 .395-.061.512-.178.074-.074.134-.239.176-.495v-5.634h-2.017v-.514h2.017v-.656c0-1.185.203-2.084.608-2.705.353-.512.891-.771 1.617-.783a2.68 2.68 0 0 1 1.616.513c.416.3.635.704.656 1.216a.482.482 0 0 1-.176.368c-.032.013-.086.032-.16.063-.042.012-.106.027-.192.049a.517.517 0 0 1-.352-.145c-.097-.076-.16-.203-.192-.385v-.16c0-.063.006-.111.016-.144a.792.792 0 0 0-.271-.593c-.171-.191-.48-.293-.929-.305-.49 0-.843.165-1.057.496-.224.385-.342 1.004-.352 1.856v1.313h2.112v.513h-2.112v.003zM168.572 66.012c.618.704.944 1.682.976 2.93 0 1.066-.314 1.988-.944 2.77-.607.715-1.44 1.088-2.496 1.12-1.1 0-1.964-.373-2.594-1.12-.64-.77-.96-1.691-.96-2.77 0-1.195.342-2.162 1.024-2.897.704-.735 1.547-1.114 2.529-1.136.96-.002 1.783.366 2.465 1.103zm-4.37.288c-.48.544-.726 1.425-.736 2.642 0 .906.225 1.701.673 2.385.416.641 1.072.961 1.969.961.8 0 1.414-.32 1.84-.961.417-.641.641-1.436.673-2.385 0-1.186-.24-2.064-.721-2.642-.448-.522-1.046-.806-1.792-.849-.737 0-1.372.283-1.906.849zM175.339 71.391v-4.755a.353.353 0 0 0-.176-.319c-.139-.064-.48-.096-1.024-.096v-.514c.608 0 1.286-.188 2.033-.561v1.551a2.34 2.34 0 0 1 .271-.399c.097-.097.203-.191.32-.288.587-.545 1.211-.833 1.873-.864.427 0 .736.097.929.289.159.158.25.362.271.606 0 .128-.054.24-.16.337a.965.965 0 0 1-.399.128.75.75 0 0 1-.625-.288c-.16-.16-.373-.244-.64-.257-.353 0-.694.16-1.024.479-.288.289-.561.709-.816 1.266v3.682c0 .235.042.399.128.496.063.063.208.102.432.112h.608v.512h-3.185v-.512h.432c.225 0 .416-.044.576-.129.107-.06.166-.221.176-.476zM189.966 68.62h-4.706v.353c0 .896.294 1.696.881 2.4.512.607 1.136.913 1.872.913.395 0 .801-.117 1.217-.353.32-.192.763-.672 1.328-1.44l.417.304c-.641.833-1.19 1.383-1.649 1.648-.384.225-.88.342-1.488.353-.96 0-1.755-.341-2.385-1.024-.672-.769-1.014-1.7-1.024-2.801 0-1.057.282-1.957.849-2.705.672-.844 1.473-1.279 2.4-1.313.864 0 1.591.324 2.177.977.619.672.939 1.568.961 2.688H189.966zm-4.658-.513h4.643c-.064-.863-.288-1.521-.673-1.969-.362-.416-.896-.641-1.601-.673-.618 0-1.168.293-1.648.882-.384.449-.625 1.036-.721 1.76zM198.702 69.133c-1.217-.268-2.001-.598-2.354-.992-.288-.32-.438-.748-.447-1.281 0-.459.224-.9.672-1.327.395-.32.918-.501 1.568-.544.544 0 1.099.158 1.665.479l.32-.367h.16l.815 2.049h-.352c-.353-.588-.747-1.014-1.185-1.28-.384-.224-.858-.349-1.425-.368-.448 0-.816.145-1.104.434-.234.224-.362.531-.384.928 0 .3.096.556.288.769.224.224.811.448 1.761.672 1.024.257 1.69.572 2.001.944.319.385.49.893.512 1.521 0 .576-.234 1.067-.704 1.473-.448.353-1.014.533-1.696.545-.619 0-1.271-.221-1.953-.656l-.368.432h-.272l-.656-2.209.288-.08c.353.705.807 1.218 1.361 1.537.49.289 1.024.443 1.601.465.458 0 .848-.133 1.168-.4.32-.256.48-.587.48-.992 0-.363-.106-.688-.32-.977-.223-.297-.704-.553-1.44-.775zM208.047 65.771v4.834c0 .512.058.896.176 1.151.128.224.368.341.72.353.417 0 .929-.348 1.537-1.041l.368.369c-.48.512-.87.832-1.169.959a2.959 2.959 0 0 1-.416.129c-.16.031-.33.06-.512.08-.522 0-.907-.172-1.152-.513-.225-.319-.353-.815-.385-1.487v-4.834h-1.424v-.514c.607 0 1.051-.191 1.328-.576.288-.384.438-1.285.448-2.705h.48v3.281h2.128v.514h-2.127zM232.93 66.012c.618.704.944 1.682.977 2.93 0 1.066-.314 1.988-.944 2.77-.608.715-1.44 1.088-2.497 1.12-1.099 0-1.963-.373-2.593-1.12-.641-.77-.961-1.691-.961-2.77 0-1.195.342-2.162 1.024-2.897.704-.735 1.547-1.114 2.529-1.136.96-.002 1.782.366 2.465 1.103zm-4.37.288c-.479.544-.726 1.425-.736 2.642 0 .906.225 1.701.673 2.385.416.641 1.072.961 1.969.961.8 0 1.414-.32 1.841-.961.416-.641.64-1.436.672-2.385 0-1.186-.24-2.064-.72-2.642-.448-.522-1.047-.806-1.793-.849-.737 0-1.372.283-1.906.849zM248.356 66.221l-2.064 6.401h-.32l-2.081-5.556-1.601 5.442h-.288l-.016-.048-2.497-6.291a.66.66 0 0 0-.225-.288.718.718 0 0 0-.352-.11h-.433v-.514h2.689v.514h-.32c-.299 0-.475.053-.528.16a.307.307 0 0 0 0 .238l1.889 4.834 1.408-4.705h.017c.032-.16.021-.288-.032-.385-.042-.063-.166-.111-.368-.145h-.608v-.513h2.673v.513h-.368c-.224 0-.378.054-.464.16-.042.075-.048.196-.016.368l1.761 4.737 1.616-4.817a.865.865 0 0 0-.016-.305c-.032-.063-.139-.111-.32-.144h-.593v-.514h2.642v.514h-.336c-.225 0-.422.035-.593.11a.72.72 0 0 0-.256.344zM255.316 71.484V66.73a.358.358 0 0 0-.16-.304c-.064-.063-.406-.102-1.024-.112v-.512c.576 0 1.249-.22 2.017-.656v1.232c.064-.064.135-.14.209-.225.074-.063.16-.141.256-.225.576-.513 1.313-.772 2.209-.785.641 0 1.126.178 1.457.528.353.386.527.908.527 1.569v4.209c0 .14.053.268.16.385.063.075.197.128.4.16h.623v.512h-3.137v-.512h.561a.55.55 0 0 0 .4-.16.592.592 0 0 0 .16-.385V67.24c0-.385-.113-.741-.338-1.073-.267-.319-.666-.491-1.199-.512-.513 0-1.041.208-1.586.624a2.059 2.059 0 0 0-.703 1.041v4.16c0 .172.037.301.111.385.042.064.149.107.319.129h.608v.512h-3.01v-.512h.465c.256 0 .426-.044.512-.129a.538.538 0 0 0 .163-.381zM272.119 68.62h-4.705v.353c0 .896.293 1.696.88 2.4.513.607 1.138.913 1.872.913.395 0 .801-.117 1.217-.353.32-.192.764-.672 1.329-1.44l.416.304c-.64.833-1.19 1.383-1.649 1.648-.383.225-.879.342-1.487.353-.96 0-1.755-.341-2.386-1.024-.672-.769-1.014-1.7-1.022-2.801 0-1.057.281-1.957.849-2.705.672-.844 1.473-1.279 2.399-1.313.864 0 1.591.324 2.178.977.618.672.938 1.568.96 2.688h-.851zm-4.657-.513h4.642c-.063-.863-.287-1.521-.672-1.969-.363-.416-.896-.641-1.602-.673-.618 0-1.168.293-1.648.882-.384.449-.623 1.036-.72 1.76zM278.936 71.391v-4.755a.353.353 0 0 0-.177-.319c-.138-.064-.479-.096-1.024-.096v-.514c.608 0 1.287-.188 2.033-.561v1.551a2.4 2.4 0 0 1 .271-.399c.096-.097.203-.191.32-.288.586-.545 1.211-.833 1.873-.864.426 0 .735.097.928.289.16.158.251.362.271.606 0 .128-.054.24-.16.337a.966.966 0 0 1-.398.128.75.75 0 0 1-.625-.288c-.16-.16-.373-.244-.641-.257-.353 0-.693.16-1.023.479-.289.289-.561.709-.816 1.266v3.682c0 .235.043.399.129.496.063.063.207.102.433.112h.606v.512h-3.186v-.512h.434c.224 0 .416-.044.575-.129.106-.06.165-.221.177-.476zM290.938 59.753c.158.117.267.336.318.656.098.789-.063 1.425-.479 1.903-.405.438-.938.77-1.602.994l-.225-.4c.641-.225 1.083-.508 1.328-.85.16-.224.252-.41.272-.561 0-.096-.075-.148-.225-.159a.947.947 0 0 1-.642-.239c-.148-.16-.24-.391-.271-.688 0-.257.08-.476.239-.656.16-.16.385-.245.673-.256.196 0 .399.085.614.256zM300.568 69.133c-1.217-.268-2-.598-2.354-.992-.288-.32-.438-.748-.447-1.281 0-.459.225-.9.672-1.327.395-.32.918-.501 1.568-.544.544 0 1.1.158 1.665.479l.32-.367h.159l.815 2.049h-.353c-.353-.588-.746-1.014-1.185-1.28-.385-.224-.858-.349-1.425-.368-.448 0-.815.145-1.104.434-.234.224-.363.531-.386.928 0 .3.098.556.289.769.225.224.812.448 1.761.672 1.024.257 1.69.572 2.002.944.318.385.489.893.512 1.521 0 .576-.234 1.067-.705 1.473-.447.353-1.014.533-1.695.545-.618 0-1.271-.221-1.953-.656l-.368.432h-.271l-.655-2.209.287-.08c.354.705.807 1.218 1.36 1.537.49.289 1.024.443 1.602.465.458 0 .849-.133 1.168-.4.32-.256.48-.587.48-.992 0-.363-.107-.688-.32-.977-.222-.297-.702-.553-1.439-.775zM320.298 71.9c-.768-.769-1.151-1.793-1.151-3.072 0-1.152.385-2.102 1.151-2.85.684-.641 1.547-.977 2.593-1.008.608 0 1.176.196 1.697.592.512.416.778.924.8 1.521a.549.549 0 0 1-.159.368 2.2 2.2 0 0 1-.367.11c-.16 0-.283-.043-.368-.127-.098-.063-.15-.188-.16-.369 0-.063.01-.144.031-.239 0-.031.006-.075.017-.128 0-.043.006-.085.016-.129 0-.202-.144-.437-.432-.703-.234-.225-.593-.354-1.073-.385-.704 0-1.344.283-1.92.849-.576.576-.875 1.323-.896 2.241 0 1.228.299 2.16.896 2.801.544.545 1.168.828 1.872.85.448 0 .854-.134 1.217-.4.32-.225.722-.672 1.2-1.346l.434.306c-.514.8-1.03 1.345-1.554 1.633-.447.256-.949.39-1.505.399-.941-.001-1.72-.304-2.339-.914zM336.317 66.012c.617.704.943 1.682.977 2.93 0 1.066-.315 1.988-.944 2.77-.607.715-1.44 1.088-2.497 1.12-1.1 0-1.964-.373-2.594-1.12-.64-.77-.96-1.691-.96-2.77 0-1.195.342-2.162 1.024-2.897.704-.735 1.547-1.114 2.528-1.136.962-.002 1.784.366 2.466 1.103zm-4.37.288c-.48.544-.727 1.425-.736 2.642 0 .906.225 1.701.673 2.385.416.641 1.072.961 1.969.961.801 0 1.414-.32 1.842-.961.416-.641.64-1.436.672-2.385 0-1.186-.24-2.064-.722-2.642-.447-.522-1.046-.806-1.792-.849-.737 0-1.372.283-1.906.849zM347.902 66.012c.619.704.943 1.682.977 2.93 0 1.066-.313 1.988-.944 2.77-.607.715-1.439 1.088-2.497 1.12-1.099 0-1.963-.373-2.593-1.12-.641-.77-.961-1.691-.961-2.77 0-1.195.342-2.162 1.024-2.897.704-.735 1.547-1.114 2.528-1.136.961-.002 1.784.366 2.466 1.103zm-4.369.288c-.48.544-.728 1.425-.736 2.642 0 .906.225 1.701.672 2.385.416.641 1.072.961 1.969.961.801 0 1.414-.32 1.842-.961.416-.641.64-1.436.672-2.385 0-1.186-.24-2.064-.72-2.642-.448-.522-1.047-.806-1.794-.849-.737 0-1.372.283-1.905.849zM354.688 73.854V66.78a.67.67 0 0 0-.049-.225c-.012-.063-.063-.123-.16-.176a2.111 2.111 0 0 0-.367-.111c-.16-.013-.373-.021-.642-.033v-.495c.48 0 1.164-.24 2.049-.722v1.041c.032-.063.124-.145.272-.24a3.607 3.607 0 0 1 2.272-.832c.864 0 1.604.38 2.226 1.137.512.65.779 1.484.8 2.497 0 1.26-.368 2.226-1.104 2.897-.619.556-1.36.844-2.226.863-.684 0-1.35-.256-2.001-.77a.853.853 0 0 1-.24-.239v2.481c0 .16.037.283.112.367a.739.739 0 0 0 .336.145h.673v.527h-3.072v-.527h.527a.76.76 0 0 0 .433-.129c.096-.061.149-.189.161-.382zm4.577-2.577c.619-.608.949-1.493.992-2.657 0-.864-.224-1.601-.672-2.209-.428-.576-1.004-.88-1.729-.912-.576 0-1.147.213-1.713.642-.3.224-.508.495-.625.815v3.585c.098.256.272.496.528.721.545.396 1.116.598 1.713.607.556 0 1.057-.196 1.506-.592zM371.218 68.62h-4.706v.353c0 .896.293 1.696.881 2.4.513.607 1.138.913 1.872.913.396 0 .802-.117 1.218-.353.319-.192.764-.672 1.328-1.44l.416.304c-.641.833-1.188 1.383-1.648 1.648-.384.225-.88.342-1.488.353-.96 0-1.756-.341-2.385-1.024-.672-.769-1.014-1.7-1.024-2.801 0-1.057.283-1.957.85-2.705.672-.844 1.473-1.279 2.399-1.313.864 0 1.59.324 2.178.977.619.672.938 1.568.961 2.688H371.218zm-4.658-.513h4.644c-.064-.863-.288-1.521-.673-1.969-.363-.416-.896-.641-1.602-.673-.619 0-1.168.293-1.647.882-.386.449-.626 1.036-.722 1.76zM378.033 71.391v-4.755a.359.359 0 0 0-.176-.319c-.141-.064-.48-.096-1.024-.096v-.514c.608 0 1.285-.188 2.032-.561v1.551a2.4 2.4 0 0 1 .271-.399c.097-.097.203-.191.32-.288.587-.545 1.212-.833 1.872-.864.428 0 .736.097.929.289.16.158.251.362.272.606 0 .128-.054.24-.16.337a.965.965 0 0 1-.4.128c-.268 0-.476-.097-.624-.288-.16-.16-.373-.244-.641-.257-.352 0-.692.16-1.024.479-.288.289-.56.709-.815 1.266v3.682c0 .235.044.399.129.496.063.063.208.102.432.112h.608v.512h-3.187v-.512h.434c.224 0 .416-.044.576-.129.108-.06.165-.221.176-.476zM387.906 69.404c.704-.545 2.032-.949 3.984-1.217V67.18c0-.479-.191-.885-.575-1.217a2.222 2.222 0 0 0-1.266-.479c-.479 0-.892.133-1.231.398-.257.225-.396.438-.416.641 0 .076.005.134.016.177 0 .032.005.063.017.097 0 .043.005.08.017.111 0 .129-.064.244-.192.353-.063.064-.165.097-.304.097a.573.573 0 0 1-.368-.145.522.522 0 0 1-.145-.385c0-.447.208-.848.625-1.2.512-.416 1.173-.636 1.983-.655.77 0 1.42.229 1.953.688.479.416.72.917.72 1.505v3.617c0 .64.032 1.067.097 1.28.044.14.111.213.209.225.128 0 .299-.277.512-.833l.464.239a2.38 2.38 0 0 1-.398.802c-.107.19-.354.299-.736.319a.957.957 0 0 1-.656-.239c-.16-.13-.262-.466-.305-1.009a5.65 5.65 0 0 0-.208.224l-.225.226c-.673.512-1.488.778-2.448.799-.576 0-1.072-.19-1.488-.575-.268-.319-.405-.753-.417-1.296-.004-.612.258-1.125.781-1.541zm3.986-.704c-1.516.256-2.604.608-3.266 1.057-.448.3-.672.693-.672 1.185 0 .353.128.668.384.944.269.257.608.39 1.024.4.607 0 1.228-.229 1.855-.688.332-.268.557-.623.673-1.072l.002-1.826zM400.852 65.771v4.834c0 .512.061.896.177 1.151.129.224.368.341.721.353.416 0 .929-.348 1.536-1.041l.368.369c-.479.512-.869.832-1.168.959a3.001 3.001 0 0 1-.416.129c-.16.031-.331.06-.514.08-.522 0-.906-.172-1.151-.513-.225-.319-.353-.815-.385-1.487v-4.834h-1.425v-.514c.608 0 1.053-.191 1.329-.576.288-.384.438-1.285.447-2.705h.479v3.281h2.13v.514h-2.128zM409.828 71.471v-4.803c0-.107-.061-.204-.176-.288-.064-.063-.396-.103-.993-.112v-.513c.545 0 1.206-.203 1.984-.608v6.324c0 .127.06.256.177.383.096.097.251.146.464.146h.943v.512h-4.001V72h.96a.797.797 0 0 0 .466-.146.638.638 0 0 0 .176-.383zm-.368-10.262a.739.739 0 0 1 .496-.208c.224 0 .411.069.561.208a.84.84 0 0 1 .225.527.677.677 0 0 1-.225.514c-.106.128-.293.208-.561.24a.653.653 0 0 1-.496-.225c-.128-.129-.197-.305-.208-.529 0-.222.068-.398.208-.527zM423.302 66.38l-2.417 6.242h-.271l-2.354-6.228c-.106-.234-.24-.399-.398-.496-.044-.012-.117-.031-.226-.063a2.286 2.286 0 0 1-.288-.063h-.527v-.513h3.186v.513h-.448c-.225 0-.384.063-.479.191-.063.098-.06.24.017.434l1.776 4.642 1.873-4.657c.063-.191.043-.342-.064-.447-.106-.098-.276-.149-.512-.16h-.465v-.515h2.896v.514h-.479c-.171 0-.336.043-.496.127-.132.04-.239.203-.324.479zM434.728 68.62h-4.705v.353c0 .896.293 1.696.88 2.4.513.607 1.137.913 1.873.913.396 0 .801-.117 1.217-.353.32-.192.764-.672 1.328-1.44l.416.304c-.641.833-1.189 1.383-1.648 1.648-.384.225-.88.342-1.488.353-.961 0-1.756-.341-2.385-1.024-.673-.769-1.014-1.7-1.023-2.801 0-1.057.282-1.957.848-2.705.673-.844 1.473-1.279 2.401-1.313.863 0 1.589.324 2.177.977.619.672.938 1.568.96 2.688h-.851zm-4.659-.513h4.642c-.063-.863-.288-1.521-.672-1.969-.363-.416-.896-.641-1.602-.673-.618 0-1.169.293-1.647.882-.385.449-.625 1.036-.721 1.76z"/></g></svg>