<svg xmlns="http://www.w3.org/2000/svg" width="157.961" height="63.03" xml:space="preserve"><path fill="#006451" d="M63.444 23.569H50.259c-4.578 0-5.893 4.533-5.893 4.533l-1.65 5.642s-1.316 4.563 3.262 4.563h13.187c4.578 0 5.942-4.563 5.942-4.563l1.648-5.642c.001 0 1.3-4.533-3.311-4.533zM54.828 35.53h-2.891c-.48 0-.34-.479-.34-.479l2.406-8.23s.14-.476.628-.476h2.882c.49 0 .355.476.355.476l-2.404 8.221c.001 0-.132.488-.636.488zM87.674 23.569h-13.19c-4.603 0-5.947 4.578-5.947 4.578l-2.838 9.711c-.074.248.072.449.32.449h8.357c.249 0 .511-.201.586-.449l3.225-11.035s.158-.478.623-.478h2.889c.5 0 .354.478.354.478l-1.479 5.053c-.072.246.072.448.324.448h8.354c.25 0 .512-.202.584-.448l1.094-3.74c0 .001 1.336-4.567-3.256-4.567zM127.277 26.345h10.666c.25 0 .514-.202.586-.448l.549-1.88c.072-.247-.07-.448-.32-.448h-16.775c-4.039 0-4.805 3.799-4.805 3.799s-1.393 4.957 3.225 4.957h6.49c.496 0 .354.459.354.459l-.66 2.264s-.133.482-.631.482h-10.664a.65.65 0 0 0-.584.45l-.551 1.878c-.07.248.074.449.324.449h15.826c5.201 0 5.822-4.087 5.822-4.087s1.324-4.674-3.26-4.674h-6.527c-.48 0-.352-.496-.352-.496l.654-2.225c.001.001.153-.48.633-.48zM155.309 26.345c.25 0 .512-.202.586-.448l.547-1.88c.074-.247-.07-.448-.32-.448h-5.932l1.33-4.553c.072-.249-.072-.447-.32-.447h-8.355a.647.647 0 0 0-.584.447l-4.314 14.737s-1.324 4.555 3.289 4.555h12.391c.248 0 .51-.201.584-.449l.549-1.878c.072-.25-.074-.45-.32-.45h-7.262c-.479 0-.344-.488-.344-.488l2.543-8.696h5.932zM44.356 21.345a.652.652 0 0 0 .583-.445l.549-1.881c.074-.249-.07-.45-.32-.45H30.25c-1.403 0-1.818 1.405-1.818 1.405l-5.229 17.884c-.073.248.073.449.323.449h8.354a.652.652 0 0 0 .585-.449l2.556-8.737h7.06c.25 0 .514-.201.586-.449l.551-1.879c.07-.246-.074-.447-.324-.447h-7.061l1.465-5h7.058zM115.051 28.653l.152-.518s1.354-4.566-3.268-4.566H98.761c-4.602 0-5.941 4.549-5.941 4.549l-1.643 5.619s-1.328 4.57 3.27 4.57h17.326a.66.66 0 0 0 .588-.449l.549-1.878c.072-.25-.074-.45-.324-.45H100.4c-.482 0-.344-.483-.344-.483l2.404-8.217s.139-.484.625-.484h2.885c.488 0 .354.484.354.484l-.654 2.23s-.141.487-.633.487h-1.434c-.455 0-.582.446-.582.446l-.555 1.887s-.125.445.326.445h6.576c4.628-.001 5.683-3.672 5.683-3.672z"/><path fill="#663A1F" d="M27.285 10.724c.1-.334-.098-.608-.437-.608H9.418c-.339 0-.697.274-.794.608l-.747 2.551c-.098.333.1.609.438.609h7.002L10.389 30.72c-1.434 4.419-4.844 6.743-7.653 7.943-.249.177-.49.597-.586.926l-.604 2.063c-.185.627.217.619.416.611 9.057-.342 17.996-6.483 20.617-15.443.03-.095 4.706-16.096 4.706-16.096z"/><path fill="#6FB92C" d="M141.652 15.878C128.904 8.458 108.725 1.5 86 1.5S43.094 8.458 30.348 15.878C44.01 10.157 63.879 4.447 86 4.447c22.119 0 41.988 5.71 55.652 11.431z"/><path d="M36.979 50.884h5.141v6.835h-1.387v-.77h-3.754v4.552h-1.371V56.95h-3.672v.84h-1.33v-6.905h5.002V48.39l1.723.099c-.016.112-.113.196-.352.238v2.157zm-5.043 4.763h3.672v-3.46h-3.672v3.46zm5.043 0h3.754v-3.46h-3.754v3.46zM47.307 52.313c.828.322 1.863.868 2.383 1.33l-.785 1.079c-.49-.462-1.498-1.064-2.34-1.429l.742-.98zm-.434 8.292a45.07 45.07 0 0 0 2.045-4.538l1.051.729a45.846 45.846 0 0 1-1.779 4.202c.07.084.098.182.098.266a.389.389 0 0 1-.041.169l-1.374-.828zm1.121-12.103c.799.364 1.82.953 2.311 1.415l-.799 1.064c-.461-.477-1.455-1.12-2.268-1.526l.756-.953zm10.772 9.596.785.756c-.043.042-.113.057-.184.057-.041 0-.084 0-.125-.015a13.28 13.28 0 0 1-1.484.743c.588.405 1.303.7 2.1.868a4.24 4.24 0 0 0-.742 1.009c-1.148-.309-2.086-.869-2.814-1.625l.027.784c-1.443.224-2.941.42-3.895.546a.249.249 0 0 1-.209.196l-.436-1.219.98-.098v-2.003h-.994c-.195 1.19-.574 2.423-1.33 3.39-.211-.21-.742-.547-1.023-.673 1.191-1.456 1.346-3.487 1.346-4.916v-1.835h8.854v.994H51.93v.854c0 .378-.014.784-.041 1.205h7.83v.98h-.953zm.238-8.6v3.978h-7.957v-3.978h2.283V48.39l1.359.085c-.014.111-.111.182-.295.21v.813h1.135V48.39l1.373.085c-.014.111-.084.182-.293.21v.813h2.395zm-6.779.854v.714h1.105v-.714h-1.105zm0 1.526v.742h1.105v-.742h-1.105zm6.484 4.623H52.42v-.827h6.289v.827zm-4.748 1.597v1.877c.701-.07 1.457-.154 2.213-.238a6.123 6.123 0 0 1-1.035-1.639h-1.178zm1.568-7.746h-1.135v.714h1.135v-.714zm0 1.526h-1.135v.742h1.135v-.742zm.772 6.22c.209.35.447.672.742.966a12.403 12.403 0 0 0 1.555-.966h-2.297zm1.484-7.032v-.714h-1.176v.714h1.176zm0 1.555v-.742h-1.176v.742h1.176zM67.344 56.977v.406a49.057 49.057 0 0 1 2.002 1.373l-.783.994c-.252-.28-.742-.742-1.219-1.162v2.928h-1.246v-3.278c-.59 1.051-1.318 1.989-2.145 2.55-.111-.364-.391-.883-.602-1.219.869-.574 1.695-1.541 2.256-2.592H63.59v-1.162h2.508V54.19l1.568.084c-.014.126-.098.196-.322.224v1.317h1.975v1.162h-1.975zm1.89-2.311v-3.319c-1.205 1.429-2.955 2.605-4.734 3.235a4.44 4.44 0 0 0-.826-1.022c1.555-.49 3.152-1.4 4.244-2.479h-3.629v-1.176h4.945v-1.541l1.652.098c-.014.126-.098.196-.322.225v1.219h5.113v1.176H71.84c1.178 1.037 2.83 1.905 4.482 2.354-.295.252-.672.771-.869 1.093-1.807-.616-3.627-1.793-4.889-3.208v3.348h-1.33zm7.159 2.311H74.11c.672 1.135 1.652 2.241 2.576 2.857-.293.238-.713.715-.938 1.051-.813-.7-1.639-1.821-2.27-3.039v3.67h-1.26v-3.643c-.701 1.274-1.625 2.382-2.648 3.054a5.016 5.016 0 0 0-.826-.967c1.078-.616 2.102-1.736 2.773-2.983h-1.652v-1.162h2.354V54.19l1.582.084c-.014.126-.111.196-.322.238v1.303h2.914v1.162zM84.145 53.658c.518.49 1.82 1.904 2.115 2.269l-.813 1.121c-.268-.448-.813-1.177-1.303-1.821v6.275h-1.303v-6.415c-.574 1.541-1.318 2.983-2.102 3.908-.141-.379-.463-.925-.688-1.261 1.037-1.177 2.061-3.236 2.578-5.099h-2.227v-1.261h2.438V48.39l1.625.085c-.016.126-.1.195-.322.237v2.662h2.029v1.261h-2.029v1.023zm9.103-1.023h-2.451c.631 2.115 1.668 4.3 2.76 5.519-.322.225-.77.687-1.008 1.037-.813-1.065-1.541-2.689-2.129-4.427v6.737h-1.332v-6.485c-.756 1.779-1.75 3.418-2.828 4.469-.154-.393-.52-.896-.758-1.219 1.373-1.289 2.662-3.474 3.348-5.631h-2.227v-1.261h2.465V48.39l1.668.085c-.014.126-.113.195-.336.237v2.662h2.828v1.261zM98.996 56.879c-.041.126-.154.168-.309.154-.154 1.176-.461 2.521-.867 3.348a7.557 7.557 0 0 0-.953-.463c.379-.784.631-2.114.785-3.348l1.344.309zm2.984-.616a7.31 7.31 0 0 0-.238-.687l-1.289.07v5.869h-1.176v-5.8c-.715.028-1.359.07-1.877.084-.029.126-.141.183-.238.196l-.281-1.373 1.078-.014c.254-.308.52-.658.785-1.022-.42-.63-1.148-1.429-1.779-2.003l.645-.896.365.322c.447-.813.938-1.835 1.219-2.62l1.371.561c-.055.099-.168.141-.336.141a23.03 23.03 0 0 1-1.498 2.661c.266.294.518.574.699.826a24.418 24.418 0 0 0 1.514-2.549l1.316.616c-.055.084-.168.14-.35.14a37.821 37.821 0 0 1-2.717 3.811l2.059-.042a14.87 14.87 0 0 0-.729-1.219l.953-.448c.629.882 1.303 2.073 1.539 2.857l-1.035.519zm-.154.252c.393.826.756 1.919.91 2.633-.295.099-.588.211-1.064.364-.127-.714-.49-1.82-.854-2.675l1.008-.322zm7.313 3.39h.994v1.205h-8.236v-1.205h1.373V49.063h5.869v10.842zm-1.332-9.637h-3.25v2.367h3.25v-2.367zm0 5.967v-2.396h-3.25v2.396h3.25zm-3.25 1.205v2.465h3.25V57.44h-3.25zM116.818 53.181a19.821 19.821 0 0 1-2.297 1.457 7.107 7.107 0 0 0-.813-1.051c2.451-1.232 4.818-3.404 5.912-5.211l1.834.112c-.041.14-.168.224-.336.252 1.373 1.849 3.838 3.712 5.996 4.65-.322.336-.631.784-.869 1.19a18.946 18.946 0 0 1-2.311-1.442v1.036h-7.117v-.993zm-.812 8.349v-5.743h8.797v5.743h-1.357v-.561h-6.137v.561h-1.303zm7.719-8.545c-1.359-1.009-2.605-2.171-3.404-3.264-.729 1.051-1.891 2.228-3.25 3.264h6.654zm-.28 3.992h-6.137v2.802h6.137v-2.802z"/></svg>