<svg xmlns="http://www.w3.org/2000/svg" xml:space="preserve" width="50" height="50"><path fill="#FFF" d="M25 9.375c-6.959 0-12.207 3.014-12.207 7.012v17.227c0 3.996 5.248 7.012 12.207 7.012 6.959 0 12.207-3.016 12.207-7.012V16.387c0-3.998-5.248-7.012-12.207-7.012zm8 12.387c.043-.02.082-.044.125-.065.259-.128.513-.259.752-.399v3.675c0 1.573-3.376 3.768-8.877 3.768-5.5 0-8.877-2.194-8.877-3.768v-3.684C18.314 22.603 21.428 23.4 25 23.4c3.085 0 5.826-.598 7.929-1.607.024-.011.049-.02.071-.031zm-16.877 8.11c2.191 1.314 5.306 2.112 8.877 2.112 3.097 0 5.847-.602 7.953-1.617l.045-.021c.052-.024.099-.054.151-.079.25-.124.496-.251.729-.388v3.733c0 1.572-3.376 3.768-8.877 3.768-5.5 0-8.877-2.195-8.877-3.768v-3.74zM25 20.154c-5.5 0-8.877-2.193-8.877-3.768 0-1.572 3.377-3.768 8.877-3.768 5.501 0 8.877 2.195 8.877 3.768 0 1.575-3.376 3.768-8.877 3.768z" opacity=".5"/></svg>