<svg xmlns="http://www.w3.org/2000/svg" xml:space="preserve" width="50" height="50"><path fill="#6FB92C" d="M0 0h50v50H0z"/><g fill="#FFF"><path d="M17.398 30.699h.938v1.317h-.329v-.133h-.609v.823h-.33v-.823h-.585v.146h-.316v-1.33h.901v-.458l.403.024c-.003.026-.021.041-.074.05v.384h.001zm-.914.876h.585v-.566h-.585v.566zm.914 0h.609v-.566h-.609v.566zM19.246 30.969c.151.055.342.157.438.24l-.186.253a1.77 1.77 0 0 0-.426-.264l.174-.229zm-.121 1.539c.11-.206.262-.538.376-.847l.251.174c-.102.278-.22.568-.319.77.016.022.021.04.021.058a.085.085 0 0 1-.008.037l-.321-.192zm.249-2.25c.146.065.339.169.433.256l-.188.251a1.729 1.729 0 0 0-.424-.277l.179-.23zm2.021 1.835.144.141a.052.052 0 0 1-.037.013.118.118 0 0 1-.029-.005 2.647 2.647 0 0 1-.227.121c.094.053.201.091.327.115a.962.962 0 0 0-.17.232 1.022 1.022 0 0 1-.517-.301l.005.159a27.25 27.25 0 0 1-.675.091.05.05 0 0 1-.042.042l-.097-.279.162-.013v-.316h-.136c-.037.218-.105.439-.233.608a1.077 1.077 0 0 0-.238-.15c.209-.276.233-.665.233-.931v-.329h1.652v.228H20.14v.104c0 .076-.003.16-.01.249h1.417v.222h-.152v-.001zm.031-1.658v.77h-1.514v-.77h.421v-.189l.309.018c-.003.021-.021.035-.063.043v.129h.151v-.189l.312.018c-.002.021-.019.035-.06.043v.129h.444zm-1.237.192v.102h.144v-.102h-.144zm0 .281v.103h.144v-.103h-.144zm1.177.879h-1.159v-.186h1.159v.186zm-.847.596.319-.028a1.384 1.384 0 0 1-.149-.262h-.17v.29zm.211-1.756h-.152v.102h.152v-.102zm0 .281h-.152v.103h.152v-.103zm.23 1.185c.031.052.07.099.112.141.071-.042.149-.095.215-.141h-.327zm.178-1.364v-.102h-.157v.102h.157zm0 .282v-.103h-.157v.103h.157zM22.922 31.892v.05c.102.063.295.189.347.229l-.182.23c-.038-.043-.1-.104-.165-.168v.474h-.295v-.52c-.1.167-.22.31-.361.404a1.7 1.7 0 0 0-.136-.295c.149-.095.288-.241.387-.405h-.337v-.274h.447v-.282l.361.021c-.002.026-.021.04-.065.047v.215h.339v.274h-.34zm.282-.465v-.563a2.028 2.028 0 0 1-.815.56 1.141 1.141 0 0 0-.193-.243c.264-.081.52-.222.711-.396h-.588v-.276h.886v-.272l.385.021c-.003.026-.023.042-.071.049v.202h.928v.276h-.633c.207.163.476.299.752.371a1.402 1.402 0 0 0-.204.26 2.11 2.11 0 0 1-.844-.56v.57h-.314v.001zm1.373.465h-.378c.12.183.279.354.439.457-.071.061-.17.169-.222.254a1.895 1.895 0 0 1-.358-.481v.586h-.296v-.586a1.424 1.424 0 0 1-.431.487 1.208 1.208 0 0 0-.193-.228 1.31 1.31 0 0 0 .47-.489h-.264v-.274h.418v-.282l.363.021c-.003.026-.023.04-.067.05v.212h.52v.273h-.001zM25.977 31.216c.097.095.33.354.382.419l-.188.265a3.316 3.316 0 0 0-.194-.298v1.105h-.306v-1.064c-.094.246-.209.474-.337.625a1.771 1.771 0 0 0-.159-.306c.188-.212.358-.564.45-.881h-.379v-.296h.426v-.544l.374.021c-.002.026-.021.043-.068.05v.473h.348v.296h-.348v.135zm1.673-.135h-.427c.112.363.296.734.485.957-.072.055-.18.162-.233.242a2.765 2.765 0 0 1-.324-.665v1.092h-.314V31.63c-.129.285-.288.541-.466.716a1.39 1.39 0 0 0-.174-.287c.247-.235.47-.609.593-.978h-.377v-.296h.424v-.544l.387.021c-.002.029-.024.043-.072.053v.47h.499v.296h-.001zM29.17 31.74a.907.907 0 0 0-.037-.118l-.188.013v1.075h-.277v-.848c-.008.017-.026.026-.058.023-.025.215-.075.465-.15.626-.057-.038-.157-.082-.22-.11.064-.144.106-.393.128-.614l.3.07v-.203c-.117.007-.225.012-.311.015a.053.053 0 0 1-.047.039l-.063-.313h.208c.04-.05.079-.103.121-.16a2.202 2.202 0 0 0-.322-.363l.149-.214.058.049c.078-.146.157-.324.201-.462l.313.127c-.011.019-.033.03-.07.03a4.878 4.878 0 0 1-.267.483c.036.039.068.077.098.115a4.66 4.66 0 0 0 .251-.445l.3.139c-.008.019-.034.029-.072.029a6.363 6.363 0 0 1-.476.666l.292-.002a2.909 2.909 0 0 0-.112-.202l.226-.102c.108.167.226.389.266.537l-.241.12zm.032.036c.065.151.133.349.161.478-.075.026-.153.057-.248.091a2.704 2.704 0 0 0-.149-.492l.236-.077zm1.36.58h.175v.283h-1.539v-.283h.236v-1.988h1.128v1.988zm-.317-1.707h-.508v.369h.508v-.369zm0 1.031v-.379h-.508v.379h.508zm-.508.282v.395h.508v-.395h-.508zM31.909 31.181a3.898 3.898 0 0 1-.411.26 1.28 1.28 0 0 0-.193-.252c.452-.223.887-.623 1.08-.947l.421.024c-.008.028-.032.047-.07.052.253.341.702.67 1.097.832a1.435 1.435 0 0 0-.203.282 3.425 3.425 0 0 1-.402-.249v.187h-1.317v-.189h-.002zm-.174 1.531V31.63h1.674v1.082h-.321v-.098h-1.043v.098h-.31zm1.367-1.62a2.85 2.85 0 0 1-.547-.536c-.121.176-.31.362-.529.536h1.076zm-.014.818h-1.042v.428h1.042v-.428z"/></g><path fill="#FFF" d="M20.49 23.157h-3.829c-1.329 0-1.71 1.316-1.71 1.316l-.479 1.638s-.382 1.325.947 1.325h3.829c1.329 0 1.725-1.325 1.725-1.325l.479-1.638c-.002.001.376-1.316-.962-1.316zm-2.503 3.473h-.839c-.139 0-.099-.138-.099-.138l.699-2.392s.041-.137.182-.137h.837c.142 0 .103.137.103.137l-.699 2.387c.001 0-.037.143-.184.143zM27.524 23.157h-3.83c-1.336 0-1.727 1.33-1.727 1.33l-.825 2.819c-.021.073.021.131.094.131h2.426a.19.19 0 0 0 .17-.131l.937-3.204s.045-.138.181-.138h.839c.146 0 .103.138.103.138l-.43 1.468c-.021.071.021.13.095.13h2.424a.191.191 0 0 0 .171-.13l.317-1.087c.001 0 .388-1.326-.945-1.326zM39.023 23.964h3.096a.192.192 0 0 0 .171-.131l.158-.545c.022-.072-.02-.13-.092-.13h-4.87c-1.173 0-1.396 1.103-1.396 1.103s-.404 1.439.936 1.439h1.885c.145 0 .102.132.102.132l-.189.659s-.04.139-.185.139h-3.096a.19.19 0 0 0-.17.131l-.16.545c-.02.073.021.131.095.131h4.596c1.509 0 1.689-1.187 1.689-1.187s.385-1.357-.946-1.357h-1.895c-.14 0-.103-.144-.103-.144l.19-.646c.001 0 .045-.139.184-.139zM47.16 23.964a.19.19 0 0 0 .171-.131l.159-.545c.021-.072-.02-.13-.094-.13h-1.722l.387-1.322c.021-.072-.021-.13-.093-.13h-2.426a.192.192 0 0 0-.171.13l-1.252 4.279s-.385 1.322.954 1.322h3.599c.071 0 .148-.06.169-.131l.159-.545c.022-.072-.021-.131-.092-.131h-2.109c-.139 0-.099-.143-.099-.143l.736-2.523h1.724zM14.947 22.512a.192.192 0 0 0 .17-.129l.159-.546c.021-.072-.021-.13-.093-.13h-4.332c-.407 0-.528.408-.528.408l-1.518 5.192c-.021.073.021.131.094.131h2.425a.19.19 0 0 0 .17-.131l.742-2.536h2.05a.192.192 0 0 0 .17-.131l.16-.545c.021-.072-.021-.13-.094-.13h-2.05l.425-1.452h2.05zM35.474 24.634l.044-.151s.392-1.326-.949-1.326h-3.824c-1.336 0-1.726 1.321-1.726 1.321l-.477 1.631s-.386 1.327.948 1.327h5.03a.193.193 0 0 0 .172-.131l.158-.545c.021-.072-.021-.131-.094-.131h-3.537c-.14 0-.101-.141-.101-.141l.699-2.386s.039-.14.18-.14h.839c.142 0 .102.14.102.14l-.188.647s-.042.142-.185.142h-.417c-.132 0-.168.129-.168.129l-.161.548s-.036.129.095.129h1.909c1.344.003 1.651-1.063 1.651-1.063zM9.99 19.428c.029-.097-.028-.177-.126-.177H4.803a.257.257 0 0 0-.23.177l-.217.741c-.028.097.029.176.127.176h2.033l-1.431 4.889c-.416 1.284-1.407 1.957-2.223 2.306a.556.556 0 0 0-.169.27c-.055.186-.141.479-.175.599-.054.182.063.18.12.177 2.63-.099 5.226-1.882 5.987-4.484l1.365-4.674zM43.195 20.925c-3.7-2.155-9.559-4.175-16.157-4.175-6.598 0-12.458 2.02-16.159 4.175 3.967-1.661 9.736-3.319 16.159-3.319s12.191 1.658 16.157 3.319z"/></svg>