<svg xmlns="http://www.w3.org/2000/svg" viewBox="0 0 50 50" fill="rgba(255, 255, 255, 0.5)">
<path d="M32.965 19.238h-7.031v-1.953h7.031v1.953zm-15.93 5.347h15.93v-1.953h-15.93v1.953zm0 5.347h15.93v-1.953h-15.93v1.953zm0 5.346h15.93v-1.953h-15.93v1.953zm21.149-23.95v27.344a1.955 1.955 0 0 1-1.953 1.953H13.77a1.955 1.955 0 0 1-1.953-1.953V20.906c0-.8.411-1.792.977-2.357l8.196-8.197c.565-.566 1.558-.977 2.357-.977H36.23c1.078 0 1.954.876 1.954 1.953zM15.15 18.953h6.243v-6.244l-6.243 6.244zm21.08-7.625H23.347v7.625a1.955 1.955 0 0 1-1.953 1.953H13.77v17.766h22.458l.002-27.344z"/>
</svg>