<svg xmlns="http://www.w3.org/2000/svg" xml:space="preserve" width="50" height="50"><g opacity=".5"><g fill="#FFF"><path d="M21.57 14.081a.605.605 0 0 0 .441-.184c.098-.098.146-.245.146-.441s-.049-.343-.146-.441a.651.651 0 0 0-.331-.184l-1.985-.515v-.037l1.985-.515a.637.637 0 0 0 .331-.184c.098-.098.146-.245.146-.441 0-.195-.049-.343-.146-.441a.607.607 0 0 0-.441-.184.498.498 0 0 0-.368.147l-1.507 1.508h-.037l.479-1.729a1.75 1.75 0 0 0 .073-.479.546.546 0 0 0-.147-.404c-.122-.122-.281-.184-.478-.184s-.355.062-.478.184a.544.544 0 0 0-.147.404c0 .147.024.307.073.479l.479 1.729h-.037l-1.508-1.508a.541.541 0 0 0-.404-.147.605.605 0 0 0-.441.184c-.098.099-.146.246-.146.441 0 .196.049.344.146.441s.208.16.331.184l1.985.515v.037l-1.985.515a.636.636 0 0 0-.331.184c-.098.099-.146.245-.146.441s.049.344.146.441a.607.607 0 0 0 .441.184.547.547 0 0 0 .404-.146l1.508-1.508h.037l-.479 1.728a1.756 1.756 0 0 0-.073.479c0 .172.049.307.147.404.122.123.281.184.478.184s.355-.061.478-.184a.541.541 0 0 0 .147-.404c0-.146-.024-.307-.073-.479l-.479-1.728h.037l1.507 1.508a.503.503 0 0 0 .368.146zM36.012 18.785l2.424-.288.016.04-1.979 1.43c-.125.081-.221.196-.287.348s-.057.336.027.553c.085.217.203.358.354.426a.719.719 0 0 0 .568.013c.19-.075.318-.187.385-.339l1.02-2.323.041-.016.218 2.123c.02.211.062.398.125.562.074.19.187.318.338.385a.767.767 0 0 0 .609-.003.768.768 0 0 0 .45-.411c.066-.15.063-.321-.012-.512a2.076 2.076 0 0 0-.288-.498l-1.277-1.709.041-.017 2.322 1.02a.6.6 0 0 0 .472.005.722.722 0 0 0 .41-.396c.065-.15.057-.335-.028-.553s-.203-.358-.354-.426a.77.77 0 0 0-.446-.061l-2.424.288-.017-.041 1.979-1.43a.757.757 0 0 0 .287-.347c.066-.15.057-.335-.028-.553-.085-.217-.203-.358-.354-.426a.717.717 0 0 0-.569-.013.595.595 0 0 0-.343.322l-1.02 2.323-.041.017-.218-2.123a2.114 2.114 0 0 0-.125-.562c-.075-.19-.188-.319-.338-.385a.767.767 0 0 0-.609.003.772.772 0 0 0-.451.41c-.066.151-.062.321.013.512.063.163.159.33.288.498l1.277 1.71-.041.016-2.323-1.02c-.151-.066-.322-.063-.512.012a.72.72 0 0 0-.41.395c-.066.152-.057.336.027.554.085.218.203.359.354.425a.759.759 0 0 0 .449.062zM13.082 36.147c.177.229.366.356.569.382a.942.942 0 0 0 .551-.083l2.777-1.187.033.043-1.852 2.386a.95.95 0 0 0-.22.513c-.026.202.049.418.225.646.177.229.366.355.569.381a.883.883 0 0 0 .68-.182c.199-.155.313-.333.339-.535l.4-3.114.043-.032.997 2.444c.098.243.213.451.345.622.154.2.333.313.535.34.254.032.495-.04.723-.216a.962.962 0 0 0 .393-.645c.025-.202-.039-.403-.193-.604a2.567 2.567 0 0 0-.516-.491l-2.112-1.584.043-.033 3.114.4a.737.737 0 0 0 .561-.158.89.89 0 0 0 .349-.612c.025-.202-.05-.418-.226-.646-.177-.229-.366-.355-.568-.382a.957.957 0 0 0-.551.083l-2.777 1.188-.033-.043 1.852-2.388a.952.952 0 0 0 .22-.512c.025-.202-.05-.417-.226-.646-.177-.229-.366-.355-.568-.382a.884.884 0 0 0-.68.183.733.733 0 0 0-.297.502l-.4 3.113-.043.033-.998-2.444a2.586 2.586 0 0 0-.344-.623c-.154-.2-.333-.313-.535-.339-.254-.033-.494.039-.723.215-.229.177-.36.392-.392.646-.026.202.038.403.192.603.133.172.304.336.516.491l2.112 1.585-.043.032-3.113-.4c-.203-.026-.404.038-.604.193a.883.883 0 0 0-.348.61c-.027.204.048.419.224.647zM31.743 38.435c.092.108.188.168.289.176a.465.465 0 0 0 .271-.052l1.35-.645.016.021-.865 1.217a.466.466 0 0 0-.098.258c-.009.102.032.206.124.315s.188.169.289.177a.437.437 0 0 0 .333-.104.4.4 0 0 0 .156-.271l.134-1.547.021-.018.543 1.188c.054.119.115.219.184.301a.396.396 0 0 0 .271.157c.126.011.244-.03.354-.122s.169-.201.181-.327a.4.4 0 0 0-.108-.294 1.258 1.258 0 0 0-.266-.232l-1.076-.739.021-.018 1.548.134a.36.36 0 0 0 .273-.09.438.438 0 0 0 .16-.31c.008-.101-.033-.206-.125-.315-.092-.108-.188-.168-.289-.177a.472.472 0 0 0-.271.053l-1.349.645-.018-.021.866-1.218a.461.461 0 0 0 .098-.257c.009-.102-.032-.206-.124-.315-.093-.109-.188-.169-.289-.178a.44.44 0 0 0-.333.105.361.361 0 0 0-.136.254l-.133 1.548-.021.017-.544-1.188a1.288 1.288 0 0 0-.183-.302.404.404 0 0 0-.272-.156c-.126-.01-.243.03-.353.122s-.169.201-.181.326a.403.403 0 0 0 .108.295c.069.082.157.159.265.232l1.077.739-.021.018-1.548-.134c-.1-.01-.198.027-.294.107s-.149.184-.16.31c-.009.1.033.205.125.315zM7.968 24.904c-.004.221.062.4.197.54.107.111.258.169.45.173.165.002.344-.021.537-.073l1.946-.503-.001.042-1.719 1.66a.616.616 0 0 0-.173.45.677.677 0 0 0 .197.498c.108.112.272.17.492.175.22.003.386-.049.498-.157a.719.719 0 0 0 .212-.367l.615-2.216.041.002.539 2.234a.711.711 0 0 0 .199.374c.108.112.271.171.492.174.22.004.385-.049.497-.156a.67.67 0 0 0 .215-.491c.003-.192-.049-.345-.157-.456l-1.66-1.719v-.041l1.928.569c.191.058.37.088.535.092.192.003.344-.049.456-.157a.726.726 0 0 0 .216-.532.735.735 0 0 0-.197-.54c-.108-.111-.258-.169-.451-.172a1.903 1.903 0 0 0-.537.073l-1.945.501v-.04l1.719-1.661a.557.557 0 0 0 .172-.409.674.674 0 0 0-.197-.498c-.107-.111-.271-.17-.492-.174-.219-.003-.385.05-.497.156a.72.72 0 0 0-.212.367l-.616 2.216h-.041l-.538-2.236a.72.72 0 0 0-.2-.374c-.107-.112-.272-.169-.491-.174-.22-.003-.386.049-.497.157a.668.668 0 0 0-.215.491.56.56 0 0 0 .157.414l1.66 1.719v.042l-1.928-.569a1.933 1.933 0 0 0-.535-.092.62.62 0 0 0-.455.156.724.724 0 0 0-.216.532zM29.581 12.129c.092.109.188.168.289.177s.191-.008.271-.053l1.35-.644.016.021-.865 1.218a.46.46 0 0 0-.098.258c-.009.101.032.206.124.315s.188.168.289.177a.437.437 0 0 0 .333-.104.396.396 0 0 0 .156-.271l.134-1.548.021-.018.544 1.188c.053.118.114.219.183.301a.395.395 0 0 0 .271.156c.126.012.244-.029.354-.121s.169-.201.181-.327a.398.398 0 0 0-.108-.294 1.23 1.23 0 0 0-.266-.232l-1.076-.739.021-.018 1.548.134a.36.36 0 0 0 .273-.09.438.438 0 0 0 .16-.31c.008-.101-.033-.206-.125-.315s-.188-.168-.289-.177-.191.009-.271.053l-1.349.644-.018-.021.866-1.218a.46.46 0 0 0 .098-.258c.009-.101-.033-.205-.124-.315-.093-.109-.188-.168-.29-.177a.438.438 0 0 0-.332.104.369.369 0 0 0-.136.255l-.134 1.547-.021.018-.544-1.188a1.268 1.268 0 0 0-.183-.302.404.404 0 0 0-.271-.156.476.476 0 0 0-.354.121.475.475 0 0 0-.18.327.4.4 0 0 0 .107.295c.069.082.157.159.266.231l1.076.74-.021.017-1.547-.134a.4.4 0 0 0-.295.108.436.436 0 0 0-.16.309c-.008.101.034.207.126.316z"/></g><g fill="#FFF"><path d="M19.022 20.605c8.867 7.472 16.868 9.228 19.516 12.034a.106.106 0 0 0-.01-.012c-.958-9.94-6.481-13.994-12.052-16.313-1.522-.633-3.087-1.136-4.65-1.577a1.355 1.355 0 0 1-.256.024 1.18 1.18 0 0 1-.682-.207l.001.078c0 .445-.188.728-.347.887-.25.249-.582.382-.958.382-.377 0-.708-.133-.959-.383a1.214 1.214 0 0 1-.347-.886l.002-.079a1.267 1.267 0 0 1-.719.208 1.28 1.28 0 0 1-.922-.383c-.23-.229-.347-.54-.347-.923 0-.052.003-.104.008-.153-2.916-.762-5.623-1.597-7.789-3.012.716 3.654 2.229 7.587 4.229 11.136.341.031.62.155.83.372a1.35 1.35 0 0 1 .283 1.48c.077.122.155.243.234.363.352.054.585.22.727.365.259.27.393.623.386 1.023a1.537 1.537 0 0 1-.017.194c1.873 2.554 3.987 4.698 6.181 6.086 6.796 4.296 14.039 3.094 17.017 2.1-1.951-3.132-10.167-4.397-19.359-12.804zM38.382 33.411z"/></g><path fill="#FFF" d="M39.463 34.779c0-.824-.33-1.515-.935-2.151.022.234.044.471.061.712l-.207.071c.287.46.439.959.439 1.528 0 4.444 1.159 5.686 1.922 5.686s-1.28-1.401-1.28-5.846z"/></g></svg>