<svg xmlns="http://www.w3.org/2000/svg" xml:space="preserve" width="50" height="50"><path fill="#FFF" d="M29.604 14.646v1.976h-13.23v-1.976h13.23zm-1.129 14.393V39.41h-8.396v1.658h-2.081V29.039h10.477zm-.071-9.596v1.939H18.032v-1.939h10.372zm-10.372 6.739v-1.94h10.372v1.94H18.032zM28.299 9.953v1.94H18.174v-1.94h10.125zM26.358 31.05h-6.28v6.35h6.28v-6.35zm14.147-10.372h8.714v1.976H29.181v-1.976h8.96v-2.752h-6.702v-1.869h6.702v-2.54h-7.514v-1.905h7.514V8.647l3.069.177c-.035.247-.247.424-.705.494v2.293h7.902v1.905h-7.902v2.54h7.267v1.869h-7.267v2.753zm6.314 4.092v14.288c0 2.505-1.376 2.505-5.962 2.505-.105-.6-.424-1.411-.705-1.976 1.022.035 1.975.07 2.681.07 1.481 0 1.693-.035 1.693-.6v-3.352h-9.913v5.786h-2.258V24.77h14.464zm-2.293 1.94h-9.913v2.646h9.913V26.71zm-9.913 7.162h9.913V31.19h-9.913v2.682zM.952 16.607h6.244v-8.85h.019L14.368 25 7.215 42.242h-.019v-8.848H.952V16.607z"/></svg>