<svg xmlns="http://www.w3.org/2000/svg" xml:space="preserve" width="50" height="50"><g fill="#FFF"><path d="m19.474 37.543.112-.112 11.909-11.908.122-.124.124-.123 6.31-6.311v-.004l-7.043-7.041c-.001-.002-.003-.002-.003 0l-6.311 6.309-.122.123-.124.124-12.02 12.02h-.001L9.346 40.621c0 .002.002.004.005.004l9.972-3.035.151-.047zm-7.881.832 1.538-5.056c0-.002.003-.002.005-.002l3.516 3.518c.002 0 .001.005-.001.005l-5.055 1.538c-.002.002-.005 0-.003-.003zM40.066 15.73a2.019 2.019 0 0 0 0-2.847l-2.922-2.921a2.019 2.019 0 0 0-2.847 0l-1.459 1.459c-.002 0-.002.002 0 .003l5.766 5.765c.001.002.002.002.004 0l1.458-1.459z"/></g></svg>