<svg xmlns="http://www.w3.org/2000/svg" xml:space="preserve" width="300" height="110"><path fill="#006451" d="M119.928 42.716H94.407c-8.862 0-11.405 8.774-11.405 8.774l-3.196 10.922s-2.549 8.83 6.313 8.83h25.526c8.861 0 11.5-8.83 11.5-8.83l3.192-10.922c.001 0 2.514-8.774-6.409-8.774zM103.249 65.87h-5.595c-.929 0-.657-.929-.657-.929l4.656-15.931s.271-.918 1.216-.918h5.58c.947 0 .686.918.686.918l-4.653 15.912s-.256.948-1.233.948zM166.827 42.716h-25.531c-8.908 0-11.512 8.861-11.512 8.861l-5.494 18.798c-.143.479.14.867.621.867h16.176c.483 0 .989-.389 1.134-.867l6.243-21.359s.305-.924 1.206-.924h5.592c.968 0 .686.924.686.924l-2.864 9.781c-.14.479.141.867.629.867h16.17c.483 0 .991-.389 1.131-.867l2.117-7.238s2.584-8.843-6.304-8.843zM243.485 48.092h20.646c.484 0 .993-.392 1.133-.87l1.062-3.637c.142-.48-.137-.869-.621-.869h-32.468c-7.818 0-9.302 7.353-9.302 7.353s-2.695 9.595 6.243 9.595h12.561c.963 0 .686.888.686.888l-1.277 4.384s-.258.935-1.222.935h-20.643c-.479 0-.988.387-1.129.87l-1.068 3.635c-.136.479.144.867.629.867h30.635c10.067 0 11.268-7.907 11.268-7.907s2.564-9.047-6.308-9.047h-12.635c-.93 0-.681-.96-.681-.96l1.265-4.306c0-.001.298-.931 1.226-.931zM297.741 48.092c.487 0 .992-.392 1.135-.87l1.062-3.637c.141-.48-.14-.869-.621-.869h-11.482l2.576-8.813c.14-.482-.141-.866-.622-.866h-16.174c-.482 0-.988.383-1.131.866l-8.351 28.524s-2.563 8.814 6.366 8.814h23.985c.478 0 .985-.389 1.129-.867l1.063-3.635c.142-.483-.141-.87-.62-.87h-14.054c-.928 0-.666-.948-.666-.948l4.921-16.83h11.484zM82.981 38.412c.481 0 .99-.392 1.129-.862l1.062-3.641c.142-.482-.137-.871-.622-.871H55.676c-2.716 0-3.519 2.72-3.519 2.72L42.034 70.375c-.142.479.143.867.627.867h16.17c.483 0 .991-.389 1.133-.867l4.946-16.911h13.666c.482 0 .992-.389 1.134-.869l1.065-3.637c.138-.477-.144-.866-.626-.866H66.481l2.835-9.68h13.665zM219.82 52.559l.294-1.003s2.617-8.839-6.326-8.839h-25.497c-8.907 0-11.502 8.804-11.502 8.804l-3.178 10.876s-2.572 8.846 6.327 8.846h33.538c.479 0 .991-.389 1.135-.867l1.063-3.635c.14-.483-.142-.87-.627-.87h-23.585c-.934 0-.667-.937-.667-.937l4.655-15.906s.267-.936 1.207-.936h5.586c.946 0 .683.936.683.936l-1.265 4.317s-.273.943-1.224.943h-2.777c-.879 0-1.127.862-1.127.862l-1.071 3.652s-.244.861.629.861h12.729c8.956.001 11-7.104 11-7.104z"/><path fill="#663A1F" d="M49.936 17.855c.194-.648-.188-1.179-.844-1.179H15.353c-.656 0-1.35.531-1.537 1.179l-1.446 4.938c-.19.645.193 1.178.847 1.178h13.551l-9.536 32.59C14.457 65.112 7.855 69.61 2.417 71.936c-.48.34-.947 1.153-1.132 1.792-.364 1.239-.938 3.194-1.167 3.991-.358 1.215.418 1.199.803 1.184 17.532-.662 34.835-12.548 39.909-29.893.057-.185 9.106-31.155 9.106-31.155z"/><path fill="#6FB92C" d="M271.308 27.83C246.635 13.466 207.572 0 163.586 0 119.602 0 80.535 13.466 55.864 27.83 82.31 16.757 120.769 5.705 163.586 5.705c42.815 0 81.274 11.052 107.722 22.125zM0 86.326h300V110H0z"/><g fill="#FFF"><path d="M99.324 92.997h6.255v8.782h-2.194v-.89h-4.061v5.49h-2.195v-5.49h-3.904v.977h-2.107v-8.869h6.012v-3.05l2.684.158c-.019.174-.14.276-.488.33v2.562zm-6.099 5.837h3.904v-3.78h-3.904v3.78zm6.099 0h4.061v-3.78h-4.061v3.78zM111.638 94.791c1.012.366 2.284 1.047 2.928 1.604l-1.237 1.689c-.575-.558-1.848-1.325-2.842-1.76l1.151-1.533zm-.802 10.264c.731-1.376 1.743-3.59 2.509-5.646l1.673 1.151c-.679 1.864-1.463 3.799-2.125 5.14a.622.622 0 0 1 .139.384.63.63 0 0 1-.052.244l-2.144-1.273zm1.656-15.004c.975.436 2.265 1.133 2.892 1.708l-1.255 1.673c-.574-.575-1.813-1.377-2.822-1.847l1.185-1.534zm13.47 12.233.959.94a.347.347 0 0 1-.244.087c-.054 0-.123-.017-.193-.034a18.36 18.36 0 0 1-1.516.802c.628.349 1.342.61 2.18.768-.4.364-.891 1.08-1.134 1.55-1.48-.383-2.596-1.062-3.45-2.003l.034 1.062c-1.674.244-3.38.487-4.495.611a.354.354 0 0 1-.278.278l-.646-1.864 1.082-.087v-2.109h-.906c-.243 1.447-.697 2.927-1.552 4.061-.331-.313-1.148-.82-1.586-1.01 1.395-1.847 1.553-4.428 1.553-6.204v-2.197h11.012v1.517h-9.183v.697c0 .504-.019 1.063-.07 1.655h9.444v1.481h-1.011zm.208-11.048v5.123h-10.088v-5.123h2.805v-1.271l2.057.121c-.02.139-.14.227-.42.28v.87h1.012v-1.271l2.074.121c-.018.139-.122.227-.401.28v.87h2.961zm-8.242 1.274v.678h.959v-.678h-.959zm0 1.88v.681h.959v-.681h-.959zm7.842 5.856h-7.72v-1.238h7.72v1.238zm-5.647 3.973 2.126-.191a8.811 8.811 0 0 1-.992-1.743h-1.134v1.934zm1.412-11.709h-1.012v.678h1.012v-.678zm0 1.88h-1.012v.681h1.012v-.681zm1.533 7.894c.21.349.471.662.75.94.471-.278.992-.627 1.43-.94h-2.18zm1.185-9.096v-.678h-1.045v.678h1.045zm0 1.882v-.68h-1.045v.681h1.045zM136.15 100.943v.331c.679.418 1.968 1.271 2.317 1.532l-1.219 1.534a22.598 22.598 0 0 0-1.099-1.116v3.155h-1.97v-3.469c-.661 1.116-1.463 2.073-2.404 2.701-.174-.592-.594-1.41-.907-1.968.994-.627 1.919-1.604 2.581-2.701h-2.248v-1.829h2.979V97.23l2.405.14c-.018.174-.14.261-.436.313v1.43h2.265v1.829h-2.264zm1.881-3.101v-3.747c-1.429 1.638-3.362 2.963-5.437 3.729-.278-.505-.871-1.237-1.288-1.621 1.759-.54 3.466-1.479 4.738-2.63h-3.92v-1.848h5.906v-1.813l2.563.139c-.019.174-.157.279-.471.331v1.343h6.185v1.848h-4.217c1.378 1.08 3.172 1.986 5.019 2.474-.452.4-1.046 1.201-1.359 1.726-2.107-.751-4.13-2.073-5.627-3.729v3.8h-2.092zm9.15 3.101h-2.526c.802 1.22 1.864 2.368 2.927 3.049-.471.401-1.132 1.132-1.479 1.689-.855-.784-1.692-1.933-2.388-3.205v3.903h-1.97v-3.903c-.768 1.342-1.743 2.491-2.876 3.242-.296-.455-.87-1.169-1.288-1.517 1.253-.697 2.351-1.9 3.136-3.259h-1.761v-1.829h2.789V97.23l2.421.14c-.017.174-.157.261-.451.331v1.412h3.467v1.83zM156.514 96.446c.645.627 2.196 2.354 2.544 2.788l-1.255 1.76c-.294-.539-.784-1.271-1.289-1.986v7.372h-2.038v-7.092c-.627 1.637-1.395 3.152-2.249 4.163-.227-.627-.714-1.498-1.062-2.037 1.254-1.412 2.388-3.765 2.997-5.873h-2.526v-1.969h2.84v-3.625l2.491.139c-.016.176-.14.28-.453.333v3.153h2.317v1.969h-2.317v.905zm11.152-.905h-2.84c.749 2.422 1.969 4.896 3.24 6.378-.487.365-1.201 1.079-1.568 1.619-.802-1.132-1.55-2.718-2.16-4.443v7.285h-2.091v-7.179c-.854 1.899-1.916 3.605-3.103 4.774-.243-.611-.783-1.412-1.168-1.917 1.656-1.569 3.138-4.061 3.957-6.518h-2.508v-1.969h2.821v-3.625l2.579.139c-.018.193-.157.28-.488.35v3.137h3.328v1.969zM177.803 99.933a8.027 8.027 0 0 0-.244-.785l-1.256.087v7.162h-1.847v-5.646c-.053.106-.174.175-.384.157-.174 1.43-.504 3.103-1.009 4.167-.367-.246-1.047-.542-1.465-.733.436-.959.714-2.613.854-4.095l2.004.47v-1.358c-.784.051-1.499.087-2.073.104a.365.365 0 0 1-.314.261l-.417-2.091h1.393c.263-.331.524-.679.802-1.063-.521-.767-1.376-1.726-2.144-2.422l.994-1.43.384.333c.522-.978 1.045-2.163 1.343-3.085l2.09.854c-.07.121-.227.19-.471.19-.437.959-1.168 2.248-1.777 3.223.244.264.452.523.646.769a29.778 29.778 0 0 0 1.672-2.963l2.004.923c-.053.123-.227.193-.487.193-.801 1.322-2.022 3.048-3.171 4.443l1.95-.019c-.244-.469-.488-.939-.749-1.341l1.499-.68c.731 1.114 1.517 2.597 1.776 3.589l-1.603.786zm.209.243c.435 1.012.888 2.317 1.079 3.188-.505.174-1.027.367-1.656.594-.137-.871-.574-2.249-.992-3.277l1.569-.505zm9.06 3.869h1.168v1.882h-10.264v-1.882h1.586V90.783h7.51v13.262zm-2.108-11.379h-3.379v2.457h3.379v-2.457zm0 6.865v-2.527h-3.379v2.527h3.379zm-3.379 1.883v2.631h3.379v-2.631h-3.379zM196.058 96.202a25.05 25.05 0 0 1-2.735 1.727c-.277-.488-.854-1.256-1.288-1.674 3.015-1.481 5.906-4.147 7.196-6.308l2.805.158c-.052.189-.208.313-.469.346 1.689 2.266 4.686 4.463 7.316 5.543-.504.522-.992 1.237-1.358 1.882a24.868 24.868 0 0 1-2.682-1.656v1.238h-8.785v-1.256zm-1.149 10.212v-7.213h11.152v7.213h-2.144v-.646h-6.952v.646h-2.056zm9.096-10.803c-1.463-1.135-2.788-2.404-3.643-3.573-.802 1.169-2.055 2.421-3.52 3.573h7.163zm-.087 5.453h-6.952v2.858h6.952v-2.858z"/></g></svg>