<svg xmlns="http://www.w3.org/2000/svg" xml:space="preserve" width="300" height="110"><path fill="#FFF" d="M119.928 42.716H94.407c-8.862 0-11.405 8.774-11.405 8.774l-3.196 10.922s-2.549 8.83 6.313 8.83h25.526c8.861 0 11.5-8.83 11.5-8.83l3.192-10.922c.001 0 2.514-8.774-6.409-8.774zM103.249 65.87h-5.595c-.929 0-.657-.929-.657-.929l4.656-15.932s.271-.918 1.216-.918h5.58c.947 0 .686.918.686.918l-4.653 15.912c0 .001-.256.949-1.233.949zm63.578-23.154h-25.531c-8.908 0-11.512 8.861-11.512 8.861l-5.494 18.798c-.143.479.14.867.621.867h16.176c.483 0 .989-.389 1.134-.867l6.243-21.359s.305-.924 1.206-.924h5.592c.969 0 .686.924.686.924l-2.863 9.781c-.141.479.141.867.629.867h16.17c.483 0 .991-.389 1.131-.867l2.117-7.238c-.001 0 2.583-8.843-6.305-8.843zm76.657 5.376h20.646c.484 0 .993-.392 1.133-.87l1.063-3.637c.142-.48-.137-.869-.621-.869h-32.469c-7.817 0-9.301 7.353-9.301 7.353s-2.695 9.595 6.242 9.595h12.562c.963 0 .686.888.686.888l-1.276 4.384s-.258.936-1.223.936h-20.643c-.479 0-.988.387-1.129.87l-1.068 3.635c-.136.479.145.867.629.867h30.635c10.067 0 11.269-7.907 11.269-7.907s2.563-9.047-6.308-9.047h-12.636c-.93 0-.681-.96-.681-.96l1.265-4.306c0-.002.298-.932 1.225-.932zm54.257 0c.486 0 .992-.392 1.135-.87l1.063-3.637c.141-.48-.141-.869-.621-.869h-11.482l2.576-8.813c.14-.482-.142-.866-.622-.866h-16.174c-.482 0-.988.383-1.131.866l-8.352 28.524s-2.563 8.814 6.366 8.814h23.985c.478 0 .984-.39 1.129-.867l1.063-3.635c.143-.483-.141-.87-.619-.87h-14.055c-.928 0-.666-.948-.666-.948l4.921-16.83 11.484.001zm-214.76-9.68c.481 0 .99-.392 1.129-.862l1.062-3.641c.142-.482-.137-.871-.622-.871H55.676c-2.716 0-3.519 2.72-3.519 2.72L42.034 70.375c-.142.479.143.867.627.867h16.17c.483 0 .991-.389 1.133-.867l4.946-16.911h13.666c.482 0 .992-.389 1.134-.869l1.065-3.637c.138-.477-.144-.866-.626-.866H66.481l2.835-9.68h13.665zM219.82 52.559l.294-1.003s2.616-8.839-6.326-8.839h-25.497c-8.907 0-11.502 8.804-11.502 8.804l-3.178 10.875s-2.572 8.847 6.326 8.847h33.539c.479 0 .99-.39 1.135-.867l1.063-3.635c.141-.483-.142-.87-.627-.87h-23.585c-.935 0-.667-.938-.667-.938l4.655-15.906s.267-.936 1.207-.936h5.586c.946 0 .683.936.683.936l-1.265 4.317s-.272.943-1.224.943h-2.777c-.879 0-1.127.862-1.127.862l-1.071 3.652s-.244.861.629.861h12.729c8.955.002 11-7.103 11-7.103zM49.936 17.855c.194-.648-.188-1.179-.844-1.179H15.353c-.656 0-1.35.531-1.537 1.179l-1.446 4.938c-.19.645.193 1.178.847 1.178h13.551L17.232 56.56c-2.775 8.551-9.377 13.049-14.815 15.375-.48.34-.947 1.153-1.132 1.793a990.804 990.804 0 0 0-1.167 3.99c-.358 1.215.418 1.199.803 1.184 17.532-.661 34.835-12.547 39.909-29.892.057-.185 9.106-31.155 9.106-31.155zm221.373 9.975C246.635 13.466 207.572 0 163.586 0 119.602 0 80.535 13.466 55.864 27.83 82.31 16.757 120.769 5.705 163.586 5.705c42.814 0 81.273 11.052 107.723 22.125zM117.928 92.51h.959v.678h-.959v-.678zm5.28 1.881h1.045v.68h-1.045v-.68zm-2.685-1.881h1.012v.678h-1.012v-.678zm0 1.881h1.012v.68h-1.012v-.68zm4.725 7.893c-.438.313-.959.661-1.43.94a4.989 4.989 0 0 1-.75-.94h2.18zm-3.991.001c.278.646.609 1.221.992 1.742l-2.126.191v-1.934h1.134zm-21.933-7.23h4.061v3.779h-4.061v-3.779zm-6.099 0h3.904v3.779h-3.904v-3.779zm29.983-2.545h1.045v.678h-1.045v-.678zm58.377 4.494h3.379v2.527h-3.379v-2.527zm22.333 6.918h-6.952v-2.857h6.952v2.857zM0 86.326V110h300V86.326H0zm132.124 7.247v-1.849h5.906v-1.813l2.563.139c-.019.174-.157.279-.471.331v1.343h6.185v1.849h-4.217c1.378 1.079 3.172 1.985 5.019 2.474-.452.4-1.046 1.201-1.359 1.727-2.107-.752-4.13-2.073-5.627-3.729v3.8h-2.092V94.097c-1.429 1.637-3.362 2.963-5.437 3.729-.278-.506-.871-1.237-1.288-1.621 1.759-.54 3.466-1.479 4.738-2.63h-3.92zm-16.042-2.337h2.805v-1.271l2.057.121c-.02.139-.14.227-.42.28v.87h1.012v-1.271l2.074.121c-.018.139-.122.227-.401.28v.87h2.961v5.123h-10.088v-5.123zm-3.59-1.185c.975.436 2.265 1.133 2.892 1.708l-1.255 1.673c-.574-.574-1.813-1.377-2.822-1.847l1.185-1.534zm-6.913 11.728h-2.194v-.891h-4.061v5.49h-2.195v-5.49h-3.904v.978h-2.107v-8.869h6.012v-3.05l2.684.158c-.019.174-.14.275-.488.33v2.562h6.253v8.782zm6.059-6.988c1.012.366 2.284 1.047 2.928 1.604l-1.237 1.689c-.575-.559-1.848-1.325-2.842-1.76l1.151-1.533zm1.342 11.537-2.144-1.273c.731-1.375 1.743-3.59 2.509-5.646l1.673 1.151c-.679 1.863-1.463 3.799-2.125 5.14a.622.622 0 0 1 .139.384.63.63 0 0 1-.052.244zm13.034.068c-1.48-.383-2.596-1.062-3.45-2.002l.034 1.062c-1.674.244-3.38.487-4.495.61a.355.355 0 0 1-.278.279l-.646-1.865 1.082-.086v-2.109h-.906c-.243 1.447-.697 2.927-1.552 4.061-.331-.313-1.148-.82-1.586-1.01 1.395-1.847 1.553-4.428 1.553-6.204v-2.196h11.012v1.517h-9.183v.696c0 .504-.019 1.063-.07 1.656h9.444v1.48h-1.01l.958.939a.347.347 0 0 1-.244.086c-.054 0-.123-.017-.193-.033a18.36 18.36 0 0 1-1.516.802c.628.349 1.342.61 2.18.769-.4.363-.891 1.079-1.134 1.548zm-.244-7.388v1.238h-7.72v-1.238h7.72zm10.379 4.217v3.154h-1.97v-3.469c-.661 1.115-1.463 2.072-2.404 2.701-.174-.592-.594-1.41-.907-1.969.994-.627 1.919-1.604 2.581-2.701h-2.248v-1.828h2.979V97.23l2.405.14c-.018.174-.14.261-.436.313v1.43h2.265v1.828h-2.264v.332c.679.418 1.968 1.271 2.317 1.533l-1.219 1.533a23.62 23.62 0 0 0-1.099-1.114zm9.954 2.457c-.855-.785-1.692-1.934-2.388-3.205v3.902h-1.97v-3.902c-.768 1.342-1.743 2.49-2.876 3.241-.296-.454-.87-1.169-1.288-1.517 1.253-.697 2.351-1.9 3.136-3.26h-1.761v-1.828h2.789V97.23l2.421.14c-.017.174-.157.261-.451.331v1.412h3.467v1.83H144.655c.802 1.22 1.864 2.367 2.927 3.049-.471.401-1.132 1.132-1.479 1.69zm10.411-6.674v7.372h-2.037v-7.092c-.627 1.637-1.396 3.151-2.25 4.163-.227-.627-.713-1.498-1.062-2.037 1.254-1.412 2.388-3.766 2.997-5.873h-2.525v-1.969h2.84v-3.625l2.49.139c-.016.176-.14.28-.453.333v3.153h2.317v1.969h-2.317v.904c.646.628 2.196 2.354 2.545 2.789l-1.256 1.76c-.294-.539-.783-1.271-1.289-1.986zm9.984 4.53c-.803-1.132-1.55-2.718-2.16-4.442v7.284h-2.091v-7.179c-.854 1.898-1.916 3.605-3.103 4.773-.244-.61-.783-1.412-1.168-1.916 1.655-1.569 3.138-4.062 3.957-6.519h-2.509v-1.97h2.821v-3.625l2.579.14c-.019.192-.157.28-.488.351v3.137h3.328v1.969h-2.839c.749 2.422 1.969 4.896 3.24 6.378-.486.365-1.2 1.079-1.567 1.619zm9.805 2.858h-1.847v-5.646c-.054.106-.174.175-.384.157-.174 1.43-.504 3.103-1.01 4.167-.367-.246-1.047-.542-1.465-.733.437-.959.715-2.613.854-4.095l2.004.47v-1.357c-.784.051-1.499.086-2.073.104a.367.367 0 0 1-.314.262l-.416-2.092h1.393c.264-.331.523-.679.803-1.063-.521-.768-1.377-1.727-2.145-2.422l.994-1.431.384.333c.522-.978 1.045-2.162 1.343-3.085l2.09.854c-.07.121-.227.189-.471.189-.438.959-1.168 2.248-1.777 3.223.244.265.452.523.646.77a29.89 29.89 0 0 0 1.672-2.963l2.004.923c-.053.123-.227.192-.486.192a41.145 41.145 0 0 1-3.172 4.443l1.95-.019c-.243-.47-.487-.938-.749-1.341l1.499-.68c.731 1.113 1.517 2.596 1.776 3.588l-1.604.787a7.943 7.943 0 0 0-.244-.785l-1.256.086v7.164zm.14-5.714 1.568-.506c.436 1.012.889 2.317 1.079 3.188-.505.174-1.026.366-1.655.594-.137-.871-.574-2.249-.992-3.276zm11.797 5.245h-10.264v-1.882h1.586V90.783h7.51v13.262h1.168v1.882zm17.821.487h-2.144v-.646h-6.952v.646h-2.056v-7.213h11.151v7.213zm1.464-8.538a24.928 24.928 0 0 1-2.683-1.655v1.237h-8.784v-1.256a25.21 25.21 0 0 1-2.735 1.728c-.277-.488-.854-1.257-1.288-1.675 3.015-1.481 5.906-4.147 7.195-6.308l2.806.158c-.052.188-.208.313-.47.346 1.689 2.266 4.687 4.463 7.316 5.543-.503.522-.991 1.236-1.357 1.882zm-89.597-3.485h.959v.68h-.959v-.68zm63.657 7.023h3.379v2.631h-3.379v-2.631zm22.42-5.803h-7.163c1.465-1.152 2.719-2.404 3.52-3.573.855 1.169 2.18 2.439 3.643 3.573zm-22.42-2.945h3.379v2.457h-3.379v-2.457z"/></svg>