<svg xmlns="http://www.w3.org/2000/svg" viewBox="0 0 50 50" fill="rgba(255, 255, 255, 0.5)">
<path class="key" d="M34.083 18.458c0-5.008-4.074-9.083-9.083-9.083s-9.083 4.075-9.083 9.083c0 3.518 2.075 6.741 5.228 8.225v11.169c0 .313.15.608.405.792l2.488 1.797a.974.974 0 0 0 1.35-.203l3.621-4.791a.977.977 0 0 0-.002-1.18l-.76-1.001.728-1.003a.975.975 0 0 0-.012-1.163l-.678-.895 1.314-1.697a.975.975 0 0 0 .204-.599l-.002-1.741a9.07 9.07 0 0 0 4.282-7.71zm-5.717 6.287a.978.978 0 0 0-.515.86v1.971l-1.567 2.025a.978.978 0 0 0-.006 1.188l.691.913-.728 1.004a.975.975 0 0 0 .013 1.164l.75.988-2.599 3.438-1.309-.944V26.037a.976.976 0 0 0-.63-.913 7.172 7.172 0 0 1-4.598-6.667c0-3.932 3.198-7.13 7.13-7.13s7.13 3.198 7.13 7.13a7.12 7.12 0 0 1-3.762 6.288zm-4.39 1.819h1.172v9.594h-1.172v-9.594zm2.577-10.981a1.552 1.552 0 1 1-3.105 0 1.552 1.552 0 0 1 3.105 0z"/>
</svg>