<svg xmlns="http://www.w3.org/2000/svg" xml:space="preserve" id="_x32_" x="0" y="0" style="width:16px;height:16px;opacity:1" version="1.1" viewBox="0 0 512 512"><style>.st0{fill:#4b4b4b}</style><path d="M359.59 111.255H153.498l-.848-.001v.001h-.24v15.99h207.18zM359.59 175.88v-16.654H152.41V175.88zM127.44 367.96l-32.889 66.276-14.711 29.405h.119l-.119.239h336.32l-47.6-95.92z" class="st0" style="fill:#fff"/><path d="M112.16 80.12H398.9l.94.001V191.88h32V48.12H80.16v143.76h32zM431.84 207.96v-.08H80.16v.08H0v192h80.24l31.76-64h288l31.76 64H512v-192h-80.16zM92 288.12c-11.039 0-20-8.961-20-20 0-11.041 8.961-20 20-20s20 8.959 20 20c0 11.039-8.961 20-20 20zm64 0c-11.039 0-20-8.961-20-20 0-11.041 8.961-20 20-20s20 8.959 20 20c0 11.039-8.961 20-20 20z" class="st0" style="fill:#fff"/></svg>