<svg xmlns="http://www.w3.org/2000/svg" xml:space="preserve" width="28.35" height="28.35"><path fill="#FF0700" d="M-35.45 1.301c7.098 0 12.873 5.775 12.873 12.873s-5.775 12.874-12.873 12.874c-7.098 0-12.873-5.775-12.873-12.874S-42.548 1.301-35.45 1.301m0-1.3c-7.828 0-14.173 6.346-14.173 14.173 0 7.828 6.345 14.173 14.173 14.173 7.827 0 14.173-6.346 14.173-14.173S-27.623.001-35.45.001z"/><text font-family="'TankuinEGP-Bold-SJIS'" font-size="12" glyph-orientation-vertical="0" transform="translate(-10.333)" writing-mode="tb">柴田</text><g fill="#FF0700"><path d="M14.175.001C6.347.001.002 6.347.002 14.174c0 7.828 6.345 14.173 14.173 14.173 7.827 0 14.173-6.346 14.173-14.173S22.002.001 14.175.001zm-3.779 22.06 2.771-.462v3.366l-4.114.528-1.175-6.865-.168-.33 4.87-.527a.655.655 0 0 1 .42.462l.167 2.706-3.694.727c-.113.131.195.263.923.395zm-1.105 4.018c2.938-.347 5.603-.564 7.991-.652.391.045.699.155.924.33.11.209.21.378.303.524a12.787 12.787 0 0 1-4.333.767 12.79 12.79 0 0 1-4.885-.969zm10.762-5.866a58.77 58.77 0 0 1-1.008 4.224c-.225.485-.504.705-.84.66-.225-.175-.588-.373-1.092-.594-.168 0-.477.044-.924.132l-1.679.198.084-3.498a124.95 124.95 0 0 1 2.183-.133c.336 0 .672-.021 1.008-.065.447-.176.504-.396.168-.66-.561-.22-1.092-.33-1.596-.33-.225-.043-.363 0-.42.132-.336.177-.784.309-1.343.396l-.084-2.772-.252-.33 4.702-.396c.504-.043.867.023 1.092.198.168.177.252.462.252.858.001.44-.083 1.1-.251 1.98zm.419 5.178 1.933-7.026c.391-.22.391-.483 0-.792-.785-.66-1.428-1.1-1.932-1.32-.225-.088-.42-.065-.588.066-.336.089-.785.154-1.344.197l-11 1.255a11.368 11.368 0 0 1-1.511-.265c-.336 0-.42.11-.252.33.168.177.336.375.504.595l1.331 6.799c-3.771-2.247-6.311-6.355-6.311-11.055 0-5.507 3.483-10.205 8.356-12.039.044.029.091.059.15.086.223.221.336.44.336.66v3.234c0 .309.027.639.084.99l-1.427.396a14.393 14.393 0 0 1-.084-1.518c0-.396.027-.66.084-.792.055-.175-.14-.352-.588-.528a3.927 3.927 0 0 0-1.26-.198c-.224.089-.251.221-.083.396.223.132.364.242.42.33l.42 2.574-.756.198c-.449-.131-.644-.109-.588.066 0 .089.111.221.335.396a3.96 3.96 0 0 0 1.428.396.56.56 0 0 0 .504-.264l5.29-2.311c.112-.175.028-.241-.252-.198l-2.435.726c.055-.66.112-1.363.168-2.112a62.328 62.328 0 0 0 2.519-.396c.223-.043.363-.132.42-.264 0-.132-.084-.241-.252-.33-.392-.132-.728-.175-1.007-.132-.057.089-.168.176-.336.264-.561.176-1.008.287-1.344.33 0-.572.055-1.056.168-1.452.112-.132.084-.264-.084-.396a3.176 3.176 0 0 0-.755-.462c-.03-.01-.051-.013-.08-.022 1.121-.32 2.3-.502 3.522-.502.127 0 .25.015.375.019.016.015.025.028.044.043.168.132.307.264.42.396v5.017c0 .968.95 1.452 2.854 1.452H19.8c1.176-.043 2.016-.22 2.52-.528.279-.219.307-.417.084-.594a1.776 1.776 0 0 1-.672-.528c-.168-.307-.309-.813-.42-1.518-.113-.132-.197-.132-.252 0 0 1.232-.309 1.937-.924 2.112a5.307 5.307 0 0 1-1.176.132h-1.596c-.504 0-.84-.043-1.008-.132-.113-.088-.168-.22-.168-.396V5.522c0-.396.027-.726.084-.99.223 0 .699-.043 1.428-.132.783-.087 1.65-.241 2.604-.462.223-.087.279-.241.168-.462a2.215 2.215 0 0 0-.672-.198 12.049 12.049 0 0 0-1.092-.066 1.39 1.39 0 0 0-.42.33c-.449.176-1.121.353-2.016.528.111-.924.223-1.605.336-2.046.106-.168.055-.337-.146-.507 6.009 1.084 10.585 6.341 10.585 12.657.001 4.811-2.656 9.008-6.575 11.217z"/><path d="M20.137 12.651a42.426 42.426 0 0 1-2.604-.726c-.168-.043-.252 0-.252.132.672.749 1.344 1.364 2.016 1.848.615.44 1.008.683 1.176.726.336.088.588.044.756-.132.168-.132.195-.33.084-.594-.393-.572-.786-.99-1.176-1.254z"/><path d="M20.389 8.955a.922.922 0 0 0-.588.198 3.936 3.936 0 0 1-.672.198 539.53 539.53 0 0 1-4.282.396c0-.22.027-.483.084-.792.111-.175.084-.33-.084-.462-.617-.352-1.064-.55-1.344-.594-.503 0-.56.176-.168.528.168.264.252.749.252 1.453-2.575.308-5.15.594-7.725.858-.225.044-.252.132-.084.264.615.264 1.063.44 1.343.528l.756-.198a47.475 47.475 0 0 1 5.709-.858c0 .749-.029 1.716-.084 2.904 0 .44-.029.726-.084.858-.113.132-.308.176-.587.132l-1.512-.33c-.224-.043-.308 0-.252.132.28.089.616.309 1.008.66.336.308.756.77 1.259 1.386.055.133.196.199.42.199.168.043.391-.178.672-.66.223-.396.391-.792.504-1.189l-.084-1.122v-3.102c1.958-.132 3.722-.175 5.29-.132H21.9c.391 0 .672-.109.84-.33 0-.176-.084-.33-.252-.462a6.814 6.814 0 0 0-2.099-.463z"/><path d="M9.641 11.859a9.525 9.525 0 0 1-1.847 1.584c-.168.309-.168.726 0 1.254.111.264.336.352.672.264.447-.22.727-.505.839-.858.336-.88.531-1.606.588-2.178-.057-.088-.141-.11-.252-.066z"/></g><text fill="#FF0700" font-family="'HGSeikaishotaiPRO'" font-size="21.495" glyph-orientation-vertical="0" letter-spacing="-5.088" transform="matrix(1 0 0 .7861 -35.45 .291)" writing-mode="tb">柴田</text></svg>